<svg xmlns="http://www.w3.org/2000/svg" xmlns:xlink="http://www.w3.org/1999/xlink" xmlns:lucid="lucid" width="1674" height="1322"><g transform="translate(-2733 -1842)" lucid:page-tab-id="HWEp-vi-RSFO"><path d="M4163.74 1261.15h-10a12 12 0 0 0-12 12V1738a12 12 0 0 1-12 12H1071a12 12 0 0 0-12 12v317.5a12 12 0 0 0 12 12h436.68M4163.7 1261.15h2.04" stroke="#635dff" stroke-width="4" fill="none"/><path d="M1509.68 2093.5h-2.05v-4h2.05z" stroke="#635dff" stroke-width=".05" fill="#635dff"/><use xlink:href="#a" transform="matrix(1,0,0,1,4148.741580216798,1235.5475037154229) translate(0 14.4)"/><use xlink:href="#a" transform="matrix(1,0,0,1,1499.677085488536,2065.8999999999996) translate(0 14.4)"/><path d="M3781.48 2004.92h510.56v1054H2912.48v-1080h828zm-869 0h869" stroke="#000" stroke-width="2" fill="#fff"/><use xlink:href="#b" transform="matrix(1,0,0,1,2920.48336471063,1978.918801681668) translate(354.55 16.6)"/><path d="M4268.83 1326v582a12 12 0 0 1-12 12H2842a12 12 0 0 0-12 12v189.7a12 12 0 0 0 12 12h490.8a3.3 3.3 0 0 1 3.3 3.3" stroke="#635dff" stroke-width="4" fill="none"/><path d="M4270.83 1326.05h-4V1324h4zM3338.1 2139h-4v-2.05h4z" stroke="#635dff" stroke-width=".05" fill="#635dff"/><use xlink:href="#a" transform="matrix(1,0,0,1,4250.834293160165,1323.2) translate(0 14.4)"/><use xlink:href="#a" transform="matrix(1,0,0,1,3237.225327660115,2137.709400840834) translate(0 14.4)"/><path d="M4336 1326v736a12 12 0 0 0 12 12h652.12" stroke="#635dff" stroke-width="4" fill="none"/><path d="M4338 1326.05h-4V1324h4zM5002.12 2076h-2.05v-4h2.05z" stroke="#635dff" stroke-width=".05" fill="#635dff"/><use xlink:href="#a" transform="matrix(1,0,0,1,4344,1694.310385689135) translate(0 14.4)"/><use xlink:href="#a" transform="matrix(1,0,0,1,4997.122648522315,2048.3999999999996) translate(0 14.4)"/><path d="M4381.83 1252H4548a12 12 0 0 1 12 12v644a12 12 0 0 0 12 12h2442.26a12 12 0 0 1 12 12v194.42a12 12 0 0 0 12 12h35" stroke="#635dff" stroke-width="4" fill="none"/><path d="M4381.9 1254h-2.07v-4h2.06zM7075.26 2140.42h-2.05v-4h2.06z" stroke="#635dff" stroke-width=".05" fill="#635dff"/><use xlink:href="#a" transform="matrix(1,0,0,1,4379.834293160165,1256.0000000000002) translate(0 14.4)"/><use xlink:href="#a" transform="matrix(1,0,0,1,7065.257582435864,2112.8188016816675) translate(0 14.4)"/><path d="M3247.5 2383h195v118h-195z" stroke="#333" stroke-width="2" fill="#7030a0"/><path d="M3247.5 2442.2h195" stroke="#333" stroke-width="2" fill="none"/><use xlink:href="#c" transform="matrix(1,0,0,1,3255.5,2391) translate(42.025 14.799999999999999)"/><use xlink:href="#d" transform="matrix(1,0,0,1,3255.5,2391) translate(49.574999999999996 36.4)"/><use xlink:href="#e" transform="matrix(1,0,0,1,3255.5,2391) translate(84.525 36.4)"/><use xlink:href="#f" transform="matrix(1,0,0,1,3259.5,2450.2) translate(0 14.799999999999999)"/><use xlink:href="#g" transform="matrix(1,0,0,1,3259.5,2450.2) translate(86.5 14.799999999999999)"/><use xlink:href="#h" transform="matrix(1,0,0,1,3259.5,2450.2) translate(0 36.4)"/><use xlink:href="#i" transform="matrix(1,0,0,1,3259.5,2450.2) translate(87.4 36.4)"/><path d="M3240 2587.58h210v117h-210z" stroke="#333" stroke-width="2" fill="#7030a0"/><path d="M3240 2646.78h210" stroke="#333" stroke-width="2" fill="none"/><use xlink:href="#c" transform="matrix(1,0,0,1,3248,2595.581198318332) translate(49.525 14.799999999999999)"/><use xlink:href="#d" transform="matrix(1,0,0,1,3248,2595.581198318332) translate(51.675 36.4)"/><use xlink:href="#j" transform="matrix(1,0,0,1,3248,2595.581198318332) translate(86.625 36.4)"/><path d="M3598.5 2823.08h180v120h-180z" stroke="#333" stroke-width="2" fill="#ff7b7b"/><path d="M3598.5 2882.28h180" stroke="#333" stroke-width="2" fill="none"/><use xlink:href="#k" transform="matrix(1,0,0,1,3606.5,2831.081198318332) translate(45.05 14.799999999999999)"/><use xlink:href="#l" transform="matrix(1,0,0,1,3606.5,2831.081198318332) translate(32.574999999999996 36.4)"/><use xlink:href="#m" transform="matrix(1,0,0,1,3610.5,2890.281198318332) translate(0 26.1)"/><path d="M3598.5 2586.08h180v120h-180z" stroke="#333" stroke-width="2" fill="#ff7b7b"/><path d="M3598.5 2645.28h180" stroke="#333" stroke-width="2" fill="none"/><use xlink:href="#k" transform="matrix(1,0,0,1,3606.5,2594.081198318332) translate(45.05 14.799999999999999)"/><use xlink:href="#n" transform="matrix(1,0,0,1,3606.5,2594.081198318332) translate(27.099999999999994 36.4)"/><use xlink:href="#o" transform="matrix(1,0,0,1,3610.5,2653.281198318332) translate(0 26.1)"/><path d="M3453 2646.08h142.5" stroke="#000" stroke-width="4" fill="none"/><path d="M3453.05 2648.08H3451v-4h2.05zM3597.5 2648.08h-2.05v-4h2.05z" stroke="#000" stroke-width=".05"/><use xlink:href="#a" transform="matrix(1,0,0,1,3451,2650.081198318332) translate(0 14.4)"/><use xlink:href="#a" transform="matrix(1,0,0,1,3587.5,2620.4811983183317) translate(0 14.4)"/><path d="M3688.5 2709.08v111" stroke="#000" stroke-width="4" fill="none"/><path d="M3690.5 2709.13h-4v-2.05h4zM3690.5 2822.08h-4v-2.05h4z" stroke="#000" stroke-width=".05"/><use xlink:href="#a" transform="matrix(1,0,0,1,3670.5,2706.281198318332) translate(0 14.4)"/><use xlink:href="#a" transform="matrix(1,0,0,1,3696.5,2801.281198318332) translate(0 14.4)"/><path d="M3345 2504v80.58" stroke="#000" stroke-width="4" fill="none"/><path d="M3347 2504.05h-4V2502h4zM3347 2586.58h-4v-2.05h4z" stroke="#000" stroke-width=".05"/><use xlink:href="#a" transform="matrix(1,0,0,1,3327,2501.2) translate(0 14.4)"/><use xlink:href="#a" transform="matrix(1,0,0,1,3353,2565.781198318332) translate(0 14.4)"/><path d="M3961.8 2806.62h278.56v117H3961.8z" stroke="#333" stroke-width="2" fill="#7030a0"/><path d="M3961.8 2865.82h278.56" stroke="#333" stroke-width="2" fill="none"/><use xlink:href="#c" transform="matrix(1,0,0,1,3969.7883553621505,2814.621797477498) translate(84.025 14.799999999999999)"/><use xlink:href="#p" transform="matrix(1,0,0,1,3969.7883553621505,2814.621797477498) translate(55.625 36.4)"/><use xlink:href="#q" transform="matrix(1,0,0,1,3973.7883553621505,2873.821797477498) translate(0 24.6)"/><use xlink:href="#r" transform="matrix(1,0,0,1,3973.7883553621505,2873.821797477498) translate(93.45 24.6)"/><path d="M3781.5 2643.08h101.3a12 12 0 0 0 12-12V2606a12 12 0 0 1 12-12h101.28" stroke="#000" stroke-width="4" fill="none"/><path d="M3781.55 2645.08h-2.05v-4h2.05zM4010.08 2596h-2.05v-4h2.05z" stroke="#000" stroke-width=".05"/><use xlink:href="#a" transform="matrix(1,0,0,1,3779.5,2647.0811983183316) translate(0 14.4)"/><use xlink:href="#a" transform="matrix(1,0,0,1,4000.076710724301,2568.3999999999996) translate(0 14.4)"/><path d="M4011.08 2534h180v120h-180z" stroke="#333" stroke-width="2" fill="#ff7b7b"/><path d="M4011.08 2593.2h180" stroke="#333" stroke-width="2" fill="none"/><use xlink:href="#k" transform="matrix(1,0,0,1,4019.076710724301,2542) translate(45.05 14.799999999999999)"/><use xlink:href="#s" transform="matrix(1,0,0,1,4019.076710724301,2542) translate(35.125 36.4)"/><use xlink:href="#t" transform="matrix(1,0,0,1,4023.076710724301,2601.2) translate(0 26.1)"/><path d="M4101.08 2657v146.62" stroke="#000" stroke-width="4" fill="none"/><path d="M4103.08 2657.05h-4V2655h4zM4103.08 2805.62h-4v-2.05h4z" stroke="#000" stroke-width=".05"/><use xlink:href="#a" transform="matrix(1,0,0,1,4083.076710724301,2654.2) translate(0 14.4)"/><use xlink:href="#a" transform="matrix(1,0,0,1,4109.076710724301,2784.821797477498) translate(0 14.4)"/><path d="M3247.5 2140h210v117h-210z" stroke="#333" stroke-width="2" fill="#7030a0"/><path d="M3247.5 2199.2h210" stroke="#333" stroke-width="2" fill="none"/><use xlink:href="#u" transform="matrix(1,0,0,1,3255.5,2148) translate(49.525 14.799999999999999)"/><use xlink:href="#v" transform="matrix(1,0,0,1,3255.5,2148) translate(82.025 36.4)"/><path d="M3352.5 2260v120" stroke="#333" stroke-width="4" fill="none"/><path d="M3354.5 2260.05h-4V2258h4zM3354.5 2382h-4v-2.05h4z" stroke="#333" stroke-width=".05" fill="#333"/><use xlink:href="#a" transform="matrix(1,0,0,1,3334.4999999999995,2257.2) translate(0 14.4)"/><use xlink:href="#a" transform="matrix(1,0,0,1,3360.4999999999995,2361.2) translate(0 14.4)"/><g><path d="M3300 2365.92v-80h40v80z" stroke="#000" stroke-opacity="0" stroke-width="2" fill="#fff" fill-opacity="0"/></g><g><use xlink:href="#w" transform="matrix(6.123233995736766e-17,-1,1,6.123233995736766e-17,3305,2360.918801681668) translate(5.574999999999996 18.6)"/></g><g><path d="M3290 2593.92v-80h40v80z" stroke="#000" stroke-opacity="0" stroke-width="2" fill="#fff" fill-opacity="0"/></g><g><use xlink:href="#x" transform="matrix(6.123233995736766e-17,-1,1,6.123233995736766e-17,3295,2588.918801681668) translate(4.050000000000001 18.6)"/></g><path d="M3484.25 2600.54h80v40h-80z" stroke="#000" stroke-opacity="0" stroke-width="2" fill="#fff" fill-opacity="0"/><g><use xlink:href="#y" transform="matrix(1,0,0,1,3489.25,2605.540599159166) translate(3.0249999999999986 18.6)"/></g><g><path d="M3620 2804.58v-80h40v80z" stroke="#000" stroke-opacity="0" stroke-width="2" fill="#fff" fill-opacity="0"/></g><g><use xlink:href="#y" transform="matrix(6.123233995736766e-17,-1,1,6.123233995736766e-17,3625,2799.581198318332) translate(3.0249999999999986 18.6)"/></g><path d="M3860 2553.92h80v40h-80z" stroke="#000" stroke-opacity="0" stroke-width="2" fill="#fff" fill-opacity="0"/><g><use xlink:href="#y" transform="matrix(1,0,0,1,3865,2558.918801681668) translate(3.0249999999999986 18.6)"/></g><g><path d="M4050 2770.3v-80h40v80z" stroke="#000" stroke-opacity="0" stroke-width="2" fill="#fff" fill-opacity="0"/></g><g><use xlink:href="#w" transform="matrix(6.123233995736766e-17,-1,1,6.123233995736766e-17,4055,2765.3108987387495) translate(5.574999999999996 18.6)"/></g><defs><path d="M27 0v-27h64v-190l-56 39v-29l58-41h29v221h61V0H27" id="z"/><use transform="matrix(0.05,0,0,0.05,0,0)" xlink:href="#z" id="a"/><path fill="#333" d="M205 0l-28-72H64L36 0H1l101-248h38L239 0h-34zm-38-99l-47-123c-12 45-31 82-46 123h93" id="A"/><path fill="#333" d="M135-143c-3-34-86-38-87 0 15 53 115 12 119 90S17 21 10-45l28-5c4 36 97 45 98 0-10-56-113-15-118-90-4-57 82-63 122-42 12 7 21 19 24 35" id="B"/><path fill="#333" d="M96-169c-40 0-48 33-48 73s9 75 48 75c24 0 41-14 43-38l32 2c-6 37-31 61-74 61-59 0-76-41-82-99-10-93 101-131 147-64 4 7 5 14 7 22l-32 3c-4-21-16-35-41-35" id="C"/><path fill="#333" d="M24-231v-30h32v30H24zM24 0v-190h32V0H24" id="D"/><path fill="#333" d="M84 4C-5 8 30-112 23-190h32v120c0 31 7 50 39 49 72-2 45-101 50-169h31l1 190h-30c-1-10 1-25-2-33-11 22-28 36-60 37" id="E"/><path fill="#333" d="M177-190C167-65 218 103 67 71c-23-6-38-20-44-43l32-5c15 47 100 32 89-28v-30C133-14 115 1 83 1 29 1 15-40 15-95c0-56 16-97 71-98 29-1 48 16 59 35 1-10 0-23 2-32h30zM94-22c36 0 50-32 50-73 0-42-14-75-50-75-39 0-46 34-46 75s6 73 46 73" id="F"/><path fill="#333" d="M141-36C126-15 110 5 73 4 37 3 15-17 15-53c-1-64 63-63 125-63 3-35-9-54-41-54-24 1-41 7-42 31l-33-3c5-37 33-52 76-52 45 0 72 20 72 64v82c-1 20 7 32 28 27v20c-31 9-61-2-59-35zM48-53c0 20 12 33 32 33 41-3 63-29 60-74-43 2-92-5-92 41" id="G"/><path fill="#333" d="M59-47c-2 24 18 29 38 22v24C64 9 27 4 27-40v-127H5v-23h24l9-43h21v43h35v23H59v120" id="H"/><path fill="#333" d="M114-163C36-179 61-72 57 0H25l-1-190h30c1 12-1 29 2 39 6-27 23-49 58-41v29" id="I"/><g id="b"><use transform="matrix(0.05,0,0,0.05,0,0)" xlink:href="#A"/><use transform="matrix(0.05,0,0,0.05,12,0)" xlink:href="#B"/><use transform="matrix(0.05,0,0,0.05,21,0)" xlink:href="#C"/><use transform="matrix(0.05,0,0,0.05,30,0)" xlink:href="#D"/><use transform="matrix(0.05,0,0,0.05,33.95,0)" xlink:href="#E"/><use transform="matrix(0.05,0,0,0.05,43.95,0)" xlink:href="#F"/><use transform="matrix(0.05,0,0,0.05,53.95,0)" xlink:href="#G"/><use transform="matrix(0.05,0,0,0.05,63.95,0)" xlink:href="#H"/><use transform="matrix(0.05,0,0,0.05,68.95,0)" xlink:href="#E"/><use transform="matrix(0.05,0,0,0.05,78.95,0)" xlink:href="#I"/><use transform="matrix(0.05,0,0,0.05,84.9,0)" xlink:href="#G"/></g><path fill="#333" d="M156-25L96-89v-11l60-65h29v5l-59 66 60 64v5h-30zm-82 0L15-89v-11l59-65h29v5L44-94l59 64v5H74" id="J"/><path fill="#333" d="M115-194c53 0 69 39 70 98 0 66-23 100-70 100C84 3 66-7 56-30L54 0H23l1-261h32v101c10-23 28-34 59-34zm-8 174c40 0 45-34 45-75 0-40-5-75-45-74-42 0-51 32-51 76 0 43 10 73 51 73" id="K"/><path fill="#333" d="M100-194c62-1 85 37 85 99 1 63-27 99-86 99S16-35 15-95c0-66 28-99 85-99zM99-20c44 1 53-31 53-75 0-43-8-75-51-75s-53 32-53 75 10 74 51 75" id="L"/><path fill="#333" d="M117-194c89-4 53 116 60 194h-32v-121c0-31-8-49-39-48C34-167 62-67 57 0H25l-1-190h30c1 10-1 24 2 32 11-22 29-35 61-36" id="M"/><path fill="#333" d="M85-194c31 0 48 13 60 33l-1-100h32l1 261h-30c-2-10 0-23-3-31C134-8 116 4 85 4 32 4 16-35 15-94c0-66 23-100 70-100zm9 24c-40 0-46 34-46 75 0 40 6 74 45 74 42 0 51-32 51-76 0-42-9-74-50-73" id="N"/><path fill="#333" d="M179-190L93 31C79 59 56 82 12 73V49c39 6 53-20 64-50L1-190h34L92-34l54-156h33" id="O"/><path fill="#333" d="M126-25H97v-5l59-64-59-66v-5h29l60 65v11zm-82 0H15v-5l59-64-59-66v-5h29l59 65v11" id="P"/><g id="c"><use transform="matrix(0.05,0,0,0.05,0,0)" xlink:href="#J"/><use transform="matrix(0.05,0,0,0.05,10,0)" xlink:href="#K"/><use transform="matrix(0.05,0,0,0.05,20,0)" xlink:href="#L"/><use transform="matrix(0.05,0,0,0.05,30,0)" xlink:href="#E"/><use transform="matrix(0.05,0,0,0.05,40,0)" xlink:href="#M"/><use transform="matrix(0.05,0,0,0.05,50,0)" xlink:href="#N"/><use transform="matrix(0.05,0,0,0.05,60,0)" xlink:href="#G"/><use transform="matrix(0.05,0,0,0.05,70,0)" xlink:href="#I"/><use transform="matrix(0.05,0,0,0.05,75.95,0)" xlink:href="#O"/><use transform="matrix(0.05,0,0,0.05,84.95,0)" xlink:href="#P"/></g><path fill="#333" d="M24-248c120-7 223 5 221 122C244-46 201 0 124 0H24v-248zM76-40c74 7 117-18 117-86 0-67-45-88-117-82v168" id="Q"/><path fill="#333" d="M135-150c-39-12-60 13-60 57V0H25l-1-190h47c2 13-1 29 3 40 6-28 27-53 61-41v41" id="R"/><path fill="#333" d="M123 10C108 53 80 86 19 72V37c35 8 53-11 59-39L3-190h52l48 148c12-52 28-100 44-148h51" id="S"/><g id="d"><use transform="matrix(0.05,0,0,0.05,0,0)" xlink:href="#Q"/><use transform="matrix(0.05,0,0,0.05,12.950000000000001,0)" xlink:href="#R"/><use transform="matrix(0.05,0,0,0.05,19.950000000000003,0)" xlink:href="#S"/></g><path fill="#333" d="M76-208v77h127v40H76V0H24v-248h183v40H76" id="T"/><path fill="#333" d="M110-194c64 0 96 36 96 99 0 64-35 99-97 99-61 0-95-36-95-99 0-62 34-99 96-99zm-1 164c35 0 45-28 45-65 0-40-10-65-43-65-34 0-45 26-45 65 0 36 10 65 43 65" id="U"/><path fill="#333" d="M220-157c-53 9-28 100-34 157h-49v-107c1-27-5-49-29-50C55-147 81-57 75 0H25l-1-190h47c2 12-1 28 3 38 10-53 101-56 108 0 13-22 24-43 59-42 82 1 51 116 57 194h-49v-107c-1-25-5-48-29-50" id="V"/><g id="e"><use transform="matrix(0.05,0,0,0.05,0,0)" xlink:href="#T"/><use transform="matrix(0.05,0,0,0.05,10.950000000000001,0)" xlink:href="#U"/><use transform="matrix(0.05,0,0,0.05,21.900000000000002,0)" xlink:href="#R"/><use transform="matrix(0.05,0,0,0.05,28.900000000000002,0)" xlink:href="#V"/></g><path fill="#333" d="M118-107v75H92v-75H18v-26h74v-75h26v75h74v26h-74" id="W"/><path fill="#333" d="M30-248c87 1 191-15 191 75 0 78-77 80-158 76V0H30v-248zm33 125c57 0 124 11 124-50 0-59-68-47-124-48v98" id="X"/><path fill="#333" d="M100-194c63 0 86 42 84 106H49c0 40 14 67 53 68 26 1 43-12 49-29l28 8c-11 28-37 45-77 45C44 4 14-33 15-96c1-61 26-98 85-98zm52 81c6-60-76-77-97-28-3 7-6 17-6 28h103" id="Y"/><path fill="#333" d="M9 0v-24l116-142H16v-24h144v24L44-24h123V0H9" id="Z"/><path fill="#333" d="M33-154v-36h34v36H33zM33 0v-36h34V0H33" id="aa"/><g id="f"><use transform="matrix(0.05,0,0,0.05,0,0)" xlink:href="#W"/><use transform="matrix(0.05,0,0,0.05,10.5,0)" xlink:href="#X"/><use transform="matrix(0.05,0,0,0.05,22.5,0)" xlink:href="#L"/><use transform="matrix(0.05,0,0,0.05,32.5,0)" xlink:href="#H"/><use transform="matrix(0.05,0,0,0.05,37.5,0)" xlink:href="#Y"/><use transform="matrix(0.05,0,0,0.05,47.5,0)" xlink:href="#M"/><use transform="matrix(0.05,0,0,0.05,57.5,0)" xlink:href="#Z"/><use transform="matrix(0.05,0,0,0.05,66.5,0)" xlink:href="#G"/><use transform="matrix(0.05,0,0,0.05,76.5,0)" xlink:href="#aa"/></g><path fill="#333" d="M210-169c-67 3-38 105-44 169h-31v-121c0-29-5-50-35-48C34-165 62-65 56 0H25l-1-190h30c1 10-1 24 2 32 10-44 99-50 107 0 11-21 27-35 58-36 85-2 47 119 55 194h-31v-121c0-29-5-49-35-48" id="ab"/><g id="g"><use transform="matrix(0.05,0,0,0.05,0,0)" xlink:href="#M"/><use transform="matrix(0.05,0,0,0.05,10,0)" xlink:href="#E"/><use transform="matrix(0.05,0,0,0.05,20,0)" xlink:href="#ab"/><use transform="matrix(0.05,0,0,0.05,34.95,0)" xlink:href="#K"/><use transform="matrix(0.05,0,0,0.05,44.95,0)" xlink:href="#Y"/><use transform="matrix(0.05,0,0,0.05,54.95,0)" xlink:href="#I"/></g><path fill="#333" d="M30-248c118-7 216 8 213 122C240-48 200 0 122 0H30v-248zM63-27c89 8 146-16 146-99s-60-101-146-95v194" id="ac"/><path fill="#333" d="M101-234c-31-9-42 10-38 44h38v23H63V0H32v-167H5v-23h27c-7-52 17-82 69-68v24" id="ad"/><g id="h"><use transform="matrix(0.05,0,0,0.05,0,0)" xlink:href="#W"/><use transform="matrix(0.05,0,0,0.05,10.5,0)" xlink:href="#ac"/><use transform="matrix(0.05,0,0,0.05,23.450000000000003,0)" xlink:href="#G"/><use transform="matrix(0.05,0,0,0.05,33.45,0)" xlink:href="#H"/><use transform="matrix(0.05,0,0,0.05,38.45,0)" xlink:href="#G"/><use transform="matrix(0.05,0,0,0.05,48.45,0)" xlink:href="#ad"/><use transform="matrix(0.05,0,0,0.05,53.45,0)" xlink:href="#D"/><use transform="matrix(0.05,0,0,0.05,57.400000000000006,0)" xlink:href="#M"/><use transform="matrix(0.05,0,0,0.05,67.4,0)" xlink:href="#Y"/><use transform="matrix(0.05,0,0,0.05,77.4,0)" xlink:href="#aa"/></g><g id="i"><use transform="matrix(0.05,0,0,0.05,0,0)" xlink:href="#ac"/><use transform="matrix(0.05,0,0,0.05,12.950000000000001,0)" xlink:href="#G"/><use transform="matrix(0.05,0,0,0.05,22.950000000000003,0)" xlink:href="#H"/><use transform="matrix(0.05,0,0,0.05,27.950000000000003,0)" xlink:href="#Y"/><use transform="matrix(0.05,0,0,0.05,37.95,0)" xlink:href="#H"/><use transform="matrix(0.05,0,0,0.05,42.95,0)" xlink:href="#D"/><use transform="matrix(0.05,0,0,0.05,46.900000000000006,0)" xlink:href="#ab"/><use transform="matrix(0.05,0,0,0.05,61.85,0)" xlink:href="#Y"/></g><path fill="#333" d="M135-194c52 0 70 43 70 98 0 56-19 99-73 100-30 1-46-15-58-35L72 0H24l1-261h50v104c11-23 29-37 60-37zM114-30c31 0 40-27 40-66 0-37-7-63-39-63s-41 28-41 65c0 36 8 64 40 64" id="ae"/><path fill="#333" d="M85 4C-2 5 27-109 22-190h50c7 57-23 150 33 157 60-5 35-97 40-157h50l1 190h-47c-2-12 1-28-3-38-12 25-28 42-61 42" id="af"/><path fill="#333" d="M115-3C79 11 28 4 28-45v-112H4v-33h27l15-45h31v45h36v33H77v99c-1 23 16 31 38 25v30" id="ag"/><path fill="#333" d="M135-194c87-1 58 113 63 194h-50c-7-57 23-157-34-157-59 0-34 97-39 157H25l-1-190h47c2 12-1 28 3 38 12-26 28-41 61-42" id="ah"/><g id="j"><use transform="matrix(0.05,0,0,0.05,0,0)" xlink:href="#ae"/><use transform="matrix(0.05,0,0,0.05,10.950000000000001,0)" xlink:href="#af"/><use transform="matrix(0.05,0,0,0.05,21.900000000000002,0)" xlink:href="#ag"/><use transform="matrix(0.05,0,0,0.05,27.85,0)" xlink:href="#ag"/><use transform="matrix(0.05,0,0,0.05,33.800000000000004,0)" xlink:href="#U"/><use transform="matrix(0.05,0,0,0.05,44.75000000000001,0)" xlink:href="#ah"/></g><path fill="#333" d="M24 0v-261h32V0H24" id="ai"/><g id="k"><use transform="matrix(0.05,0,0,0.05,0,0)" xlink:href="#J"/><use transform="matrix(0.05,0,0,0.05,10,0)" xlink:href="#C"/><use transform="matrix(0.05,0,0,0.05,19,0)" xlink:href="#L"/><use transform="matrix(0.05,0,0,0.05,29,0)" xlink:href="#M"/><use transform="matrix(0.05,0,0,0.05,39,0)" xlink:href="#H"/><use transform="matrix(0.05,0,0,0.05,44,0)" xlink:href="#I"/><use transform="matrix(0.05,0,0,0.05,49.95,0)" xlink:href="#L"/><use transform="matrix(0.05,0,0,0.05,59.95,0)" xlink:href="#ai"/><use transform="matrix(0.05,0,0,0.05,63.900000000000006,0)" xlink:href="#P"/></g><path fill="#333" d="M24 0v-248h195v40H76v63h132v40H76v65h150V0H24" id="aj"/><path fill="#333" d="M144 0l-44-69L55 0H2l70-98-66-92h53l41 62 40-62h54l-67 91 71 99h-54" id="ak"/><path fill="#333" d="M185-48c-13 30-37 53-82 52C43 2 14-33 14-96s30-98 90-98c62 0 83 45 84 108H66c0 31 8 55 39 56 18 0 30-7 34-22zm-45-69c5-46-57-63-70-21-2 6-4 13-4 21h74" id="al"/><path fill="#333" d="M190-63c-7 42-38 67-86 67-59 0-84-38-90-98-12-110 154-137 174-36l-49 2c-2-19-15-32-35-32-30 0-35 28-38 64-6 74 65 87 74 30" id="am"/><g id="l"><use transform="matrix(0.05,0,0,0.05,0,0)" xlink:href="#aj"/><use transform="matrix(0.05,0,0,0.05,12,0)" xlink:href="#ak"/><use transform="matrix(0.05,0,0,0.05,22,0)" xlink:href="#al"/><use transform="matrix(0.05,0,0,0.05,32,0)" xlink:href="#am"/><use transform="matrix(0.05,0,0,0.05,42,0)" xlink:href="#af"/><use transform="matrix(0.05,0,0,0.05,52.95,0)" xlink:href="#ag"/><use transform="matrix(0.05,0,0,0.05,58.900000000000006,0)" xlink:href="#al"/><use transform="matrix(0.05,0,0,0.05,68.9,0)" xlink:href="#Q"/><use transform="matrix(0.05,0,0,0.05,81.85000000000001,0)" xlink:href="#R"/><use transform="matrix(0.05,0,0,0.05,88.85000000000001,0)" xlink:href="#S"/></g><path fill="#333" d="M87 75C49 33 22-17 22-94c0-76 28-126 65-167h31c-38 41-64 92-64 168S80 34 118 75H87" id="an"/><path fill="#333" d="M33-261c38 41 65 92 65 168S71 34 33 75H2C39 34 66-17 66-93S39-220 2-261h31" id="ao"/><g id="m"><use transform="matrix(0.05,0,0,0.05,0,0)" xlink:href="#W"/><use transform="matrix(0.05,0,0,0.05,10.5,0)" xlink:href="#ac"/><use transform="matrix(0.05,0,0,0.05,23.450000000000003,0)" xlink:href="#I"/><use transform="matrix(0.05,0,0,0.05,29.400000000000002,0)" xlink:href="#O"/><use transform="matrix(0.05,0,0,0.05,38.400000000000006,0)" xlink:href="#G"/><use transform="matrix(0.05,0,0,0.05,48.400000000000006,0)" xlink:href="#H"/><use transform="matrix(0.05,0,0,0.05,53.400000000000006,0)" xlink:href="#ac"/><use transform="matrix(0.05,0,0,0.05,66.35000000000001,0)" xlink:href="#G"/><use transform="matrix(0.05,0,0,0.05,76.35000000000001,0)" xlink:href="#H"/><use transform="matrix(0.05,0,0,0.05,81.35000000000001,0)" xlink:href="#Y"/><use transform="matrix(0.05,0,0,0.05,91.35000000000001,0)" xlink:href="#H"/><use transform="matrix(0.05,0,0,0.05,96.35000000000001,0)" xlink:href="#D"/><use transform="matrix(0.05,0,0,0.05,100.30000000000001,0)" xlink:href="#ab"/><use transform="matrix(0.05,0,0,0.05,115.25,0)" xlink:href="#Y"/><use transform="matrix(0.05,0,0,0.05,125.25,0)" xlink:href="#an"/><use transform="matrix(0.05,0,0,0.05,131.20000000000002,0)" xlink:href="#ao"/></g><path fill="#333" d="M67-125c0 53 21 87 73 88 37 1 54-22 65-47l45 17C233-25 199 4 140 4 58 4 20-42 15-125 8-235 124-281 211-232c18 10 29 29 36 50l-46 12c-8-25-30-41-62-41-52 0-71 34-72 86" id="ap"/><path fill="#333" d="M114-157C55-157 80-60 75 0H25v-261h50l-1 109c12-26 28-41 61-42 86-1 58 113 63 194h-50c-7-57 23-157-34-157" id="aq"/><path fill="#333" d="M147 0L96-86 75-71V0H25v-261h50v150l67-79h53l-66 74L201 0h-54" id="ar"/><path fill="#333" d="M133-34C117-15 103 5 69 4 32 3 11-16 11-54c-1-60 55-63 116-61 1-26-3-47-28-47-18 1-26 9-28 27l-52-2c7-38 36-58 82-57s74 22 75 68l1 82c-1 14 12 18 25 15v27c-30 8-71 5-69-32zm-48 3c29 0 43-24 42-57-32 0-66-3-65 30 0 17 8 27 23 27" id="as"/><g id="n"><use transform="matrix(0.05,0,0,0.05,0,0)" xlink:href="#ap"/><use transform="matrix(0.05,0,0,0.05,12.950000000000001,0)" xlink:href="#aq"/><use transform="matrix(0.05,0,0,0.05,23.900000000000002,0)" xlink:href="#al"/><use transform="matrix(0.05,0,0,0.05,33.900000000000006,0)" xlink:href="#am"/><use transform="matrix(0.05,0,0,0.05,43.900000000000006,0)" xlink:href="#ar"/><use transform="matrix(0.05,0,0,0.05,53.900000000000006,0)" xlink:href="#al"/><use transform="matrix(0.05,0,0,0.05,63.900000000000006,0)" xlink:href="#R"/><use transform="matrix(0.05,0,0,0.05,70.9,0)" xlink:href="#Q"/><use transform="matrix(0.05,0,0,0.05,83.85000000000001,0)" xlink:href="#as"/><use transform="matrix(0.05,0,0,0.05,93.85000000000001,0)" xlink:href="#ag"/><use transform="matrix(0.05,0,0,0.05,99.80000000000001,0)" xlink:href="#al"/></g><path fill="#333" d="M212-179c-10-28-35-45-73-45-59 0-87 40-87 99 0 60 29 101 89 101 43 0 62-24 78-52l27 14C228-24 195 4 139 4 59 4 22-46 18-125c-6-104 99-153 187-111 19 9 31 26 39 46" id="at"/><path fill="#333" d="M106-169C34-169 62-67 57 0H25v-261h32l-1 103c12-21 28-36 61-36 89 0 53 116 60 194h-32v-121c2-32-8-49-39-48" id="au"/><path fill="#333" d="M143 0L79-87 56-68V0H24v-261h32v163l83-92h37l-77 82L181 0h-38" id="av"/><g id="o"><use transform="matrix(0.05,0,0,0.05,0,0)" xlink:href="#W"/><use transform="matrix(0.05,0,0,0.05,10.5,0)" xlink:href="#at"/><use transform="matrix(0.05,0,0,0.05,23.450000000000003,0)" xlink:href="#au"/><use transform="matrix(0.05,0,0,0.05,33.45,0)" xlink:href="#Y"/><use transform="matrix(0.05,0,0,0.05,43.45,0)" xlink:href="#C"/><use transform="matrix(0.05,0,0,0.05,52.45,0)" xlink:href="#av"/><use transform="matrix(0.05,0,0,0.05,61.45,0)" xlink:href="#ac"/><use transform="matrix(0.05,0,0,0.05,74.4,0)" xlink:href="#G"/><use transform="matrix(0.05,0,0,0.05,84.4,0)" xlink:href="#H"/><use transform="matrix(0.05,0,0,0.05,89.4,0)" xlink:href="#Y"/><use transform="matrix(0.05,0,0,0.05,99.4,0)" xlink:href="#an"/><use transform="matrix(0.05,0,0,0.05,105.35000000000001,0)" xlink:href="#ao"/></g><path fill="#333" d="M230 0l2-204L168 0h-37L68-204 70 0H24v-248h70l56 185 57-185h69V0h-46" id="aw"/><path fill="#333" d="M137-138c1-29-70-34-71-4 15 46 118 7 119 86 1 83-164 76-172 9l43-7c4 19 20 25 44 25 33 8 57-30 24-41C81-84 22-81 20-136c-2-80 154-74 161-7" id="ax"/><path fill="#333" d="M195-6C206 82 75 100 31 46c-4-6-6-13-8-21l49-6c3 16 16 24 34 25 40 0 42-37 40-79-11 22-30 35-61 35-53 0-70-43-70-97 0-56 18-96 73-97 30 0 46 14 59 34l2-30h47zm-90-29c32 0 41-27 41-63 0-35-9-62-40-62-32 0-39 29-40 63 0 36 9 62 39 62" id="ay"/><path fill="#333" d="M175 0L67-191c6 58 2 128 3 191H24v-248h59L193-55c-6-58-2-129-3-193h46V0h-61" id="az"/><path fill="#333" d="M231 0h-52l-39-155L100 0H48L-1-190h46L77-45c9-52 24-97 36-145h53l37 145 32-145h46" id="aA"/><g id="p"><use transform="matrix(0.05,0,0,0.05,0,0)" xlink:href="#aw"/><use transform="matrix(0.05,0,0,0.05,14.950000000000001,0)" xlink:href="#al"/><use transform="matrix(0.05,0,0,0.05,24.950000000000003,0)" xlink:href="#ax"/><use transform="matrix(0.05,0,0,0.05,34.95,0)" xlink:href="#ax"/><use transform="matrix(0.05,0,0,0.05,44.95,0)" xlink:href="#as"/><use transform="matrix(0.05,0,0,0.05,54.95,0)" xlink:href="#ay"/><use transform="matrix(0.05,0,0,0.05,65.9,0)" xlink:href="#al"/><use transform="matrix(0.05,0,0,0.05,75.9,0)" xlink:href="#az"/><use transform="matrix(0.05,0,0,0.05,88.85000000000001,0)" xlink:href="#al"/><use transform="matrix(0.05,0,0,0.05,98.85000000000001,0)" xlink:href="#aA"/><use transform="matrix(0.05,0,0,0.05,112.85000000000001,0)" xlink:href="#Q"/><use transform="matrix(0.05,0,0,0.05,125.80000000000001,0)" xlink:href="#as"/><use transform="matrix(0.05,0,0,0.05,135.8,0)" xlink:href="#ag"/><use transform="matrix(0.05,0,0,0.05,141.75,0)" xlink:href="#al"/></g><g id="q"><use transform="matrix(0.05,0,0,0.05,0,0)" xlink:href="#W"/><use transform="matrix(0.05,0,0,0.05,10.5,0)" xlink:href="#ab"/><use transform="matrix(0.05,0,0,0.05,25.450000000000003,0)" xlink:href="#Y"/><use transform="matrix(0.05,0,0,0.05,35.45,0)" xlink:href="#B"/><use transform="matrix(0.05,0,0,0.05,44.45,0)" xlink:href="#B"/><use transform="matrix(0.05,0,0,0.05,53.45,0)" xlink:href="#G"/><use transform="matrix(0.05,0,0,0.05,63.45,0)" xlink:href="#F"/><use transform="matrix(0.05,0,0,0.05,73.45,0)" xlink:href="#Y"/><use transform="matrix(0.05,0,0,0.05,83.45,0)" xlink:href="#aa"/></g><g id="r"><use transform="matrix(0.05,0,0,0.05,0,0)" xlink:href="#B"/><use transform="matrix(0.05,0,0,0.05,9,0)" xlink:href="#H"/><use transform="matrix(0.05,0,0,0.05,14,0)" xlink:href="#I"/><use transform="matrix(0.05,0,0,0.05,19.95,0)" xlink:href="#D"/><use transform="matrix(0.05,0,0,0.05,23.9,0)" xlink:href="#M"/><use transform="matrix(0.05,0,0,0.05,33.9,0)" xlink:href="#F"/></g><path fill="#333" d="M25-224v-37h50v37H25zM25 0v-190h50V0H25" id="aB"/><path fill="#333" d="M88-194c31-1 46 15 58 34l-1-101h50l1 261h-48c-2-10 0-23-3-31C134-8 116 4 84 4 32 4 16-41 15-95c0-56 19-97 73-99zm17 164c33 0 40-30 41-66 1-37-9-64-41-64s-38 30-39 65c0 43 13 65 39 65" id="aC"/><g id="s"><use transform="matrix(0.05,0,0,0.05,0,0)" xlink:href="#T"/><use transform="matrix(0.05,0,0,0.05,10.950000000000001,0)" xlink:href="#aB"/><use transform="matrix(0.05,0,0,0.05,15.950000000000001,0)" xlink:href="#ah"/><use transform="matrix(0.05,0,0,0.05,26.900000000000002,0)" xlink:href="#aC"/><use transform="matrix(0.05,0,0,0.05,37.85,0)" xlink:href="#al"/><use transform="matrix(0.05,0,0,0.05,47.85,0)" xlink:href="#R"/><use transform="matrix(0.05,0,0,0.05,54.85,0)" xlink:href="#Q"/><use transform="matrix(0.05,0,0,0.05,67.8,0)" xlink:href="#as"/><use transform="matrix(0.05,0,0,0.05,77.8,0)" xlink:href="#ag"/><use transform="matrix(0.05,0,0,0.05,83.75,0)" xlink:href="#al"/></g><path fill="#333" d="M63-220v92h138v28H63V0H30v-248h175v28H63" id="aD"/><path fill="#333" d="M190 0L58-211 59 0H30v-248h39L202-35l-2-213h31V0h-41" id="aE"/><path fill="#333" d="M206 0h-36l-40-164L89 0H53L-1-190h32L70-26l43-164h34l41 164 42-164h31" id="aF"/><g id="t"><use transform="matrix(0.05,0,0,0.05,0,0)" xlink:href="#W"/><use transform="matrix(0.05,0,0,0.05,10.5,0)" xlink:href="#aD"/><use transform="matrix(0.05,0,0,0.05,21.450000000000003,0)" xlink:href="#D"/><use transform="matrix(0.05,0,0,0.05,25.400000000000002,0)" xlink:href="#M"/><use transform="matrix(0.05,0,0,0.05,35.400000000000006,0)" xlink:href="#N"/><use transform="matrix(0.05,0,0,0.05,45.400000000000006,0)" xlink:href="#aE"/><use transform="matrix(0.05,0,0,0.05,58.35,0)" xlink:href="#Y"/><use transform="matrix(0.05,0,0,0.05,68.35000000000001,0)" xlink:href="#aF"/><use transform="matrix(0.05,0,0,0.05,81.30000000000001,0)" xlink:href="#ac"/><use transform="matrix(0.05,0,0,0.05,94.25000000000001,0)" xlink:href="#G"/><use transform="matrix(0.05,0,0,0.05,104.25,0)" xlink:href="#H"/><use transform="matrix(0.05,0,0,0.05,109.25,0)" xlink:href="#Y"/><use transform="matrix(0.05,0,0,0.05,119.25,0)" xlink:href="#an"/><use transform="matrix(0.05,0,0,0.05,125.2,0)" xlink:href="#ao"/></g><g id="u"><use transform="matrix(0.05,0,0,0.05,0,0)" xlink:href="#J"/><use transform="matrix(0.05,0,0,0.05,10,0)" xlink:href="#K"/><use transform="matrix(0.05,0,0,0.05,20,0)" xlink:href="#L"/><use transform="matrix(0.05,0,0,0.05,30,0)" xlink:href="#E"/><use transform="matrix(0.05,0,0,0.05,40,0)" xlink:href="#M"/><use transform="matrix(0.05,0,0,0.05,50,0)" xlink:href="#N"/><use transform="matrix(0.05,0,0,0.05,60,0)" xlink:href="#G"/><use transform="matrix(0.05,0,0,0.05,70,0)" xlink:href="#I"/><use transform="matrix(0.05,0,0,0.05,75.95,0)" xlink:href="#O"/><use transform="matrix(0.05,0,0,0.05,84.95,0)" xlink:href="#P"/></g><g id="v"><use transform="matrix(0.05,0,0,0.05,0,0)" xlink:href="#Q"/><use transform="matrix(0.05,0,0,0.05,12.950000000000001,0)" xlink:href="#R"/><use transform="matrix(0.05,0,0,0.05,19.950000000000003,0)" xlink:href="#S"/></g><path fill="#333" d="M115-194c55 1 70 41 70 98S169 2 115 4C84 4 66-9 55-30l1 105H24l-1-265h31l2 30c10-21 28-34 59-34zm-8 174c40 0 45-34 45-75s-6-73-45-74c-42 0-51 32-51 76 0 43 10 73 51 73" id="aG"/><g id="w"><use transform="matrix(0.05,0,0,0.05,0,0)" xlink:href="#ac"/><use transform="matrix(0.05,0,0,0.05,12.950000000000001,0)" xlink:href="#D"/><use transform="matrix(0.05,0,0,0.05,16.900000000000002,0)" xlink:href="#B"/><use transform="matrix(0.05,0,0,0.05,25.900000000000002,0)" xlink:href="#aG"/><use transform="matrix(0.05,0,0,0.05,35.900000000000006,0)" xlink:href="#ai"/><use transform="matrix(0.05,0,0,0.05,39.85000000000001,0)" xlink:href="#G"/><use transform="matrix(0.05,0,0,0.05,49.85000000000001,0)" xlink:href="#O"/></g><path fill="#333" d="M108 0H70L1-190h34L89-25l56-165h34" id="aH"/><g id="x"><use transform="matrix(0.05,0,0,0.05,0,0)" xlink:href="#aH"/><use transform="matrix(0.05,0,0,0.05,9,0)" xlink:href="#G"/><use transform="matrix(0.05,0,0,0.05,19,0)" xlink:href="#ai"/><use transform="matrix(0.05,0,0,0.05,22.95,0)" xlink:href="#D"/><use transform="matrix(0.05,0,0,0.05,26.899999999999995,0)" xlink:href="#N"/><use transform="matrix(0.05,0,0,0.05,36.9,0)" xlink:href="#G"/><use transform="matrix(0.05,0,0,0.05,46.9,0)" xlink:href="#H"/><use transform="matrix(0.05,0,0,0.05,51.900000000000006,0)" xlink:href="#Y"/></g><g id="y"><use transform="matrix(0.05,0,0,0.05,0,0)" xlink:href="#A"/><use transform="matrix(0.05,0,0,0.05,12,0)" xlink:href="#C"/><use transform="matrix(0.05,0,0,0.05,21,0)" xlink:href="#H"/><use transform="matrix(0.05,0,0,0.05,26,0)" xlink:href="#D"/><use transform="matrix(0.05,0,0,0.05,29.950000000000003,0)" xlink:href="#aH"/><use transform="matrix(0.05,0,0,0.05,38.95,0)" xlink:href="#G"/><use transform="matrix(0.05,0,0,0.05,48.95,0)" xlink:href="#H"/><use transform="matrix(0.05,0,0,0.05,53.95,0)" xlink:href="#Y"/></g></defs></g></svg>