<svg xmlns="http://www.w3.org/2000/svg" xmlns:xlink="http://www.w3.org/1999/xlink" xmlns:lucid="lucid" width="1686" height="1334"><g transform="translate(-5286 -590)" lucid:page-tab-id="HWEp-vi-RSFO"><path d="M6342.24 709.06h533V1836.3h-1440V683.06h864zm-907 0h907" stroke="#000" stroke-width="2" fill="#fff"/><use xlink:href="#a" transform="matrix(1,0,0,1,5443.245297044631,683.0619457286533) translate(369.575 16.6)"/><path d="M5770.96 960h210v97h-210z" stroke="#333" stroke-width="2" fill="#7030a0"/><path d="M5770.96 1019.2h210" stroke="#333" stroke-width="2" fill="none"/><use xlink:href="#b" transform="matrix(1,0,0,1,5778.956941682481,968) translate(49.525 14.799999999999999)"/><use xlink:href="#c" transform="matrix(1,0,0,1,5778.956941682481,968) translate(-4.749999999999986 36.4)"/><path d="M4861.83 1259.68h442.13a12 12 0 0 0 12-12v-223.95a12 12 0 0 1 12-12h440" stroke="#635dff" stroke-width="4" fill="none"/><path d="M4861.9 1261.68h-2.07v-4h2.06zM5769.96 1013.74h-2.05v-4h2.06z" stroke="#635dff" stroke-width=".05" fill="#635dff"/><use xlink:href="#d" transform="matrix(1,0,0,1,4859.834293160165,1263.6822237061044) translate(0 14.4)"/><use xlink:href="#d" transform="matrix(1,0,0,1,5759.956941682481,986.1347204347205) translate(0 14.4)"/><path d="M5475.96 1181.06h180v117h-180z" stroke="#333" stroke-width="2" fill="#7030a0"/><path d="M5475.96 1240.26h180" stroke="#333" stroke-width="2" fill="none"/><use xlink:href="#b" transform="matrix(1,0,0,1,5483.956941682481,1189.061945728653) translate(34.525 14.799999999999999)"/><use xlink:href="#e" transform="matrix(1,0,0,1,5483.956941682481,1189.061945728653) translate(-5.774999999999977 36.4)"/><path d="M5785.96 1181.06h180v117h-180z" stroke="#333" stroke-width="2" fill="#7030a0"/><path d="M5785.96 1240.26h180" stroke="#333" stroke-width="2" fill="none"/><use xlink:href="#b" transform="matrix(1,0,0,1,5793.956941682481,1189.061945728653) translate(34.525 14.799999999999999)"/><use xlink:href="#f" transform="matrix(1,0,0,1,5793.956941682481,1189.061945728653) translate(4.775000000000006 36.4)"/><path d="M6095.96 1181.06h260v117h-260z" stroke="#333" stroke-width="2" fill="#7030a0"/><path d="M6095.96 1240.26h260" stroke="#333" stroke-width="2" fill="none"/><use xlink:href="#b" transform="matrix(1,0,0,1,6103.956941682481,1189.061945728653) translate(74.525 14.799999999999999)"/><use xlink:href="#g" transform="matrix(1,0,0,1,6103.956941682481,1189.061945728653) translate(0.3750000000000284 36.4)"/><path d="M5875.96 1058.06l20 31.5-20 31.5-20-31.5z" stroke="#333" stroke-width="2"/><path d="M5875.96 1124.93v14.56a12 12 0 0 1-12 12h-286a12 12 0 0 0-12 12v14.56" stroke="#000" stroke-width="4" fill="none"/><path d="M5877.96 1124.98h-4v-5.05h.1l1.9 3 1.9-3h.1zM5567.96 1180.06h-4V1178h4z" stroke="#000" stroke-width=".05"/><path d="M5875.96 1124.93v53.13" stroke="#000" stroke-width="4" fill="none"/><path d="M5877.96 1124.98h-4v-5.05h.1l1.9 3 1.9-3h.1zM5877.96 1180.06h-4V1178h4z" stroke="#000" stroke-width=".05"/><path d="M5875.96 1124.93v14.56a12 12 0 0 0 12 12h326a12 12 0 0 1 12 12v14.56" stroke="#000" stroke-width="4" fill="none"/><path d="M5877.96 1124.98h-4v-5.05h.1l1.9 3 1.9-3h.1zM6227.96 1180.06h-4V1178h4z" stroke="#000" stroke-width=".05"/><path d="M5475.96 1439.76h180v120h-180z" stroke="#333" stroke-width="2" fill="#ff7b7b"/><path d="M5475.96 1498.96h180" stroke="#333" stroke-width="2" fill="none"/><use xlink:href="#h" transform="matrix(1,0,0,1,5483.956941682481,1447.7594440450973) translate(45.05 14.799999999999999)"/><use xlink:href="#i" transform="matrix(1,0,0,1,5483.956941682481,1447.7594440450973) translate(23.125 36.4)"/><use xlink:href="#j" transform="matrix(1,0,0,1,5487.956941682481,1506.9594440450974) translate(0 26.1)"/><path d="M5565.96 1301.06v135.7" stroke="#000" stroke-width="4" fill="none"/><path d="M5567.96 1301.1h-4v-2.04h4zM5567.96 1438.76h-4v-2.05h4z" stroke="#000" stroke-width=".05"/><use xlink:href="#d" transform="matrix(1,0,0,1,5547.956941682481,1298.261945728653) translate(0 14.4)"/><use xlink:href="#d" transform="matrix(1,0,0,1,5573.956941682481,1417.9594440450974) translate(0 14.4)"/><path d="M5785.96 1439.76h180v120h-180z" stroke="#333" stroke-width="2" fill="#ff7b7b"/><path d="M5785.96 1498.96h180" stroke="#333" stroke-width="2" fill="none"/><use xlink:href="#h" transform="matrix(1,0,0,1,5793.956941682481,1447.7594440450973) translate(45.05 14.799999999999999)"/><use xlink:href="#k" transform="matrix(1,0,0,1,5793.956941682481,1447.7594440450973) translate(34.15 36.4)"/><use xlink:href="#l" transform="matrix(1,0,0,1,5797.956941682481,1506.9594440450974) translate(0 26.1)"/><path d="M5875.96 1301.06v135.7" stroke="#000" stroke-width="4" fill="none"/><path d="M5877.96 1301.1h-4v-2.04h4zM5877.96 1438.76h-4v-2.05h4z" stroke="#000" stroke-width=".05"/><use xlink:href="#d" transform="matrix(1,0,0,1,5857.956941682481,1298.261945728653) translate(0 14.4)"/><use xlink:href="#d" transform="matrix(1,0,0,1,5883.956941682481,1417.9594440450974) translate(0 14.4)"/><path d="M6125.96 1439.76h200v120h-200z" stroke="#333" stroke-width="2" fill="#ff7b7b"/><path d="M6125.96 1498.96h200" stroke="#333" stroke-width="2" fill="none"/><use xlink:href="#h" transform="matrix(1,0,0,1,6133.956941682481,1447.7594440450973) translate(55.05 14.799999999999999)"/><use xlink:href="#m" transform="matrix(1,0,0,1,6133.956941682481,1447.7594440450973) translate(-0.7750000000000057 36.4)"/><use xlink:href="#n" transform="matrix(1,0,0,1,6137.956941682481,1506.9594440450974) translate(0 26.1)"/><path d="M6225.96 1301.06v135.7" stroke="#000" stroke-width="4" fill="none"/><path d="M6227.96 1301.1h-4v-2.04h4zM6227.96 1438.76h-4v-2.05h4z" stroke="#000" stroke-width=".05"/><use xlink:href="#d" transform="matrix(1,0,0,1,6207.956941682481,1298.261945728653) translate(0 14.4)"/><use xlink:href="#d" transform="matrix(1,0,0,1,6233.956941682481,1417.9594440450974) translate(0 14.4)"/><path d="M6083.66 1660h278.58v117h-278.58z" stroke="#333" stroke-width="2" fill="#7030a0"/><path d="M6083.66 1719.2h278.58" stroke="#333" stroke-width="2" fill="none"/><use xlink:href="#b" transform="matrix(1,0,0,1,6091.663507370391,1668) translate(84.025 14.799999999999999)"/><use xlink:href="#o" transform="matrix(1,0,0,1,6091.663507370391,1668) translate(3.275000000000034 36.4)"/><use xlink:href="#p" transform="matrix(1,0,0,1,6095.663507370391,1727.2) translate(0 24.6)"/><use xlink:href="#q" transform="matrix(1,0,0,1,6095.663507370391,1727.2) translate(93.45 24.6)"/><path d="M6225.96 1562.76V1657" stroke="#000" stroke-width="4" fill="none"/><path d="M6227.96 1562.8h-4v-2.04h4zM6227.96 1659h-4v-2.05h4z" stroke="#000" stroke-width=".05"/><use xlink:href="#d" transform="matrix(1,0,0,1,6207.956941682481,1559.9594440450974) translate(0 14.4)"/><use xlink:href="#d" transform="matrix(1,0,0,1,6233.956941682481,1638.2) translate(0 14.4)"/><path d="M6495.96 1442.76h278.57v117h-278.57z" stroke="#333" stroke-width="2" fill="#7030a0"/><path d="M6495.96 1501.96h278.57" stroke="#333" stroke-width="2" fill="none"/><use xlink:href="#b" transform="matrix(1,0,0,1,6503.956941682481,1450.7594440450973) translate(84.025 14.799999999999999)"/><use xlink:href="#r" transform="matrix(1,0,0,1,6503.956941682481,1450.7594440450973) translate(9.800000000000026 36.4)"/><use xlink:href="#p" transform="matrix(1,0,0,1,6507.956941682481,1509.9594440450974) translate(0 24.6)"/><use xlink:href="#q" transform="matrix(1,0,0,1,6507.956941682481,1509.9594440450974) translate(93.45 24.6)"/><path d="M6328.96 1499.76h164" stroke="#000" stroke-width="4" fill="none"/><path d="M6329 1501.76h-2.04v-4h2.05zM6494.96 1501.76h-2.05v-4h2.06z" stroke="#000" stroke-width=".05"/><use xlink:href="#d" transform="matrix(1,0,0,1,6326.956941682481,1503.7594440450973) translate(0 14.4)"/><use xlink:href="#d" transform="matrix(1,0,0,1,6484.956941682481,1474.1594440450974) translate(0 14.4)"/><path d="M4381.83 1252H4548a12 12 0 0 1 12 12v644a12 12 0 0 0 12 12h2442.26a12 12 0 0 1 12 12v194.42a12 12 0 0 0 12 12h35" stroke="#635dff" stroke-width="4" fill="none"/><path d="M4381.9 1254h-2.07v-4h2.06zM7075.26 2140.42h-2.05v-4h2.06z" stroke="#635dff" stroke-width=".05" fill="#635dff"/><use xlink:href="#d" transform="matrix(1,0,0,1,4379.834293160165,1256.0000000000002) translate(0 14.4)"/><use xlink:href="#d" transform="matrix(1,0,0,1,7065.257582435864,2112.8188016816675) translate(0 14.4)"/><g><path d="M5515 1413.9v-90h60v90z" stroke="#000" stroke-opacity="0" stroke-width="2" fill="#fff" fill-opacity="0"/></g><g><use xlink:href="#s" transform="matrix(6.123233995736766e-17,-1,1,6.123233995736766e-17,5520,1408.9106948868757) translate(3.5249999999999986 28.6)"/></g><g><path d="M5820 1413v-90h60v90z" stroke="#000" stroke-opacity="0" stroke-width="2" fill="#fff" fill-opacity="0"/></g><g><use xlink:href="#s" transform="matrix(6.123233995736766e-17,-1,1,6.123233995736766e-17,5825,1408) translate(3.5249999999999986 28.6)"/></g><g><path d="M6180 1413.9v-90h60v90z" stroke="#000" stroke-opacity="0" stroke-width="2" fill="#fff" fill-opacity="0"/></g><g><use xlink:href="#s" transform="matrix(6.123233995736766e-17,-1,1,6.123233995736766e-17,6185,1408.9106948868757) translate(3.5249999999999986 28.6)"/></g><path d="M6365.96 1454.76h90v60h-90z" stroke="#000" stroke-opacity="0" stroke-width="2" fill="#fff" fill-opacity="0"/><g><use xlink:href="#t" transform="matrix(1,0,0,1,6370.956941682481,1459.759444045097) translate(2.5249999999999986 28.6)"/></g><g><path d="M6180 1652.58v-80h40v80z" stroke="#000" stroke-opacity="0" stroke-width="2" fill="#fff" fill-opacity="0"/></g><g><use xlink:href="#t" transform="matrix(6.123233995736766e-17,-1,1,6.123233995736766e-17,6185,1647.576710724301) translate(-2.4750000000000014 18.6)"/></g><defs><path fill="#333" d="M33 0v-248h34V0H33" id="u"/><path fill="#333" d="M210-169c-67 3-38 105-44 169h-31v-121c0-29-5-50-35-48C34-165 62-65 56 0H25l-1-190h30c1 10-1 24 2 32 10-44 99-50 107 0 11-21 27-35 58-36 85-2 47 119 55 194h-31v-121c0-29-5-49-35-48" id="v"/><path fill="#333" d="M115-194c55 1 70 41 70 98S169 2 115 4C84 4 66-9 55-30l1 105H24l-1-265h31l2 30c10-21 28-34 59-34zm-8 174c40 0 45-34 45-75s-6-73-45-74c-42 0-51 32-51 76 0 43 10 73 51 73" id="w"/><path fill="#333" d="M100-194c62-1 85 37 85 99 1 63-27 99-86 99S16-35 15-95c0-66 28-99 85-99zM99-20c44 1 53-31 53-75 0-43-8-75-51-75s-53 32-53 75 10 74 51 75" id="x"/><path fill="#333" d="M135-143c-3-34-86-38-87 0 15 53 115 12 119 90S17 21 10-45l28-5c4 36 97 45 98 0-10-56-113-15-118-90-4-57 82-63 122-42 12 7 21 19 24 35" id="y"/><path fill="#333" d="M59-47c-2 24 18 29 38 22v24C64 9 27 4 27-40v-127H5v-23h24l9-43h21v43h35v23H59v120" id="z"/><path fill="#333" d="M141-36C126-15 110 5 73 4 37 3 15-17 15-53c-1-64 63-63 125-63 3-35-9-54-41-54-24 1-41 7-42 31l-33-3c5-37 33-52 76-52 45 0 72 20 72 64v82c-1 20 7 32 28 27v20c-31 9-61-2-59-35zM48-53c0 20 12 33 32 33 41-3 63-29 60-74-43 2-92-5-92 41" id="A"/><path fill="#333" d="M9 0v-24l116-142H16v-24h144v24L44-24h123V0H9" id="B"/><path fill="#333" d="M24-231v-30h32v30H24zM24 0v-190h32V0H24" id="C"/><path fill="#333" d="M117-194c89-4 53 116 60 194h-32v-121c0-31-8-49-39-48C34-167 62-67 57 0H25l-1-190h30c1 10-1 24 2 32 11-22 29-35 61-36" id="D"/><g id="a"><use transform="matrix(0.05,0,0,0.05,0,0)" xlink:href="#u"/><use transform="matrix(0.05,0,0,0.05,5,0)" xlink:href="#v"/><use transform="matrix(0.05,0,0,0.05,19.950000000000003,0)" xlink:href="#w"/><use transform="matrix(0.05,0,0,0.05,29.950000000000003,0)" xlink:href="#x"/><use transform="matrix(0.05,0,0,0.05,39.95,0)" xlink:href="#y"/><use transform="matrix(0.05,0,0,0.05,48.95,0)" xlink:href="#z"/><use transform="matrix(0.05,0,0,0.05,53.95,0)" xlink:href="#A"/><use transform="matrix(0.05,0,0,0.05,63.95,0)" xlink:href="#B"/><use transform="matrix(0.05,0,0,0.05,72.95,0)" xlink:href="#C"/><use transform="matrix(0.05,0,0,0.05,76.9,0)" xlink:href="#x"/><use transform="matrix(0.05,0,0,0.05,86.9,0)" xlink:href="#D"/><use transform="matrix(0.05,0,0,0.05,96.9,0)" xlink:href="#C"/></g><path fill="#333" d="M156-25L96-89v-11l60-65h29v5l-59 66 60 64v5h-30zm-82 0L15-89v-11l59-65h29v5L44-94l59 64v5H74" id="E"/><path fill="#333" d="M115-194c53 0 69 39 70 98 0 66-23 100-70 100C84 3 66-7 56-30L54 0H23l1-261h32v101c10-23 28-34 59-34zm-8 174c40 0 45-34 45-75 0-40-5-75-45-74-42 0-51 32-51 76 0 43 10 73 51 73" id="F"/><path fill="#333" d="M84 4C-5 8 30-112 23-190h32v120c0 31 7 50 39 49 72-2 45-101 50-169h31l1 190h-30c-1-10 1-25-2-33-11 22-28 36-60 37" id="G"/><path fill="#333" d="M85-194c31 0 48 13 60 33l-1-100h32l1 261h-30c-2-10 0-23-3-31C134-8 116 4 85 4 32 4 16-35 15-94c0-66 23-100 70-100zm9 24c-40 0-46 34-46 75 0 40 6 74 45 74 42 0 51-32 51-76 0-42-9-74-50-73" id="H"/><path fill="#333" d="M114-163C36-179 61-72 57 0H25l-1-190h30c1 12-1 29 2 39 6-27 23-49 58-41v29" id="I"/><path fill="#333" d="M179-190L93 31C79 59 56 82 12 73V49c39 6 53-20 64-50L1-190h34L92-34l54-156h33" id="J"/><path fill="#333" d="M126-25H97v-5l59-64-59-66v-5h29l60 65v11zm-82 0H15v-5l59-64-59-66v-5h29l59 65v11" id="K"/><g id="b"><use transform="matrix(0.05,0,0,0.05,0,0)" xlink:href="#E"/><use transform="matrix(0.05,0,0,0.05,10,0)" xlink:href="#F"/><use transform="matrix(0.05,0,0,0.05,20,0)" xlink:href="#x"/><use transform="matrix(0.05,0,0,0.05,30,0)" xlink:href="#G"/><use transform="matrix(0.05,0,0,0.05,40,0)" xlink:href="#D"/><use transform="matrix(0.05,0,0,0.05,50,0)" xlink:href="#H"/><use transform="matrix(0.05,0,0,0.05,60,0)" xlink:href="#A"/><use transform="matrix(0.05,0,0,0.05,70,0)" xlink:href="#I"/><use transform="matrix(0.05,0,0,0.05,75.95,0)" xlink:href="#J"/><use transform="matrix(0.05,0,0,0.05,84.95,0)" xlink:href="#K"/></g><path fill="#333" d="M24 0v-248h52V0H24" id="L"/><path fill="#333" d="M220-157c-53 9-28 100-34 157h-49v-107c1-27-5-49-29-50C55-147 81-57 75 0H25l-1-190h47c2 12-1 28 3 38 10-53 101-56 108 0 13-22 24-43 59-42 82 1 51 116 57 194h-49v-107c-1-25-5-48-29-50" id="M"/><path fill="#333" d="M135-194c53 0 70 44 70 98 0 56-19 98-73 100-31 1-45-17-59-34 3 33 2 69 2 105H25l-1-265h48c2 10 0 23 3 31 11-24 29-35 60-35zM114-30c33 0 39-31 40-66 0-38-9-64-40-64-56 0-55 130 0 130" id="N"/><path fill="#333" d="M110-194c64 0 96 36 96 99 0 64-35 99-97 99-61 0-95-36-95-99 0-62 34-99 96-99zm-1 164c35 0 45-28 45-65 0-40-10-65-43-65-34 0-45 26-45 65 0 36 10 65 43 65" id="O"/><path fill="#333" d="M137-138c1-29-70-34-71-4 15 46 118 7 119 86 1 83-164 76-172 9l43-7c4 19 20 25 44 25 33 8 57-30 24-41C81-84 22-81 20-136c-2-80 154-74 161-7" id="P"/><path fill="#333" d="M115-3C79 11 28 4 28-45v-112H4v-33h27l15-45h31v45h36v33H77v99c-1 23 16 31 38 25v30" id="Q"/><path fill="#333" d="M133-34C117-15 103 5 69 4 32 3 11-16 11-54c-1-60 55-63 116-61 1-26-3-47-28-47-18 1-26 9-28 27l-52-2c7-38 36-58 82-57s74 22 75 68l1 82c-1 14 12 18 25 15v27c-30 8-71 5-69-32zm-48 3c29 0 43-24 42-57-32 0-66-3-65 30 0 17 8 27 23 27" id="R"/><path fill="#333" d="M12 0v-35l95-120H19v-35h142v35L67-36h103V0H12" id="S"/><path fill="#333" d="M25-224v-37h50v37H25zM25 0v-190h50V0H25" id="T"/><path fill="#333" d="M135-194c87-1 58 113 63 194h-50c-7-57 23-157-34-157-59 0-34 97-39 157H25l-1-190h47c2 12-1 28 3 38 12-26 28-41 61-42" id="U"/><path fill="#333" d="M24-248c120-7 223 5 221 122C244-46 201 0 124 0H24v-248zM76-40c74 7 117-18 117-86 0-67-45-88-117-82v168" id="V"/><path fill="#333" d="M114-157C55-157 80-60 75 0H25v-261h50l-1 109c12-26 28-41 61-42 86-1 58 113 63 194h-50c-7-57 23-157-34-157" id="W"/><path fill="#333" d="M135-194c52 0 70 43 70 98 0 56-19 99-73 100-30 1-46-15-58-35L72 0H24l1-261h50v104c11-23 29-37 60-37zM114-30c31 0 40-27 40-66 0-37-7-63-39-63s-41 28-41 65c0 36 8 64 40 64" id="X"/><path fill="#333" d="M135-150c-39-12-60 13-60 57V0H25l-1-190h47c2 13-1 29 3 40 6-28 27-53 61-41v41" id="Y"/><path fill="#333" d="M88-194c31-1 46 15 58 34l-1-101h50l1 261h-48c-2-10 0-23-3-31C134-8 116 4 84 4 32 4 16-41 15-95c0-56 19-97 73-99zm17 164c33 0 40-30 41-66 1-37-9-64-41-64s-38 30-39 65c0 43 13 65 39 65" id="Z"/><g id="c"><use transform="matrix(0.05,0,0,0.05,0,0)" xlink:href="#L"/><use transform="matrix(0.05,0,0,0.05,5,0)" xlink:href="#M"/><use transform="matrix(0.05,0,0,0.05,21,0)" xlink:href="#N"/><use transform="matrix(0.05,0,0,0.05,31.950000000000003,0)" xlink:href="#O"/><use transform="matrix(0.05,0,0,0.05,42.900000000000006,0)" xlink:href="#P"/><use transform="matrix(0.05,0,0,0.05,52.900000000000006,0)" xlink:href="#Q"/><use transform="matrix(0.05,0,0,0.05,58.85,0)" xlink:href="#R"/><use transform="matrix(0.05,0,0,0.05,68.85000000000001,0)" xlink:href="#S"/><use transform="matrix(0.05,0,0,0.05,77.85000000000001,0)" xlink:href="#T"/><use transform="matrix(0.05,0,0,0.05,82.85000000000001,0)" xlink:href="#O"/><use transform="matrix(0.05,0,0,0.05,93.80000000000001,0)" xlink:href="#U"/><use transform="matrix(0.05,0,0,0.05,104.75,0)" xlink:href="#T"/><use transform="matrix(0.05,0,0,0.05,109.75,0)" xlink:href="#V"/><use transform="matrix(0.05,0,0,0.05,122.7,0)" xlink:href="#R"/><use transform="matrix(0.05,0,0,0.05,132.70000000000002,0)" xlink:href="#P"/><use transform="matrix(0.05,0,0,0.05,142.70000000000002,0)" xlink:href="#W"/><use transform="matrix(0.05,0,0,0.05,153.65,0)" xlink:href="#X"/><use transform="matrix(0.05,0,0,0.05,164.6,0)" xlink:href="#O"/><use transform="matrix(0.05,0,0,0.05,175.54999999999998,0)" xlink:href="#R"/><use transform="matrix(0.05,0,0,0.05,185.54999999999998,0)" xlink:href="#Y"/><use transform="matrix(0.05,0,0,0.05,192.54999999999998,0)" xlink:href="#Z"/></g><path d="M27 0v-27h64v-190l-56 39v-29l58-41h29v221h61V0H27" id="aa"/><use transform="matrix(0.05,0,0,0.05,0,0)" xlink:href="#aa" id="d"/><path fill="#333" d="M230 0l2-204L168 0h-37L68-204 70 0H24v-248h70l56 185 57-185h69V0h-46" id="ab"/><path fill="#333" d="M169-182c-1-43-94-46-97-3 18 66 151 10 154 114 3 95-165 93-204 36-6-8-10-19-12-30l50-8c3 46 112 56 116 5-17-69-150-10-154-114-4-87 153-88 188-35 5 8 8 18 10 28" id="ac"/><path fill="#333" d="M185-48c-13 30-37 53-82 52C43 2 14-33 14-96s30-98 90-98c62 0 83 45 84 108H66c0 31 8 55 39 56 18 0 30-7 34-22zm-45-69c5-46-57-63-70-21-2 6-4 13-4 21h74" id="ad"/><path fill="#333" d="M25 0v-261h50V0H25" id="ae"/><path fill="#333" d="M182-130c37 4 62 22 62 59C244 23 116-4 24 0v-248c84 5 203-23 205 63 0 31-19 50-47 55zM76-148c40-3 101 13 101-30 0-44-60-28-101-31v61zm0 110c48-3 116 14 116-37 0-48-69-32-116-35v72" id="af"/><path fill="#333" d="M85 4C-2 5 27-109 22-190h50c7 57-23 150 33 157 60-5 35-97 40-157h50l1 190h-47c-2-12 1-28-3-38-12 25-28 42-61 42" id="ag"/><g id="e"><use transform="matrix(0.05,0,0,0.05,0,0)" xlink:href="#ab"/><use transform="matrix(0.05,0,0,0.05,14.950000000000001,0)" xlink:href="#O"/><use transform="matrix(0.05,0,0,0.05,25.900000000000002,0)" xlink:href="#P"/><use transform="matrix(0.05,0,0,0.05,35.900000000000006,0)" xlink:href="#Q"/><use transform="matrix(0.05,0,0,0.05,41.85000000000001,0)" xlink:href="#Y"/><use transform="matrix(0.05,0,0,0.05,48.85000000000001,0)" xlink:href="#R"/><use transform="matrix(0.05,0,0,0.05,58.85,0)" xlink:href="#ac"/><use transform="matrix(0.05,0,0,0.05,70.85000000000001,0)" xlink:href="#ad"/><use transform="matrix(0.05,0,0,0.05,80.85000000000001,0)" xlink:href="#Y"/><use transform="matrix(0.05,0,0,0.05,87.85000000000001,0)" xlink:href="#T"/><use transform="matrix(0.05,0,0,0.05,92.85000000000001,0)" xlink:href="#R"/><use transform="matrix(0.05,0,0,0.05,102.85000000000001,0)" xlink:href="#ae"/><use transform="matrix(0.05,0,0,0.05,107.85000000000001,0)" xlink:href="#ad"/><use transform="matrix(0.05,0,0,0.05,117.85000000000001,0)" xlink:href="#af"/><use transform="matrix(0.05,0,0,0.05,130.8,0)" xlink:href="#ag"/><use transform="matrix(0.05,0,0,0.05,141.75,0)" xlink:href="#Q"/><use transform="matrix(0.05,0,0,0.05,147.7,0)" xlink:href="#Q"/><use transform="matrix(0.05,0,0,0.05,153.64999999999998,0)" xlink:href="#O"/><use transform="matrix(0.05,0,0,0.05,164.59999999999997,0)" xlink:href="#U"/></g><path fill="#333" d="M24-248c93 1 206-16 204 79-1 75-69 88-152 82V0H24v-248zm52 121c47 0 100 7 100-41 0-47-54-39-100-39v80" id="ah"/><g id="f"><use transform="matrix(0.05,0,0,0.05,0,0)" xlink:href="#ab"/><use transform="matrix(0.05,0,0,0.05,14.950000000000001,0)" xlink:href="#O"/><use transform="matrix(0.05,0,0,0.05,25.900000000000002,0)" xlink:href="#P"/><use transform="matrix(0.05,0,0,0.05,35.900000000000006,0)" xlink:href="#Q"/><use transform="matrix(0.05,0,0,0.05,41.85000000000001,0)" xlink:href="#Y"/><use transform="matrix(0.05,0,0,0.05,48.85000000000001,0)" xlink:href="#R"/><use transform="matrix(0.05,0,0,0.05,58.85,0)" xlink:href="#V"/><use transform="matrix(0.05,0,0,0.05,71.80000000000001,0)" xlink:href="#V"/><use transform="matrix(0.05,0,0,0.05,84.75000000000001,0)" xlink:href="#ah"/><use transform="matrix(0.05,0,0,0.05,96.75000000000001,0)" xlink:href="#af"/><use transform="matrix(0.05,0,0,0.05,109.7,0)" xlink:href="#ag"/><use transform="matrix(0.05,0,0,0.05,120.65000000000003,0)" xlink:href="#Q"/><use transform="matrix(0.05,0,0,0.05,126.60000000000002,0)" xlink:href="#Q"/><use transform="matrix(0.05,0,0,0.05,132.55,0)" xlink:href="#O"/><use transform="matrix(0.05,0,0,0.05,143.5,0)" xlink:href="#U"/></g><g id="g"><use transform="matrix(0.05,0,0,0.05,0,0)" xlink:href="#ab"/><use transform="matrix(0.05,0,0,0.05,14.950000000000001,0)" xlink:href="#R"/><use transform="matrix(0.05,0,0,0.05,24.950000000000003,0)" xlink:href="#U"/><use transform="matrix(0.05,0,0,0.05,35.900000000000006,0)" xlink:href="#ag"/><use transform="matrix(0.05,0,0,0.05,46.85000000000001,0)" xlink:href="#Q"/><use transform="matrix(0.05,0,0,0.05,52.80000000000001,0)" xlink:href="#ad"/><use transform="matrix(0.05,0,0,0.05,62.80000000000001,0)" xlink:href="#U"/><use transform="matrix(0.05,0,0,0.05,73.75000000000001,0)" xlink:href="#S"/><use transform="matrix(0.05,0,0,0.05,82.75000000000001,0)" xlink:href="#T"/><use transform="matrix(0.05,0,0,0.05,87.75000000000001,0)" xlink:href="#O"/><use transform="matrix(0.05,0,0,0.05,98.70000000000002,0)" xlink:href="#U"/><use transform="matrix(0.05,0,0,0.05,109.65000000000003,0)" xlink:href="#ad"/><use transform="matrix(0.05,0,0,0.05,119.65000000000003,0)" xlink:href="#ac"/><use transform="matrix(0.05,0,0,0.05,131.65000000000003,0)" xlink:href="#ad"/><use transform="matrix(0.05,0,0,0.05,141.65000000000003,0)" xlink:href="#U"/><use transform="matrix(0.05,0,0,0.05,152.60000000000002,0)" xlink:href="#P"/><use transform="matrix(0.05,0,0,0.05,162.60000000000002,0)" xlink:href="#O"/><use transform="matrix(0.05,0,0,0.05,173.55,0)" xlink:href="#Y"/><use transform="matrix(0.05,0,0,0.05,180.55,0)" xlink:href="#T"/><use transform="matrix(0.05,0,0,0.05,185.55,0)" xlink:href="#af"/><use transform="matrix(0.05,0,0,0.05,198.5,0)" xlink:href="#ag"/><use transform="matrix(0.05,0,0,0.05,209.44999999999996,0)" xlink:href="#Q"/><use transform="matrix(0.05,0,0,0.05,215.39999999999998,0)" xlink:href="#Q"/><use transform="matrix(0.05,0,0,0.05,221.34999999999997,0)" xlink:href="#O"/><use transform="matrix(0.05,0,0,0.05,232.29999999999995,0)" xlink:href="#U"/></g><path fill="#333" d="M96-169c-40 0-48 33-48 73s9 75 48 75c24 0 41-14 43-38l32 2c-6 37-31 61-74 61-59 0-76-41-82-99-10-93 101-131 147-64 4 7 5 14 7 22l-32 3c-4-21-16-35-41-35" id="ai"/><path fill="#333" d="M24 0v-261h32V0H24" id="aj"/><g id="h"><use transform="matrix(0.05,0,0,0.05,0,0)" xlink:href="#E"/><use transform="matrix(0.05,0,0,0.05,10,0)" xlink:href="#ai"/><use transform="matrix(0.05,0,0,0.05,19,0)" xlink:href="#x"/><use transform="matrix(0.05,0,0,0.05,29,0)" xlink:href="#D"/><use transform="matrix(0.05,0,0,0.05,39,0)" xlink:href="#z"/><use transform="matrix(0.05,0,0,0.05,44,0)" xlink:href="#I"/><use transform="matrix(0.05,0,0,0.05,49.95,0)" xlink:href="#x"/><use transform="matrix(0.05,0,0,0.05,59.95,0)" xlink:href="#aj"/><use transform="matrix(0.05,0,0,0.05,63.900000000000006,0)" xlink:href="#K"/></g><path fill="#333" d="M140-251c80 0 125 45 125 126S219 4 139 4C58 4 15-44 15-125s44-126 125-126zm-1 214c52 0 73-35 73-88 0-50-21-86-72-86-52 0-73 35-73 86s22 88 72 88" id="ak"/><g id="i"><use transform="matrix(0.05,0,0,0.05,0,0)" xlink:href="#ak"/><use transform="matrix(0.05,0,0,0.05,14,0)" xlink:href="#ag"/><use transform="matrix(0.05,0,0,0.05,24.950000000000003,0)" xlink:href="#Q"/><use transform="matrix(0.05,0,0,0.05,30.900000000000002,0)" xlink:href="#N"/><use transform="matrix(0.05,0,0,0.05,41.85,0)" xlink:href="#ag"/><use transform="matrix(0.05,0,0,0.05,52.800000000000004,0)" xlink:href="#Q"/><use transform="matrix(0.05,0,0,0.05,58.75,0)" xlink:href="#ac"/><use transform="matrix(0.05,0,0,0.05,70.75,0)" xlink:href="#ad"/><use transform="matrix(0.05,0,0,0.05,80.75,0)" xlink:href="#Y"/><use transform="matrix(0.05,0,0,0.05,87.75,0)" xlink:href="#T"/><use transform="matrix(0.05,0,0,0.05,92.75,0)" xlink:href="#R"/><use transform="matrix(0.05,0,0,0.05,102.75,0)" xlink:href="#ae"/><use transform="matrix(0.05,0,0,0.05,107.75,0)" xlink:href="#ad"/></g><path fill="#333" d="M118-107v75H92v-75H18v-26h74v-75h26v75h74v26h-74" id="al"/><path fill="#333" d="M185-189c-5-48-123-54-124 2 14 75 158 14 163 119 3 78-121 87-175 55-17-10-28-26-33-46l33-7c5 56 141 63 141-1 0-78-155-14-162-118-5-82 145-84 179-34 5 7 8 16 11 25" id="am"/><path fill="#333" d="M100-194c63 0 86 42 84 106H49c0 40 14 67 53 68 26 1 43-12 49-29l28 8c-11 28-37 45-77 45C44 4 14-33 15-96c1-61 26-98 85-98zm52 81c6-60-76-77-97-28-3 7-6 17-6 28h103" id="an"/><path fill="#333" d="M87 75C49 33 22-17 22-94c0-76 28-126 65-167h31c-38 41-64 92-64 168S80 34 118 75H87" id="ao"/><path fill="#333" d="M33-261c38 41 65 92 65 168S71 34 33 75H2C39 34 66-17 66-93S39-220 2-261h31" id="ap"/><g id="j"><use transform="matrix(0.05,0,0,0.05,0,0)" xlink:href="#al"/><use transform="matrix(0.05,0,0,0.05,10.5,0)" xlink:href="#y"/><use transform="matrix(0.05,0,0,0.05,19.5,0)" xlink:href="#z"/><use transform="matrix(0.05,0,0,0.05,24.5,0)" xlink:href="#A"/><use transform="matrix(0.05,0,0,0.05,34.5,0)" xlink:href="#v"/><use transform="matrix(0.05,0,0,0.05,49.45,0)" xlink:href="#w"/><use transform="matrix(0.05,0,0,0.05,59.45,0)" xlink:href="#A"/><use transform="matrix(0.05,0,0,0.05,69.45,0)" xlink:href="#am"/><use transform="matrix(0.05,0,0,0.05,81.45,0)" xlink:href="#an"/><use transform="matrix(0.05,0,0,0.05,91.45,0)" xlink:href="#I"/><use transform="matrix(0.05,0,0,0.05,97.4,0)" xlink:href="#C"/><use transform="matrix(0.05,0,0,0.05,101.35000000000001,0)" xlink:href="#A"/><use transform="matrix(0.05,0,0,0.05,111.35000000000001,0)" xlink:href="#aj"/><use transform="matrix(0.05,0,0,0.05,115.30000000000001,0)" xlink:href="#an"/><use transform="matrix(0.05,0,0,0.05,125.30000000000001,0)" xlink:href="#ao"/><use transform="matrix(0.05,0,0,0.05,131.25,0)" xlink:href="#ap"/></g><g id="k"><use transform="matrix(0.05,0,0,0.05,0,0)" xlink:href="#ak"/><use transform="matrix(0.05,0,0,0.05,14,0)" xlink:href="#ag"/><use transform="matrix(0.05,0,0,0.05,24.950000000000003,0)" xlink:href="#Q"/><use transform="matrix(0.05,0,0,0.05,30.900000000000002,0)" xlink:href="#N"/><use transform="matrix(0.05,0,0,0.05,41.85,0)" xlink:href="#ag"/><use transform="matrix(0.05,0,0,0.05,52.800000000000004,0)" xlink:href="#Q"/><use transform="matrix(0.05,0,0,0.05,58.75,0)" xlink:href="#V"/><use transform="matrix(0.05,0,0,0.05,71.7,0)" xlink:href="#ah"/><use transform="matrix(0.05,0,0,0.05,83.7,0)" xlink:href="#ah"/></g><path fill="#333" d="M30-248c118-7 216 8 213 122C240-48 200 0 122 0H30v-248zM63-27c89 8 146-16 146-99s-60-101-146-95v194" id="aq"/><path fill="#333" d="M30-248c87 1 191-15 191 75 0 78-77 80-158 76V0H30v-248zm33 125c57 0 124 11 124-50 0-59-68-47-124-48v98" id="ar"/><g id="l"><use transform="matrix(0.05,0,0,0.05,0,0)" xlink:href="#al"/><use transform="matrix(0.05,0,0,0.05,10.5,0)" xlink:href="#y"/><use transform="matrix(0.05,0,0,0.05,19.5,0)" xlink:href="#z"/><use transform="matrix(0.05,0,0,0.05,24.5,0)" xlink:href="#A"/><use transform="matrix(0.05,0,0,0.05,34.5,0)" xlink:href="#v"/><use transform="matrix(0.05,0,0,0.05,49.45,0)" xlink:href="#w"/><use transform="matrix(0.05,0,0,0.05,59.45,0)" xlink:href="#A"/><use transform="matrix(0.05,0,0,0.05,69.45,0)" xlink:href="#aq"/><use transform="matrix(0.05,0,0,0.05,82.4,0)" xlink:href="#ar"/><use transform="matrix(0.05,0,0,0.05,94.4,0)" xlink:href="#ar"/><use transform="matrix(0.05,0,0,0.05,106.4,0)" xlink:href="#ao"/><use transform="matrix(0.05,0,0,0.05,112.35000000000001,0)" xlink:href="#ap"/></g><g id="m"><use transform="matrix(0.05,0,0,0.05,0,0)" xlink:href="#ab"/><use transform="matrix(0.05,0,0,0.05,14.950000000000001,0)" xlink:href="#R"/><use transform="matrix(0.05,0,0,0.05,24.950000000000003,0)" xlink:href="#U"/><use transform="matrix(0.05,0,0,0.05,35.900000000000006,0)" xlink:href="#ag"/><use transform="matrix(0.05,0,0,0.05,46.85000000000001,0)" xlink:href="#Q"/><use transform="matrix(0.05,0,0,0.05,52.80000000000001,0)" xlink:href="#ad"/><use transform="matrix(0.05,0,0,0.05,62.80000000000001,0)" xlink:href="#U"/><use transform="matrix(0.05,0,0,0.05,73.75000000000001,0)" xlink:href="#S"/><use transform="matrix(0.05,0,0,0.05,82.75000000000001,0)" xlink:href="#T"/><use transform="matrix(0.05,0,0,0.05,87.75000000000001,0)" xlink:href="#O"/><use transform="matrix(0.05,0,0,0.05,98.70000000000002,0)" xlink:href="#U"/><use transform="matrix(0.05,0,0,0.05,109.65000000000003,0)" xlink:href="#ad"/><use transform="matrix(0.05,0,0,0.05,119.65000000000003,0)" xlink:href="#ac"/><use transform="matrix(0.05,0,0,0.05,131.65000000000003,0)" xlink:href="#ad"/><use transform="matrix(0.05,0,0,0.05,141.65000000000003,0)" xlink:href="#U"/><use transform="matrix(0.05,0,0,0.05,152.60000000000002,0)" xlink:href="#P"/><use transform="matrix(0.05,0,0,0.05,162.60000000000002,0)" xlink:href="#O"/><use transform="matrix(0.05,0,0,0.05,173.55,0)" xlink:href="#Y"/><use transform="matrix(0.05,0,0,0.05,180.55,0)" xlink:href="#T"/></g><path fill="#333" d="M106-169C34-169 62-67 57 0H25v-261h32l-1 103c12-21 28-36 61-36 89 0 53 116 60 194h-32v-121c2-32-8-49-39-48" id="as"/><path fill="#333" d="M143 0L79-87 56-68V0H24v-261h32v163l83-92h37l-77 82L181 0h-38" id="at"/><g id="n"><use transform="matrix(0.05,0,0,0.05,0,0)" xlink:href="#al"/><use transform="matrix(0.05,0,0,0.05,10.5,0)" xlink:href="#ai"/><use transform="matrix(0.05,0,0,0.05,19.5,0)" xlink:href="#as"/><use transform="matrix(0.05,0,0,0.05,29.5,0)" xlink:href="#an"/><use transform="matrix(0.05,0,0,0.05,39.5,0)" xlink:href="#ai"/><use transform="matrix(0.05,0,0,0.05,48.5,0)" xlink:href="#at"/><use transform="matrix(0.05,0,0,0.05,57.5,0)" xlink:href="#am"/><use transform="matrix(0.05,0,0,0.05,69.5,0)" xlink:href="#an"/><use transform="matrix(0.05,0,0,0.05,79.5,0)" xlink:href="#D"/><use transform="matrix(0.05,0,0,0.05,89.5,0)" xlink:href="#y"/><use transform="matrix(0.05,0,0,0.05,98.5,0)" xlink:href="#x"/><use transform="matrix(0.05,0,0,0.05,108.5,0)" xlink:href="#I"/><use transform="matrix(0.05,0,0,0.05,114.45,0)" xlink:href="#C"/><use transform="matrix(0.05,0,0,0.05,118.4,0)" xlink:href="#ao"/><use transform="matrix(0.05,0,0,0.05,124.35000000000001,0)" xlink:href="#ap"/></g><path fill="#333" d="M195-6C206 82 75 100 31 46c-4-6-6-13-8-21l49-6c3 16 16 24 34 25 40 0 42-37 40-79-11 22-30 35-61 35-53 0-70-43-70-97 0-56 18-96 73-97 30 0 46 14 59 34l2-30h47zm-90-29c32 0 41-27 41-63 0-35-9-62-40-62-32 0-39 29-40 63 0 36 9 62 39 62" id="au"/><g id="o"><use transform="matrix(0.05,0,0,0.05,0,0)" xlink:href="#ab"/><use transform="matrix(0.05,0,0,0.05,14.950000000000001,0)" xlink:href="#ad"/><use transform="matrix(0.05,0,0,0.05,24.950000000000003,0)" xlink:href="#P"/><use transform="matrix(0.05,0,0,0.05,34.95,0)" xlink:href="#P"/><use transform="matrix(0.05,0,0,0.05,44.95,0)" xlink:href="#R"/><use transform="matrix(0.05,0,0,0.05,54.95,0)" xlink:href="#au"/><use transform="matrix(0.05,0,0,0.05,65.9,0)" xlink:href="#ad"/><use transform="matrix(0.05,0,0,0.05,75.9,0)" xlink:href="#ab"/><use transform="matrix(0.05,0,0,0.05,90.85000000000001,0)" xlink:href="#R"/><use transform="matrix(0.05,0,0,0.05,100.85000000000001,0)" xlink:href="#U"/><use transform="matrix(0.05,0,0,0.05,111.80000000000001,0)" xlink:href="#ag"/><use transform="matrix(0.05,0,0,0.05,122.75,0)" xlink:href="#Q"/><use transform="matrix(0.05,0,0,0.05,128.70000000000002,0)" xlink:href="#ad"/><use transform="matrix(0.05,0,0,0.05,138.70000000000002,0)" xlink:href="#U"/><use transform="matrix(0.05,0,0,0.05,149.65,0)" xlink:href="#S"/><use transform="matrix(0.05,0,0,0.05,158.65,0)" xlink:href="#T"/><use transform="matrix(0.05,0,0,0.05,163.65,0)" xlink:href="#O"/><use transform="matrix(0.05,0,0,0.05,174.6,0)" xlink:href="#U"/><use transform="matrix(0.05,0,0,0.05,185.54999999999998,0)" xlink:href="#ad"/><use transform="matrix(0.05,0,0,0.05,195.54999999999998,0)" xlink:href="#L"/><use transform="matrix(0.05,0,0,0.05,200.54999999999998,0)" xlink:href="#U"/><use transform="matrix(0.05,0,0,0.05,211.49999999999997,0)" xlink:href="#T"/><use transform="matrix(0.05,0,0,0.05,216.49999999999997,0)" xlink:href="#S"/><use transform="matrix(0.05,0,0,0.05,225.49999999999997,0)" xlink:href="#T"/><use transform="matrix(0.05,0,0,0.05,230.49999999999997,0)" xlink:href="#R"/><use transform="matrix(0.05,0,0,0.05,240.49999999999997,0)" xlink:href="#Q"/><use transform="matrix(0.05,0,0,0.05,246.44999999999996,0)" xlink:href="#R"/></g><path fill="#333" d="M177-190C167-65 218 103 67 71c-23-6-38-20-44-43l32-5c15 47 100 32 89-28v-30C133-14 115 1 83 1 29 1 15-40 15-95c0-56 16-97 71-98 29-1 48 16 59 35 1-10 0-23 2-32h30zM94-22c36 0 50-32 50-73 0-42-14-75-50-75-39 0-46 34-46 75s6 73 46 73" id="av"/><path fill="#333" d="M33-154v-36h34v36H33zM33 0v-36h34V0H33" id="aw"/><g id="p"><use transform="matrix(0.05,0,0,0.05,0,0)" xlink:href="#al"/><use transform="matrix(0.05,0,0,0.05,10.5,0)" xlink:href="#v"/><use transform="matrix(0.05,0,0,0.05,25.450000000000003,0)" xlink:href="#an"/><use transform="matrix(0.05,0,0,0.05,35.45,0)" xlink:href="#y"/><use transform="matrix(0.05,0,0,0.05,44.45,0)" xlink:href="#y"/><use transform="matrix(0.05,0,0,0.05,53.45,0)" xlink:href="#A"/><use transform="matrix(0.05,0,0,0.05,63.45,0)" xlink:href="#av"/><use transform="matrix(0.05,0,0,0.05,73.45,0)" xlink:href="#an"/><use transform="matrix(0.05,0,0,0.05,83.45,0)" xlink:href="#aw"/></g><g id="q"><use transform="matrix(0.05,0,0,0.05,0,0)" xlink:href="#y"/><use transform="matrix(0.05,0,0,0.05,9,0)" xlink:href="#z"/><use transform="matrix(0.05,0,0,0.05,14,0)" xlink:href="#I"/><use transform="matrix(0.05,0,0,0.05,19.95,0)" xlink:href="#C"/><use transform="matrix(0.05,0,0,0.05,23.9,0)" xlink:href="#D"/><use transform="matrix(0.05,0,0,0.05,33.9,0)" xlink:href="#av"/></g><path fill="#333" d="M76-208v77h127v40H76V0H24v-248h183v40H76" id="ax"/><g id="r"><use transform="matrix(0.05,0,0,0.05,0,0)" xlink:href="#ab"/><use transform="matrix(0.05,0,0,0.05,14.950000000000001,0)" xlink:href="#ad"/><use transform="matrix(0.05,0,0,0.05,24.950000000000003,0)" xlink:href="#P"/><use transform="matrix(0.05,0,0,0.05,34.95,0)" xlink:href="#P"/><use transform="matrix(0.05,0,0,0.05,44.95,0)" xlink:href="#R"/><use transform="matrix(0.05,0,0,0.05,54.95,0)" xlink:href="#au"/><use transform="matrix(0.05,0,0,0.05,65.9,0)" xlink:href="#ad"/><use transform="matrix(0.05,0,0,0.05,75.9,0)" xlink:href="#ab"/><use transform="matrix(0.05,0,0,0.05,90.85000000000001,0)" xlink:href="#R"/><use transform="matrix(0.05,0,0,0.05,100.85000000000001,0)" xlink:href="#U"/><use transform="matrix(0.05,0,0,0.05,111.80000000000001,0)" xlink:href="#ag"/><use transform="matrix(0.05,0,0,0.05,122.75,0)" xlink:href="#Q"/><use transform="matrix(0.05,0,0,0.05,128.70000000000002,0)" xlink:href="#ad"/><use transform="matrix(0.05,0,0,0.05,138.70000000000002,0)" xlink:href="#U"/><use transform="matrix(0.05,0,0,0.05,149.65,0)" xlink:href="#S"/><use transform="matrix(0.05,0,0,0.05,158.65,0)" xlink:href="#T"/><use transform="matrix(0.05,0,0,0.05,163.65,0)" xlink:href="#O"/><use transform="matrix(0.05,0,0,0.05,174.6,0)" xlink:href="#U"/><use transform="matrix(0.05,0,0,0.05,185.54999999999998,0)" xlink:href="#ad"/><use transform="matrix(0.05,0,0,0.05,195.54999999999998,0)" xlink:href="#ax"/><use transform="matrix(0.05,0,0,0.05,206.49999999999997,0)" xlink:href="#T"/><use transform="matrix(0.05,0,0,0.05,211.49999999999997,0)" xlink:href="#U"/><use transform="matrix(0.05,0,0,0.05,222.44999999999996,0)" xlink:href="#T"/><use transform="matrix(0.05,0,0,0.05,227.44999999999996,0)" xlink:href="#Q"/><use transform="matrix(0.05,0,0,0.05,233.39999999999998,0)" xlink:href="#R"/></g><path fill="#333" d="M205 0l-28-72H64L36 0H1l101-248h38L239 0h-34zm-38-99l-47-123c-12 45-31 82-46 123h93" id="ay"/><path fill="#333" d="M108 0H70L1-190h34L89-25l56-165h34" id="az"/><g id="s"><use transform="matrix(0.05,0,0,0.05,0,0)" xlink:href="#ay"/><use transform="matrix(0.05,0,0,0.05,12,0)" xlink:href="#ai"/><use transform="matrix(0.05,0,0,0.05,21,0)" xlink:href="#z"/><use transform="matrix(0.05,0,0,0.05,26,0)" xlink:href="#C"/><use transform="matrix(0.05,0,0,0.05,29.950000000000003,0)" xlink:href="#az"/><use transform="matrix(0.05,0,0,0.05,38.95,0)" xlink:href="#A"/><use transform="matrix(0.05,0,0,0.05,48.95,0)" xlink:href="#z"/><use transform="matrix(0.05,0,0,0.05,53.95,0)" xlink:href="#an"/><use transform="matrix(0.05,0,0,0.05,63.95,0)" xlink:href="#y"/></g><path fill="#333" d="M143 4C61 4 22-44 18-125c-5-107 100-154 193-111 17 8 29 25 37 43l-32 9c-13-25-37-40-76-40-61 0-88 39-88 99 0 61 29 100 91 101 35 0 62-11 79-27v-45h-74v-28h105v86C228-13 192 4 143 4" id="aA"/><g id="t"><use transform="matrix(0.05,0,0,0.05,0,0)" xlink:href="#aA"/><use transform="matrix(0.05,0,0,0.05,14,0)" xlink:href="#an"/><use transform="matrix(0.05,0,0,0.05,24,0)" xlink:href="#D"/><use transform="matrix(0.05,0,0,0.05,34,0)" xlink:href="#an"/><use transform="matrix(0.05,0,0,0.05,44,0)" xlink:href="#I"/><use transform="matrix(0.05,0,0,0.05,49.95,0)" xlink:href="#A"/><use transform="matrix(0.05,0,0,0.05,59.95,0)" xlink:href="#z"/><use transform="matrix(0.05,0,0,0.05,64.95,0)" xlink:href="#an"/></g></defs></g></svg>