<svg xmlns="http://www.w3.org/2000/svg" xmlns:xlink="http://www.w3.org/1999/xlink" xmlns:lucid="lucid" width="1866" height="1478"><g transform="translate(-1734 -289)" lucid:page-tab-id="HWEp-vi-RSFO"><path d="M2777 436.64h561.3v1239.24H1820V410.64h911zm-957 0h957" stroke="#000" stroke-width="2" fill="#fff"/><use xlink:href="#a" transform="matrix(1,0,0,1,1828,410.639166067646) translate(362.125 16.6)"/><use xlink:href="#b" transform="matrix(1,0,0,1,1828,410.639166067646) translate(434.975 16.6)"/><path d="M2486 500h180v118h-180z" stroke="#333" stroke-width="2" fill="#7030a0"/><path d="M2486 580.8h180" stroke="#333" stroke-width="2" fill="none"/><use xlink:href="#c" transform="matrix(1,0,0,1,2494,508) translate(34.525 14.500000000000002)"/><use xlink:href="#d" transform="matrix(1,0,0,1,2494,508) translate(45.599999999999994 36.1)"/><use xlink:href="#e" transform="matrix(1,0,0,1,2494,508) translate(34.6 57.7)"/><path d="M2470.97 740h210v117h-210z" stroke="#333" stroke-width="2" fill="#7030a0"/><path d="M2470.97 799.2h210" stroke="#333" stroke-width="2" fill="none"/><use xlink:href="#c" transform="matrix(1,0,0,1,2478.9654408506867,748) translate(49.525 14.799999999999999)"/><use xlink:href="#f" transform="matrix(1,0,0,1,2478.9654408506867,748) translate(47.74999999999999 36.4)"/><path d="M2476.97 939h180v120h-180z" stroke="#333" stroke-width="2" fill="#ff7b7b"/><path d="M2476.97 998.2h180" stroke="#333" stroke-width="2" fill="none"/><use xlink:href="#g" transform="matrix(1,0,0,1,2484.9654408506867,947) translate(45.05 14.799999999999999)"/><use xlink:href="#h" transform="matrix(1,0,0,1,2484.9654408506867,947) translate(35.949999999999996 36.4)"/><use xlink:href="#i" transform="matrix(1,0,0,1,2488.9654408506867,1006.2) translate(0 26.1)"/><path d="M2566.97 860v76" stroke="#000" stroke-width="4" fill="none"/><path d="M2568.97 860.05h-4V858h4zM2568.97 938h-4v-2.05h4z" stroke="#000" stroke-width=".05"/><use xlink:href="#j" transform="matrix(1,0,0,1,2548.9654408506867,857.2) translate(0 14.4)"/><use xlink:href="#j" transform="matrix(1,0,0,1,2574.9654408506867,917.2) translate(0 14.4)"/><path d="M2576 621v57.98a.02.02 0 0 1-.02.02.02.02 0 0 0 0 .02V737" stroke="#000" stroke-width="4" fill="none"/><path d="M2578 621.05h-4V619h4zM2577.97 739h-4v-2.05h4z" stroke="#000" stroke-width=".05"/><use xlink:href="#j" transform="matrix(1,0,0,1,2558,618.2) translate(0 14.4)"/><use xlink:href="#j" transform="matrix(1,0,0,1,2583.9654408506867,718.2) translate(0 14.4)"/><path d="M4163.74 1261.15h-10a12 12 0 0 0-12 12V1738a12 12 0 0 1-12 12H1071a12 12 0 0 0-12 12v317.5a12 12 0 0 0 12 12h436.68M4163.7 1261.15h2.04" stroke="#635dff" stroke-width="4" fill="none"/><path d="M1509.68 2093.5h-2.05v-4h2.05z" stroke="#635dff" stroke-width=".05" fill="#635dff"/><use xlink:href="#j" transform="matrix(1,0,0,1,4148.741580216798,1235.5475037154229) translate(0 14.4)"/><use xlink:href="#j" transform="matrix(1,0,0,1,1499.677085488536,2065.8999999999996) translate(0 14.4)"/><path d="M4268.83 1326v582a12 12 0 0 1-12 12H2842a12 12 0 0 0-12 12v189.7a12 12 0 0 0 12 12h490.8a3.3 3.3 0 0 1 3.3 3.3" stroke="#635dff" stroke-width="4" fill="none"/><path d="M4270.83 1326.05h-4V1324h4zM3338.1 2139h-4v-2.05h4z" stroke="#635dff" stroke-width=".05" fill="#635dff"/><use xlink:href="#j" transform="matrix(1,0,0,1,4250.834293160165,1323.2) translate(0 14.4)"/><use xlink:href="#j" transform="matrix(1,0,0,1,3237.225327660115,2137.709400840834) translate(0 14.4)"/><path d="M2470.97 1155h180v185h-180z" stroke="#333" stroke-width="2" fill="#ff7b7b"/><path d="M2470.97 1214.2h180" stroke="#333" stroke-width="2" fill="none"/><use xlink:href="#g" transform="matrix(1,0,0,1,2478.9654408506867,1163) translate(45.05 14.799999999999999)"/><use xlink:href="#k" transform="matrix(1,0,0,1,2478.9654408506867,1163) translate(21.67499999999999 36.4)"/><use xlink:href="#l" transform="matrix(1,0,0,1,2482.9654408506867,1222.2) translate(0 26.19999999999999)"/><use xlink:href="#m" transform="matrix(1,0,0,1,2482.9654408506867,1222.2) translate(0 47.79999999999999)"/><use xlink:href="#n" transform="matrix(1,0,0,1,2482.9654408506867,1222.2) translate(0 69.39999999999999)"/><use xlink:href="#o" transform="matrix(1,0,0,1,2482.9654408506867,1222.2) translate(0 91)"/><path d="M2566.97 1062v44.98a.02.02 0 0 1-.02.02.02.02 0 0 0-.02.02V1152" stroke="#000" stroke-width="4" fill="none"/><path d="M2568.97 1062.05h-4V1060h4zM2568.93 1154h-4v-2.05h4z" stroke="#000" stroke-width=".05"/><use xlink:href="#j" transform="matrix(1,0,0,1,2548.9654408506867,1059.2) translate(0 14.4)"/><use xlink:href="#j" transform="matrix(1,0,0,1,2574.9308817013734,1133.2) translate(0 14.4)"/><path d="M3120 942h210v117h-210z" stroke="#333" stroke-width="2" fill="#7030a0"/><path d="M3120 1001.2h210" stroke="#333" stroke-width="2" fill="none"/><use xlink:href="#c" transform="matrix(1,0,0,1,3128,950) translate(49.525 14.799999999999999)"/><use xlink:href="#p" transform="matrix(1,0,0,1,3128,950) translate(15.699999999999989 36.4)"/><use xlink:href="#q" transform="matrix(1,0,0,1,3132,1009.2) translate(0 24.6)"/><use xlink:href="#r" transform="matrix(1,0,0,1,3132,1009.2) translate(77.95 24.6)"/><use xlink:href="#s" transform="matrix(1,0,0,1,3132,1009.2) translate(87.95 24.6)"/><path d="M2471 1439.76h180v185h-180z" stroke="#333" stroke-width="2" fill="#ff7b7b"/><path d="M2471 1498.96h180" stroke="#333" stroke-width="2" fill="none"/><use xlink:href="#g" transform="matrix(1,0,0,1,2479,1447.7594440450973) translate(45.05 14.799999999999999)"/><use xlink:href="#t" transform="matrix(1,0,0,1,2479,1447.7594440450973) translate(14.174999999999983 36.4)"/><use xlink:href="#u" transform="matrix(1,0,0,1,2483,1506.9594440450974) translate(0 26.19999999999999)"/><use xlink:href="#v" transform="matrix(1,0,0,1,2483,1506.9594440450974) translate(0 47.79999999999999)"/><use xlink:href="#w" transform="matrix(1,0,0,1,2483,1506.9594440450974) translate(0 69.39999999999999)"/><use xlink:href="#x" transform="matrix(1,0,0,1,2483,1506.9594440450974) translate(0 91)"/><path d="M2800 906.5h180v185h-180z" stroke="#333" stroke-width="2" fill="#ff7b7b"/><path d="M2800 965.7h180" stroke="#333" stroke-width="2" fill="none"/><use xlink:href="#g" transform="matrix(1,0,0,1,2808,914.5) translate(45.05 14.799999999999999)"/><use xlink:href="#y" transform="matrix(1,0,0,1,2808,914.5) translate(8.724999999999994 36.4)"/><use xlink:href="#l" transform="matrix(1,0,0,1,2812,973.7) translate(0 26.19999999999999)"/><use xlink:href="#m" transform="matrix(1,0,0,1,2812,973.7) translate(0 47.79999999999999)"/><use xlink:href="#n" transform="matrix(1,0,0,1,2812,973.7) translate(0 69.39999999999999)"/><use xlink:href="#o" transform="matrix(1,0,0,1,2812,973.7) translate(0 91)"/><path d="M2659.97 999H2797" stroke="#000" stroke-width="4" fill="none"/><path d="M2660.02 1001h-2.05v-4h2.05zM2799 1001h-2.05v-4h2.05z" stroke="#000" stroke-width=".05"/><use xlink:href="#j" transform="matrix(1,0,0,1,2657.9654408506867,1003.0000000000001) translate(0 14.4)"/><use xlink:href="#j" transform="matrix(1,0,0,1,2789,973.4000000000001) translate(0 14.4)"/><path d="M2983 999h66.25a.75.75 0 0 1 .75.75.75.75 0 0 0 .75.75H3117" stroke="#000" stroke-width="4" fill="none"/><path d="M2983.05 1001H2981v-4h2.05zM3119 1002.5h-2.05v-4h2.05z" stroke="#000" stroke-width=".05"/><use xlink:href="#j" transform="matrix(1,0,0,1,2981,1003.0000000000001) translate(0 14.4)"/><use xlink:href="#j" transform="matrix(1,0,0,1,3109,974.9000000000001) translate(0 14.4)"/><path d="M2560.97 1343v46.86a.02.02 0 0 0 0 .02.02.02 0 0 1 .03.02v46.86" stroke="#000" stroke-width="4" fill="none"/><path d="M2562.97 1343.05h-4V1341h4zM2563 1438.76h-4v-2.05h4z" stroke="#000" stroke-width=".05"/><g><use xlink:href="#j" transform="matrix(1,0,0,1,2542.9654408506867,1340.2) translate(0 14.4)"/></g><g><use xlink:href="#j" transform="matrix(1,0,0,1,2569,1417.9594440450974) translate(0 14.4)"/></g><path d="M4155.83 1252H3487a12 12 0 0 1-12-12V571a12 12 0 0 0-12-12h-794" stroke="#1071e5" stroke-width="4" fill="none"/><path d="M4157.83 1254h-2.05v-4h2.05zM2669.05 561H2667v-4h2.05z" stroke="#1071e5" stroke-width=".05" fill="#1071e5"/><g><use xlink:href="#j" transform="matrix(1,0,0,1,4147.834293160165,1226.4) translate(0 14.4)"/></g><g><use xlink:href="#j" transform="matrix(1,0,0,1,2666.0000000000005,563) translate(0 14.4)"/></g><g><path d="M2520 780V560h26v220z" stroke="#000" stroke-opacity="0" stroke-width="2" fill="#fff" fill-opacity="0"/></g><g><use xlink:href="#z" transform="matrix(6.123233995736766e-17,-1,1,6.123233995736766e-17,2525,775) translate(75.57499999999999 14.4)"/></g><g><path d="M2516 954.76V840h30v114.76z" stroke="#000" stroke-opacity="0" stroke-width="2" fill="#fff" fill-opacity="0"/></g><g><use xlink:href="#A" transform="matrix(6.123233995736766e-17,-1,1,6.123233995736766e-17,2521,949.7594440450976) translate(20.525 14.4)"/></g><g><path d="M2516 1164.76V1050h30v114.76z" stroke="#000" stroke-opacity="0" stroke-width="2" fill="#fff" fill-opacity="0"/></g><g><use xlink:href="#A" transform="matrix(6.123233995736766e-17,-1,1,6.123233995736766e-17,2521,1159.7594440450976) translate(20.525 14.4)"/></g><g><path d="M2516 1454.76V1340h30v114.76z" stroke="#000" stroke-opacity="0" stroke-width="2" fill="#fff" fill-opacity="0"/></g><g><use xlink:href="#A" transform="matrix(6.123233995736766e-17,-1,1,6.123233995736766e-17,2521,1449.759444045097) translate(20.525 14.4)"/></g><path d="M2666 960h114.76v30H2666z" stroke="#000" stroke-opacity="0" stroke-width="2" fill="#fff" fill-opacity="0"/><g><use xlink:href="#A" transform="matrix(1,0,0,1,2671,965) translate(20.525 14.4)"/></g><path d="M2992.62 960H3080v30h-87.38z" stroke="#000" stroke-opacity="0" stroke-width="2" fill="#fff" fill-opacity="0"/><g><use xlink:href="#B" transform="matrix(1,0,0,1,2997.620277977451,965) translate(1.5249999999999986 14.4)"/></g><defs><path fill="#333" d="M240 0l2-218c-23 76-54 145-80 218h-23L58-218 59 0H30v-248h44l77 211c21-75 51-140 76-211h43V0h-30" id="C"/><path fill="#333" d="M100-194c62-1 85 37 85 99 1 63-27 99-86 99S16-35 15-95c0-66 28-99 85-99zM99-20c44 1 53-31 53-75 0-43-8-75-51-75s-53 32-53 75 10 74 51 75" id="D"/><path fill="#333" d="M85-194c31 0 48 13 60 33l-1-100h32l1 261h-30c-2-10 0-23-3-31C134-8 116 4 85 4 32 4 16-35 15-94c0-66 23-100 70-100zm9 24c-40 0-46 34-46 75 0 40 6 74 45 74 42 0 51-32 51-76 0-42-9-74-50-73" id="E"/><path fill="#333" d="M141-36C126-15 110 5 73 4 37 3 15-17 15-53c-1-64 63-63 125-63 3-35-9-54-41-54-24 1-41 7-42 31l-33-3c5-37 33-52 76-52 45 0 72 20 72 64v82c-1 20 7 32 28 27v20c-31 9-61-2-59-35zM48-53c0 20 12 33 32 33 41-3 63-29 60-74-43 2-92-5-92 41" id="F"/><path fill="#333" d="M24 0v-261h32V0H24" id="G"/><path fill="#333" d="M24-231v-30h32v30H24zM24 0v-190h32V0H24" id="H"/><path fill="#333" d="M59-47c-2 24 18 29 38 22v24C64 9 27 4 27-40v-127H5v-23h24l9-43h21v43h35v23H59v120" id="I"/><path fill="#333" d="M141-36C126-15 110 5 73 4 37 3 15-17 15-53c-1-64 63-63 125-63 3-35-9-54-41-54-24 1-41 7-42 31l-33-3c5-37 33-52 76-52 45 0 72 20 72 64v82c-1 20 7 32 28 27v20c-31 9-61-2-59-35zM48-53c0 20 12 33 32 33 41-3 63-29 60-74-43 2-92-5-92 41zm62-158l-58-49v-5h36c12 19 30 32 38 54h-16" id="J"/><g id="a"><use transform="matrix(0.05,0,0,0.05,0,0)" xlink:href="#C"/><use transform="matrix(0.05,0,0,0.05,14.950000000000001,0)" xlink:href="#D"/><use transform="matrix(0.05,0,0,0.05,24.950000000000003,0)" xlink:href="#E"/><use transform="matrix(0.05,0,0,0.05,34.95,0)" xlink:href="#F"/><use transform="matrix(0.05,0,0,0.05,44.95,0)" xlink:href="#G"/><use transform="matrix(0.05,0,0,0.05,48.900000000000006,0)" xlink:href="#H"/><use transform="matrix(0.05,0,0,0.05,52.85,0)" xlink:href="#I"/><use transform="matrix(0.05,0,0,0.05,57.85,0)" xlink:href="#J"/></g><path fill="#333" d="M205 0l-28-72H64L36 0H1l101-248h38L239 0h-34zm-38-99l-47-123c-12 45-31 82-46 123h93" id="K"/><path fill="#333" d="M84 4C-5 8 30-112 23-190h32v120c0 31 7 50 39 49 72-2 45-101 50-169h31l1 190h-30c-1-10 1-25-2-33-11 22-28 36-60 37" id="L"/><path fill="#333" d="M210-169c-67 3-38 105-44 169h-31v-121c0-29-5-50-35-48C34-165 62-65 56 0H25l-1-190h30c1 10-1 24 2 32 10-44 99-50 107 0 11-21 27-35 58-36 85-2 47 119 55 194h-31v-121c0-29-5-49-35-48" id="M"/><path fill="#333" d="M96-169c-40 0-48 33-48 73s9 75 48 75c24 0 41-14 43-38l32 2c-6 37-31 61-74 61-59 0-76-41-82-99-10-93 101-131 147-64 4 7 5 14 7 22l-32 3c-4-21-16-35-41-35" id="N"/><g id="b"><use transform="matrix(0.05,0,0,0.05,0,0)" xlink:href="#K"/><use transform="matrix(0.05,0,0,0.05,12,0)" xlink:href="#L"/><use transform="matrix(0.05,0,0,0.05,22,0)" xlink:href="#I"/><use transform="matrix(0.05,0,0,0.05,27,0)" xlink:href="#D"/><use transform="matrix(0.05,0,0,0.05,37,0)" xlink:href="#M"/><use transform="matrix(0.05,0,0,0.05,51.95,0)" xlink:href="#F"/><use transform="matrix(0.05,0,0,0.05,61.95,0)" xlink:href="#I"/><use transform="matrix(0.05,0,0,0.05,66.95,0)" xlink:href="#H"/><use transform="matrix(0.05,0,0,0.05,70.9,0)" xlink:href="#N"/><use transform="matrix(0.05,0,0,0.05,79.9,0)" xlink:href="#F"/></g><path fill="#333" d="M156-25L96-89v-11l60-65h29v5l-59 66 60 64v5h-30zm-82 0L15-89v-11l59-65h29v5L44-94l59 64v5H74" id="O"/><path fill="#333" d="M115-194c53 0 69 39 70 98 0 66-23 100-70 100C84 3 66-7 56-30L54 0H23l1-261h32v101c10-23 28-34 59-34zm-8 174c40 0 45-34 45-75 0-40-5-75-45-74-42 0-51 32-51 76 0 43 10 73 51 73" id="P"/><path fill="#333" d="M117-194c89-4 53 116 60 194h-32v-121c0-31-8-49-39-48C34-167 62-67 57 0H25l-1-190h30c1 10-1 24 2 32 11-22 29-35 61-36" id="Q"/><path fill="#333" d="M114-163C36-179 61-72 57 0H25l-1-190h30c1 12-1 29 2 39 6-27 23-49 58-41v29" id="R"/><path fill="#333" d="M179-190L93 31C79 59 56 82 12 73V49c39 6 53-20 64-50L1-190h34L92-34l54-156h33" id="S"/><path fill="#333" d="M126-25H97v-5l59-64-59-66v-5h29l60 65v11zm-82 0H15v-5l59-64-59-66v-5h29l59 65v11" id="T"/><g id="c"><use transform="matrix(0.05,0,0,0.05,0,0)" xlink:href="#O"/><use transform="matrix(0.05,0,0,0.05,10,0)" xlink:href="#P"/><use transform="matrix(0.05,0,0,0.05,20,0)" xlink:href="#D"/><use transform="matrix(0.05,0,0,0.05,30,0)" xlink:href="#L"/><use transform="matrix(0.05,0,0,0.05,40,0)" xlink:href="#Q"/><use transform="matrix(0.05,0,0,0.05,50,0)" xlink:href="#E"/><use transform="matrix(0.05,0,0,0.05,60,0)" xlink:href="#F"/><use transform="matrix(0.05,0,0,0.05,70,0)" xlink:href="#R"/><use transform="matrix(0.05,0,0,0.05,75.95,0)" xlink:href="#S"/><use transform="matrix(0.05,0,0,0.05,84.95,0)" xlink:href="#T"/></g><path fill="#333" d="M230 0l2-204L168 0h-37L68-204 70 0H24v-248h70l56 185 57-185h69V0h-46" id="U"/><path fill="#333" d="M110-194c64 0 96 36 96 99 0 64-35 99-97 99-61 0-95-36-95-99 0-62 34-99 96-99zm-1 164c35 0 45-28 45-65 0-40-10-65-43-65-34 0-45 26-45 65 0 36 10 65 43 65" id="V"/><path fill="#333" d="M88-194c31-1 46 15 58 34l-1-101h50l1 261h-48c-2-10 0-23-3-31C134-8 116 4 84 4 32 4 16-41 15-95c0-56 19-97 73-99zm17 164c33 0 40-30 41-66 1-37-9-64-41-64s-38 30-39 65c0 43 13 65 39 65" id="W"/><path fill="#333" d="M133-34C117-15 103 5 69 4 32 3 11-16 11-54c-1-60 55-63 116-61 1-26-3-47-28-47-18 1-26 9-28 27l-52-2c7-38 36-58 82-57s74 22 75 68l1 82c-1 14 12 18 25 15v27c-30 8-71 5-69-32zm-48 3c29 0 43-24 42-57-32 0-66-3-65 30 0 17 8 27 23 27" id="X"/><path fill="#333" d="M25 0v-261h50V0H25" id="Y"/><path fill="#333" d="M25-224v-37h50v37H25zM25 0v-190h50V0H25" id="Z"/><path fill="#333" d="M115-3C79 11 28 4 28-45v-112H4v-33h27l15-45h31v45h36v33H77v99c-1 23 16 31 38 25v30" id="aa"/><path fill="#333" d="M132-34C116-15 102 5 68 4 31 3 10-16 10-54c-1-60 55-63 116-61 1-26-3-47-28-47-18 1-26 9-28 27l-52-2c7-38 36-58 82-57s74 22 75 68l1 82c-1 14 12 18 25 15v27c-30 8-71 5-69-32zm-48 3c29 0 43-24 42-57-32 0-66-3-65 30 0 17 8 27 23 27zm18-177l-59-48v-8h45l44 51v5h-30" id="ab"/><g id="d"><use transform="matrix(0.05,0,0,0.05,0,0)" xlink:href="#U"/><use transform="matrix(0.05,0,0,0.05,14.950000000000001,0)" xlink:href="#V"/><use transform="matrix(0.05,0,0,0.05,25.900000000000002,0)" xlink:href="#W"/><use transform="matrix(0.05,0,0,0.05,36.85,0)" xlink:href="#X"/><use transform="matrix(0.05,0,0,0.05,46.85,0)" xlink:href="#Y"/><use transform="matrix(0.05,0,0,0.05,51.85,0)" xlink:href="#Z"/><use transform="matrix(0.05,0,0,0.05,56.85,0)" xlink:href="#aa"/><use transform="matrix(0.05,0,0,0.05,62.800000000000004,0)" xlink:href="#ab"/></g><path fill="#333" d="M85 4C-2 5 27-109 22-190h50c7 57-23 150 33 157 60-5 35-97 40-157h50l1 190h-47c-2-12 1-28-3-38-12 25-28 42-61 42" id="ac"/><path fill="#333" d="M220-157c-53 9-28 100-34 157h-49v-107c1-27-5-49-29-50C55-147 81-57 75 0H25l-1-190h47c2 12-1 28 3 38 10-53 101-56 108 0 13-22 24-43 59-42 82 1 51 116 57 194h-49v-107c-1-25-5-48-29-50" id="ad"/><path fill="#333" d="M190-63c-7 42-38 67-86 67-59 0-84-38-90-98-12-110 154-137 174-36l-49 2c-2-19-15-32-35-32-30 0-35 28-38 64-6 74 65 87 74 30" id="ae"/><g id="e"><use transform="matrix(0.05,0,0,0.05,0,0)" xlink:href="#X"/><use transform="matrix(0.05,0,0,0.05,10,0)" xlink:href="#ac"/><use transform="matrix(0.05,0,0,0.05,20.950000000000003,0)" xlink:href="#aa"/><use transform="matrix(0.05,0,0,0.05,26.900000000000002,0)" xlink:href="#V"/><use transform="matrix(0.05,0,0,0.05,37.85,0)" xlink:href="#ad"/><use transform="matrix(0.05,0,0,0.05,53.85,0)" xlink:href="#X"/><use transform="matrix(0.05,0,0,0.05,63.85,0)" xlink:href="#aa"/><use transform="matrix(0.05,0,0,0.05,69.8,0)" xlink:href="#Z"/><use transform="matrix(0.05,0,0,0.05,74.8,0)" xlink:href="#ae"/><use transform="matrix(0.05,0,0,0.05,84.8,0)" xlink:href="#X"/></g><path fill="#333" d="M199 0l-22-63H83L61 0H9l90-248h61L250 0h-51zm-33-102l-36-108c-10 38-24 72-36 108h72" id="af"/><path fill="#333" d="M182-130c37 4 62 22 62 59C244 23 116-4 24 0v-248c84 5 203-23 205 63 0 31-19 50-47 55zM76-148c40-3 101 13 101-30 0-44-60-28-101-31v61zm0 110c48-3 116 14 116-37 0-48-69-32-116-35v72" id="ag"/><path fill="#333" d="M135-194c87-1 58 113 63 194h-50c-7-57 23-157-34-157-59 0-34 97-39 157H25l-1-190h47c2 12-1 28 3 38 12-26 28-41 61-42" id="ah"/><g id="f"><use transform="matrix(0.05,0,0,0.05,0,0)" xlink:href="#af"/><use transform="matrix(0.05,0,0,0.05,12.950000000000001,0)" xlink:href="#ac"/><use transform="matrix(0.05,0,0,0.05,23.900000000000002,0)" xlink:href="#aa"/><use transform="matrix(0.05,0,0,0.05,29.85,0)" xlink:href="#V"/><use transform="matrix(0.05,0,0,0.05,40.800000000000004,0)" xlink:href="#ag"/><use transform="matrix(0.05,0,0,0.05,53.75,0)" xlink:href="#ac"/><use transform="matrix(0.05,0,0,0.05,64.7,0)" xlink:href="#aa"/><use transform="matrix(0.05,0,0,0.05,70.65,0)" xlink:href="#aa"/><use transform="matrix(0.05,0,0,0.05,76.60000000000001,0)" xlink:href="#V"/><use transform="matrix(0.05,0,0,0.05,87.55000000000001,0)" xlink:href="#ah"/></g><g id="g"><use transform="matrix(0.05,0,0,0.05,0,0)" xlink:href="#O"/><use transform="matrix(0.05,0,0,0.05,10,0)" xlink:href="#N"/><use transform="matrix(0.05,0,0,0.05,19,0)" xlink:href="#D"/><use transform="matrix(0.05,0,0,0.05,29,0)" xlink:href="#Q"/><use transform="matrix(0.05,0,0,0.05,39,0)" xlink:href="#I"/><use transform="matrix(0.05,0,0,0.05,44,0)" xlink:href="#R"/><use transform="matrix(0.05,0,0,0.05,49.95,0)" xlink:href="#D"/><use transform="matrix(0.05,0,0,0.05,59.95,0)" xlink:href="#G"/><use transform="matrix(0.05,0,0,0.05,63.900000000000006,0)" xlink:href="#T"/></g><path fill="#333" d="M67-125c0 53 21 87 73 88 37 1 54-22 65-47l45 17C233-25 199 4 140 4 58 4 20-42 15-125 8-235 124-281 211-232c18 10 29 29 36 50l-46 12c-8-25-30-41-62-41-52 0-71 34-72 86" id="ai"/><path fill="#333" d="M114-157C55-157 80-60 75 0H25v-261h50l-1 109c12-26 28-41 61-42 86-1 58 113 63 194h-50c-7-57 23-157-34-157" id="aj"/><path fill="#333" d="M185-48c-13 30-37 53-82 52C43 2 14-33 14-96s30-98 90-98c62 0 83 45 84 108H66c0 31 8 55 39 56 18 0 30-7 34-22zm-45-69c5-46-57-63-70-21-2 6-4 13-4 21h74" id="ak"/><path fill="#333" d="M147 0L96-86 75-71V0H25v-261h50v150l67-79h53l-66 74L201 0h-54" id="al"/><path fill="#333" d="M275 0h-61l-44-196L126 0H64L0-248h53L97-49l45-199h58l43 199 44-199h52" id="am"/><g id="h"><use transform="matrix(0.05,0,0,0.05,0,0)" xlink:href="#ai"/><use transform="matrix(0.05,0,0,0.05,12.950000000000001,0)" xlink:href="#aj"/><use transform="matrix(0.05,0,0,0.05,23.900000000000002,0)" xlink:href="#ak"/><use transform="matrix(0.05,0,0,0.05,33.900000000000006,0)" xlink:href="#ae"/><use transform="matrix(0.05,0,0,0.05,43.900000000000006,0)" xlink:href="#al"/><use transform="matrix(0.05,0,0,0.05,53.900000000000006,0)" xlink:href="#am"/><use transform="matrix(0.05,0,0,0.05,70.2,0)" xlink:href="#X"/><use transform="matrix(0.05,0,0,0.05,80.2,0)" xlink:href="#aa"/><use transform="matrix(0.05,0,0,0.05,86.15,0)" xlink:href="#aa"/></g><path fill="#333" d="M118-107v75H92v-75H18v-26h74v-75h26v75h74v26h-74" id="an"/><path fill="#333" d="M106-169C34-169 62-67 57 0H25v-261h32l-1 103c12-21 28-36 61-36 89 0 53 116 60 194h-32v-121c2-32-8-49-39-48" id="ao"/><path fill="#333" d="M100-194c63 0 86 42 84 106H49c0 40 14 67 53 68 26 1 43-12 49-29l28 8c-11 28-37 45-77 45C44 4 14-33 15-96c1-61 26-98 85-98zm52 81c6-60-76-77-97-28-3 7-6 17-6 28h103" id="ap"/><path fill="#333" d="M143 0L79-87 56-68V0H24v-261h32v163l83-92h37l-77 82L181 0h-38" id="aq"/><path fill="#333" d="M30 0v-248h33v221h125V0H30" id="ar"/><path fill="#333" d="M87 75C49 33 22-17 22-94c0-76 28-126 65-167h31c-38 41-64 92-64 168S80 34 118 75H87" id="as"/><path fill="#333" d="M33-261c38 41 65 92 65 168S71 34 33 75H2C39 34 66-17 66-93S39-220 2-261h31" id="at"/><g id="i"><use transform="matrix(0.05,0,0,0.05,0,0)" xlink:href="#an"/><use transform="matrix(0.05,0,0,0.05,10.5,0)" xlink:href="#N"/><use transform="matrix(0.05,0,0,0.05,19.5,0)" xlink:href="#ao"/><use transform="matrix(0.05,0,0,0.05,29.5,0)" xlink:href="#ap"/><use transform="matrix(0.05,0,0,0.05,39.5,0)" xlink:href="#N"/><use transform="matrix(0.05,0,0,0.05,48.5,0)" xlink:href="#aq"/><use transform="matrix(0.05,0,0,0.05,57.5,0)" xlink:href="#ar"/><use transform="matrix(0.05,0,0,0.05,67.5,0)" xlink:href="#H"/><use transform="matrix(0.05,0,0,0.05,71.45,0)" xlink:href="#M"/><use transform="matrix(0.05,0,0,0.05,86.4,0)" xlink:href="#H"/><use transform="matrix(0.05,0,0,0.05,90.35000000000001,0)" xlink:href="#I"/><use transform="matrix(0.05,0,0,0.05,95.35000000000001,0)" xlink:href="#F"/><use transform="matrix(0.05,0,0,0.05,105.35000000000001,0)" xlink:href="#I"/><use transform="matrix(0.05,0,0,0.05,110.35000000000001,0)" xlink:href="#D"/><use transform="matrix(0.05,0,0,0.05,120.35000000000001,0)" xlink:href="#R"/><use transform="matrix(0.05,0,0,0.05,126.30000000000001,0)" xlink:href="#as"/><use transform="matrix(0.05,0,0,0.05,132.25,0)" xlink:href="#at"/></g><path d="M27 0v-27h64v-190l-56 39v-29l58-41h29v221h61V0H27" id="au"/><use transform="matrix(0.05,0,0,0.05,0,0)" xlink:href="#au" id="j"/><path fill="#333" d="M240-174c0 40-23 61-54 70L253 0h-59l-57-94H76V0H24v-248c93 4 217-23 216 74zM76-134c48-2 112 12 112-38 0-48-66-32-112-35v73" id="av"/><g id="k"><use transform="matrix(0.05,0,0,0.05,0,0)" xlink:href="#ai"/><use transform="matrix(0.05,0,0,0.05,12.950000000000001,0)" xlink:href="#aj"/><use transform="matrix(0.05,0,0,0.05,23.900000000000002,0)" xlink:href="#ak"/><use transform="matrix(0.05,0,0,0.05,33.900000000000006,0)" xlink:href="#ae"/><use transform="matrix(0.05,0,0,0.05,43.900000000000006,0)" xlink:href="#al"/><use transform="matrix(0.05,0,0,0.05,53.900000000000006,0)" xlink:href="#av"/><use transform="matrix(0.05,0,0,0.05,66.85000000000001,0)" xlink:href="#V"/><use transform="matrix(0.05,0,0,0.05,77.80000000000001,0)" xlink:href="#ac"/><use transform="matrix(0.05,0,0,0.05,88.75000000000001,0)" xlink:href="#aa"/><use transform="matrix(0.05,0,0,0.05,94.70000000000002,0)" xlink:href="#Z"/><use transform="matrix(0.05,0,0,0.05,99.70000000000002,0)" xlink:href="#ah"/><use transform="matrix(0.05,0,0,0.05,110.65000000000003,0)" xlink:href="#ak"/></g><path fill="#333" d="M266 0h-40l-56-210L115 0H75L2-248h35L96-30l15-64 43-154h32l59 218 59-218h35" id="aw"/><path fill="#333" d="M135-143c-3-34-86-38-87 0 15 53 115 12 119 90S17 21 10-45l28-5c4 36 97 45 98 0-10-56-113-15-118-90-4-57 82-63 122-42 12 7 21 19 24 35" id="ax"/><g id="l"><use transform="matrix(0.05,0,0,0.05,0,0)" xlink:href="#an"/><use transform="matrix(0.05,0,0,0.05,10.5,0)" xlink:href="#N"/><use transform="matrix(0.05,0,0,0.05,19.5,0)" xlink:href="#ao"/><use transform="matrix(0.05,0,0,0.05,29.5,0)" xlink:href="#ap"/><use transform="matrix(0.05,0,0,0.05,39.5,0)" xlink:href="#N"/><use transform="matrix(0.05,0,0,0.05,48.5,0)" xlink:href="#aq"/><use transform="matrix(0.05,0,0,0.05,57.5,0)" xlink:href="#aw"/><use transform="matrix(0.05,0,0,0.05,73.8,0)" xlink:href="#F"/><use transform="matrix(0.05,0,0,0.05,83.8,0)" xlink:href="#ax"/><use transform="matrix(0.05,0,0,0.05,92.8,0)" xlink:href="#ao"/><use transform="matrix(0.05,0,0,0.05,102.80000000000001,0)" xlink:href="#as"/><use transform="matrix(0.05,0,0,0.05,108.75,0)" xlink:href="#at"/></g><path fill="#333" d="M30-248c118-7 216 8 213 122C240-48 200 0 122 0H30v-248zM63-27c89 8 146-16 146-99s-60-101-146-95v194" id="ay"/><g id="m"><use transform="matrix(0.05,0,0,0.05,0,0)" xlink:href="#an"/><use transform="matrix(0.05,0,0,0.05,10.5,0)" xlink:href="#N"/><use transform="matrix(0.05,0,0,0.05,19.5,0)" xlink:href="#ao"/><use transform="matrix(0.05,0,0,0.05,29.5,0)" xlink:href="#ap"/><use transform="matrix(0.05,0,0,0.05,39.5,0)" xlink:href="#N"/><use transform="matrix(0.05,0,0,0.05,48.5,0)" xlink:href="#aq"/><use transform="matrix(0.05,0,0,0.05,57.5,0)" xlink:href="#ay"/><use transform="matrix(0.05,0,0,0.05,70.45,0)" xlink:href="#R"/><use transform="matrix(0.05,0,0,0.05,76.4,0)" xlink:href="#S"/><use transform="matrix(0.05,0,0,0.05,85.4,0)" xlink:href="#as"/><use transform="matrix(0.05,0,0,0.05,91.35000000000001,0)" xlink:href="#at"/></g><path fill="#333" d="M197 0v-115H63V0H30v-248h33v105h134v-105h34V0h-34" id="az"/><path fill="#333" d="M101-234c-31-9-42 10-38 44h38v23H63V0H32v-167H5v-23h27c-7-52 17-82 69-68v24" id="aA"/><g id="n"><use transform="matrix(0.05,0,0,0.05,0,0)" xlink:href="#an"/><use transform="matrix(0.05,0,0,0.05,10.5,0)" xlink:href="#N"/><use transform="matrix(0.05,0,0,0.05,19.5,0)" xlink:href="#ao"/><use transform="matrix(0.05,0,0,0.05,29.5,0)" xlink:href="#ap"/><use transform="matrix(0.05,0,0,0.05,39.5,0)" xlink:href="#N"/><use transform="matrix(0.05,0,0,0.05,48.5,0)" xlink:href="#aq"/><use transform="matrix(0.05,0,0,0.05,57.5,0)" xlink:href="#az"/><use transform="matrix(0.05,0,0,0.05,70.45,0)" xlink:href="#L"/><use transform="matrix(0.05,0,0,0.05,80.45,0)" xlink:href="#M"/><use transform="matrix(0.05,0,0,0.05,95.4,0)" xlink:href="#H"/><use transform="matrix(0.05,0,0,0.05,99.35000000000001,0)" xlink:href="#E"/><use transform="matrix(0.05,0,0,0.05,109.35000000000001,0)" xlink:href="#H"/><use transform="matrix(0.05,0,0,0.05,113.30000000000001,0)" xlink:href="#aA"/><use transform="matrix(0.05,0,0,0.05,118.30000000000001,0)" xlink:href="#S"/><use transform="matrix(0.05,0,0,0.05,127.30000000000001,0)" xlink:href="#as"/><use transform="matrix(0.05,0,0,0.05,133.25,0)" xlink:href="#at"/></g><path fill="#333" d="M177-190C167-65 218 103 67 71c-23-6-38-20-44-43l32-5c15 47 100 32 89-28v-30C133-14 115 1 83 1 29 1 15-40 15-95c0-56 16-97 71-98 29-1 48 16 59 35 1-10 0-23 2-32h30zM94-22c36 0 50-32 50-73 0-42-14-75-50-75-39 0-46 34-46 75s6 73 46 73" id="aB"/><g id="o"><use transform="matrix(0.05,0,0,0.05,0,0)" xlink:href="#an"/><use transform="matrix(0.05,0,0,0.05,10.5,0)" xlink:href="#N"/><use transform="matrix(0.05,0,0,0.05,19.5,0)" xlink:href="#ao"/><use transform="matrix(0.05,0,0,0.05,29.5,0)" xlink:href="#ap"/><use transform="matrix(0.05,0,0,0.05,39.5,0)" xlink:href="#N"/><use transform="matrix(0.05,0,0,0.05,48.5,0)" xlink:href="#aq"/><use transform="matrix(0.05,0,0,0.05,57.5,0)" xlink:href="#az"/><use transform="matrix(0.05,0,0,0.05,70.45,0)" xlink:href="#ap"/><use transform="matrix(0.05,0,0,0.05,80.45,0)" xlink:href="#F"/><use transform="matrix(0.05,0,0,0.05,90.45,0)" xlink:href="#I"/><use transform="matrix(0.05,0,0,0.05,95.45,0)" xlink:href="#H"/><use transform="matrix(0.05,0,0,0.05,99.4,0)" xlink:href="#Q"/><use transform="matrix(0.05,0,0,0.05,109.4,0)" xlink:href="#aB"/><use transform="matrix(0.05,0,0,0.05,119.4,0)" xlink:href="#as"/><use transform="matrix(0.05,0,0,0.05,125.35000000000001,0)" xlink:href="#at"/></g><path fill="#333" d="M169-182c-1-43-94-46-97-3 18 66 151 10 154 114 3 95-165 93-204 36-6-8-10-19-12-30l50-8c3 46 112 56 116 5-17-69-150-10-154-114-4-87 153-88 188-35 5 8 8 18 10 28" id="aC"/><path fill="#333" d="M231 0h-52l-39-155L100 0H48L-1-190h46L77-45c9-52 24-97 36-145h53l37 145 32-145h46" id="aD"/><path fill="#333" d="M137-138c1-29-70-34-71-4 15 46 118 7 119 86 1 83-164 76-172 9l43-7c4 19 20 25 44 25 33 8 57-30 24-41C81-84 22-81 20-136c-2-80 154-74 161-7" id="aE"/><path fill="#333" d="M195-6C206 82 75 100 31 46c-4-6-6-13-8-21l49-6c3 16 16 24 34 25 40 0 42-37 40-79-11 22-30 35-61 35-53 0-70-43-70-97 0-56 18-96 73-97 30 0 46 14 59 34l2-30h47zm-90-29c32 0 41-27 41-63 0-35-9-62-40-62-32 0-39 29-40 63 0 36 9 62 39 62" id="aF"/><g id="p"><use transform="matrix(0.05,0,0,0.05,0,0)" xlink:href="#aC"/><use transform="matrix(0.05,0,0,0.05,12,0)" xlink:href="#aj"/><use transform="matrix(0.05,0,0,0.05,22.950000000000003,0)" xlink:href="#ac"/><use transform="matrix(0.05,0,0,0.05,33.900000000000006,0)" xlink:href="#aa"/><use transform="matrix(0.05,0,0,0.05,39.85000000000001,0)" xlink:href="#W"/><use transform="matrix(0.05,0,0,0.05,50.80000000000001,0)" xlink:href="#V"/><use transform="matrix(0.05,0,0,0.05,61.750000000000014,0)" xlink:href="#aD"/><use transform="matrix(0.05,0,0,0.05,75.75000000000001,0)" xlink:href="#ah"/><use transform="matrix(0.05,0,0,0.05,86.70000000000002,0)" xlink:href="#U"/><use transform="matrix(0.05,0,0,0.05,101.65000000000002,0)" xlink:href="#ak"/><use transform="matrix(0.05,0,0,0.05,111.65000000000003,0)" xlink:href="#aE"/><use transform="matrix(0.05,0,0,0.05,121.65000000000003,0)" xlink:href="#aE"/><use transform="matrix(0.05,0,0,0.05,131.65000000000003,0)" xlink:href="#X"/><use transform="matrix(0.05,0,0,0.05,141.65000000000003,0)" xlink:href="#aF"/><use transform="matrix(0.05,0,0,0.05,152.60000000000002,0)" xlink:href="#ak"/></g><g id="q"><use transform="matrix(0.05,0,0,0.05,0,0)" xlink:href="#M"/><use transform="matrix(0.05,0,0,0.05,14.950000000000001,0)" xlink:href="#ap"/><use transform="matrix(0.05,0,0,0.05,24.950000000000003,0)" xlink:href="#ax"/><use transform="matrix(0.05,0,0,0.05,33.95,0)" xlink:href="#ax"/><use transform="matrix(0.05,0,0,0.05,42.95,0)" xlink:href="#F"/><use transform="matrix(0.05,0,0,0.05,52.95,0)" xlink:href="#aB"/><use transform="matrix(0.05,0,0,0.05,62.95,0)" xlink:href="#ap"/></g><path fill="#333" d="M33-154v-36h34v36H33zM33 0v-36h34V0H33" id="aG"/><use transform="matrix(0.05,0,0,0.05,0,0)" xlink:href="#aG" id="r"/><g id="s"><use transform="matrix(0.05,0,0,0.05,0,0)" xlink:href="#ax"/><use transform="matrix(0.05,0,0,0.05,9,0)" xlink:href="#I"/><use transform="matrix(0.05,0,0,0.05,14,0)" xlink:href="#R"/><use transform="matrix(0.05,0,0,0.05,19.95,0)" xlink:href="#H"/><use transform="matrix(0.05,0,0,0.05,23.9,0)" xlink:href="#Q"/><use transform="matrix(0.05,0,0,0.05,33.9,0)" xlink:href="#aB"/></g><path fill="#333" d="M24 0v-248h195v40H76v63h132v40H76v65h150V0H24" id="aH"/><path fill="#333" d="M144 0l-44-69L55 0H2l70-98-66-92h53l41 62 40-62h54l-67 91 71 99h-54" id="aI"/><g id="t"><use transform="matrix(0.05,0,0,0.05,0,0)" xlink:href="#aH"/><use transform="matrix(0.05,0,0,0.05,12,0)" xlink:href="#aI"/><use transform="matrix(0.05,0,0,0.05,22,0)" xlink:href="#ak"/><use transform="matrix(0.05,0,0,0.05,32,0)" xlink:href="#ae"/><use transform="matrix(0.05,0,0,0.05,42,0)" xlink:href="#ac"/><use transform="matrix(0.05,0,0,0.05,52.95,0)" xlink:href="#aa"/><use transform="matrix(0.05,0,0,0.05,58.900000000000006,0)" xlink:href="#ak"/><use transform="matrix(0.05,0,0,0.05,68.9,0)" xlink:href="#av"/><use transform="matrix(0.05,0,0,0.05,81.85000000000001,0)" xlink:href="#V"/><use transform="matrix(0.05,0,0,0.05,92.80000000000001,0)" xlink:href="#ac"/><use transform="matrix(0.05,0,0,0.05,103.75,0)" xlink:href="#aa"/><use transform="matrix(0.05,0,0,0.05,109.7,0)" xlink:href="#Z"/><use transform="matrix(0.05,0,0,0.05,114.7,0)" xlink:href="#ah"/><use transform="matrix(0.05,0,0,0.05,125.65000000000003,0)" xlink:href="#ak"/></g><path fill="#333" d="M141 0L90-78 38 0H4l68-98-65-92h35l48 74 47-74h35l-64 92 68 98h-35" id="aJ"/><g id="u"><use transform="matrix(0.05,0,0,0.05,0,0)" xlink:href="#an"/><use transform="matrix(0.05,0,0,0.05,10.5,0)" xlink:href="#ap"/><use transform="matrix(0.05,0,0,0.05,20.5,0)" xlink:href="#aJ"/><use transform="matrix(0.05,0,0,0.05,29.5,0)" xlink:href="#ap"/><use transform="matrix(0.05,0,0,0.05,39.5,0)" xlink:href="#N"/><use transform="matrix(0.05,0,0,0.05,48.5,0)" xlink:href="#L"/><use transform="matrix(0.05,0,0,0.05,58.5,0)" xlink:href="#I"/><use transform="matrix(0.05,0,0,0.05,63.5,0)" xlink:href="#ap"/><use transform="matrix(0.05,0,0,0.05,73.5,0)" xlink:href="#aw"/><use transform="matrix(0.05,0,0,0.05,89.8,0)" xlink:href="#F"/><use transform="matrix(0.05,0,0,0.05,99.8,0)" xlink:href="#ax"/><use transform="matrix(0.05,0,0,0.05,108.80000000000001,0)" xlink:href="#ao"/><use transform="matrix(0.05,0,0,0.05,118.80000000000001,0)" xlink:href="#as"/><use transform="matrix(0.05,0,0,0.05,124.75,0)" xlink:href="#at"/></g><g id="v"><use transform="matrix(0.05,0,0,0.05,0,0)" xlink:href="#an"/><use transform="matrix(0.05,0,0,0.05,10.5,0)" xlink:href="#ap"/><use transform="matrix(0.05,0,0,0.05,20.5,0)" xlink:href="#aJ"/><use transform="matrix(0.05,0,0,0.05,29.5,0)" xlink:href="#ap"/><use transform="matrix(0.05,0,0,0.05,39.5,0)" xlink:href="#N"/><use transform="matrix(0.05,0,0,0.05,48.5,0)" xlink:href="#L"/><use transform="matrix(0.05,0,0,0.05,58.5,0)" xlink:href="#I"/><use transform="matrix(0.05,0,0,0.05,63.5,0)" xlink:href="#ap"/><use transform="matrix(0.05,0,0,0.05,73.5,0)" xlink:href="#ay"/><use transform="matrix(0.05,0,0,0.05,86.45,0)" xlink:href="#R"/><use transform="matrix(0.05,0,0,0.05,92.4,0)" xlink:href="#S"/><use transform="matrix(0.05,0,0,0.05,101.4,0)" xlink:href="#as"/><use transform="matrix(0.05,0,0,0.05,107.35000000000001,0)" xlink:href="#at"/></g><g id="w"><use transform="matrix(0.05,0,0,0.05,0,0)" xlink:href="#an"/><use transform="matrix(0.05,0,0,0.05,10.5,0)" xlink:href="#ap"/><use transform="matrix(0.05,0,0,0.05,20.5,0)" xlink:href="#aJ"/><use transform="matrix(0.05,0,0,0.05,29.5,0)" xlink:href="#ap"/><use transform="matrix(0.05,0,0,0.05,39.5,0)" xlink:href="#N"/><use transform="matrix(0.05,0,0,0.05,48.5,0)" xlink:href="#L"/><use transform="matrix(0.05,0,0,0.05,58.5,0)" xlink:href="#I"/><use transform="matrix(0.05,0,0,0.05,63.5,0)" xlink:href="#ap"/><use transform="matrix(0.05,0,0,0.05,73.5,0)" xlink:href="#az"/><use transform="matrix(0.05,0,0,0.05,86.45,0)" xlink:href="#L"/><use transform="matrix(0.05,0,0,0.05,96.45,0)" xlink:href="#M"/><use transform="matrix(0.05,0,0,0.05,111.4,0)" xlink:href="#H"/><use transform="matrix(0.05,0,0,0.05,115.35000000000001,0)" xlink:href="#E"/><use transform="matrix(0.05,0,0,0.05,125.35000000000001,0)" xlink:href="#H"/><use transform="matrix(0.05,0,0,0.05,129.3,0)" xlink:href="#aA"/><use transform="matrix(0.05,0,0,0.05,134.3,0)" xlink:href="#S"/><use transform="matrix(0.05,0,0,0.05,143.3,0)" xlink:href="#as"/><use transform="matrix(0.05,0,0,0.05,149.25,0)" xlink:href="#at"/></g><g id="x"><use transform="matrix(0.05,0,0,0.05,0,0)" xlink:href="#an"/><use transform="matrix(0.05,0,0,0.05,10.5,0)" xlink:href="#ap"/><use transform="matrix(0.05,0,0,0.05,20.5,0)" xlink:href="#aJ"/><use transform="matrix(0.05,0,0,0.05,29.5,0)" xlink:href="#ap"/><use transform="matrix(0.05,0,0,0.05,39.5,0)" xlink:href="#N"/><use transform="matrix(0.05,0,0,0.05,48.5,0)" xlink:href="#L"/><use transform="matrix(0.05,0,0,0.05,58.5,0)" xlink:href="#I"/><use transform="matrix(0.05,0,0,0.05,63.5,0)" xlink:href="#ap"/><use transform="matrix(0.05,0,0,0.05,73.5,0)" xlink:href="#az"/><use transform="matrix(0.05,0,0,0.05,86.45,0)" xlink:href="#ap"/><use transform="matrix(0.05,0,0,0.05,96.45,0)" xlink:href="#F"/><use transform="matrix(0.05,0,0,0.05,106.45,0)" xlink:href="#I"/><use transform="matrix(0.05,0,0,0.05,111.45,0)" xlink:href="#H"/><use transform="matrix(0.05,0,0,0.05,115.4,0)" xlink:href="#Q"/><use transform="matrix(0.05,0,0,0.05,125.4,0)" xlink:href="#aB"/><use transform="matrix(0.05,0,0,0.05,135.4,0)" xlink:href="#as"/><use transform="matrix(0.05,0,0,0.05,141.35,0)" xlink:href="#at"/></g><g id="y"><use transform="matrix(0.05,0,0,0.05,0,0)" xlink:href="#ai"/><use transform="matrix(0.05,0,0,0.05,12.950000000000001,0)" xlink:href="#aj"/><use transform="matrix(0.05,0,0,0.05,23.900000000000002,0)" xlink:href="#V"/><use transform="matrix(0.05,0,0,0.05,34.85,0)" xlink:href="#Z"/><use transform="matrix(0.05,0,0,0.05,39.85,0)" xlink:href="#ae"/><use transform="matrix(0.05,0,0,0.05,49.85,0)" xlink:href="#ak"/><use transform="matrix(0.05,0,0,0.05,59.85,0)" xlink:href="#aC"/><use transform="matrix(0.05,0,0,0.05,71.85,0)" xlink:href="#aj"/><use transform="matrix(0.05,0,0,0.05,82.8,0)" xlink:href="#ac"/><use transform="matrix(0.05,0,0,0.05,93.75,0)" xlink:href="#aa"/><use transform="matrix(0.05,0,0,0.05,99.7,0)" xlink:href="#W"/><use transform="matrix(0.05,0,0,0.05,110.65,0)" xlink:href="#V"/><use transform="matrix(0.05,0,0,0.05,121.60000000000001,0)" xlink:href="#aD"/><use transform="matrix(0.05,0,0,0.05,135.60000000000002,0)" xlink:href="#ah"/></g><path fill="#333" d="M115-194c55 1 70 41 70 98S169 2 115 4C84 4 66-9 55-30l1 105H24l-1-265h31l2 30c10-21 28-34 59-34zm-8 174c40 0 45-34 45-75s-6-73-45-74c-42 0-51 32-51 76 0 43 10 73 51 73" id="aK"/><g id="z"><use transform="matrix(0.05,0,0,0.05,0,0)" xlink:href="#ay"/><use transform="matrix(0.05,0,0,0.05,12.950000000000001,0)" xlink:href="#H"/><use transform="matrix(0.05,0,0,0.05,16.900000000000002,0)" xlink:href="#ax"/><use transform="matrix(0.05,0,0,0.05,25.900000000000002,0)" xlink:href="#aK"/><use transform="matrix(0.05,0,0,0.05,35.900000000000006,0)" xlink:href="#G"/><use transform="matrix(0.05,0,0,0.05,39.85000000000001,0)" xlink:href="#F"/><use transform="matrix(0.05,0,0,0.05,49.85000000000001,0)" xlink:href="#S"/></g><path fill="#333" d="M108 0H70L1-190h34L89-25l56-165h34" id="aL"/><g id="A"><use transform="matrix(0.05,0,0,0.05,0,0)" xlink:href="#K"/><use transform="matrix(0.05,0,0,0.05,12,0)" xlink:href="#N"/><use transform="matrix(0.05,0,0,0.05,21,0)" xlink:href="#I"/><use transform="matrix(0.05,0,0,0.05,26,0)" xlink:href="#H"/><use transform="matrix(0.05,0,0,0.05,29.950000000000003,0)" xlink:href="#aL"/><use transform="matrix(0.05,0,0,0.05,38.95,0)" xlink:href="#F"/><use transform="matrix(0.05,0,0,0.05,48.95,0)" xlink:href="#I"/><use transform="matrix(0.05,0,0,0.05,53.95,0)" xlink:href="#ap"/></g><path fill="#333" d="M143 4C61 4 22-44 18-125c-5-107 100-154 193-111 17 8 29 25 37 43l-32 9c-13-25-37-40-76-40-61 0-88 39-88 99 0 61 29 100 91 101 35 0 62-11 79-27v-45h-74v-28h105v86C228-13 192 4 143 4" id="aM"/><g id="B"><use transform="matrix(0.05,0,0,0.05,0,0)" xlink:href="#aM"/><use transform="matrix(0.05,0,0,0.05,14,0)" xlink:href="#ap"/><use transform="matrix(0.05,0,0,0.05,24,0)" xlink:href="#Q"/><use transform="matrix(0.05,0,0,0.05,34,0)" xlink:href="#ap"/><use transform="matrix(0.05,0,0,0.05,44,0)" xlink:href="#R"/><use transform="matrix(0.05,0,0,0.05,49.95,0)" xlink:href="#F"/><use transform="matrix(0.05,0,0,0.05,59.95,0)" xlink:href="#I"/><use transform="matrix(0.05,0,0,0.05,64.95,0)" xlink:href="#ap"/></g></defs></g></svg>