<svg xmlns="http://www.w3.org/2000/svg" xmlns:xlink="http://www.w3.org/1999/xlink" xmlns:lucid="lucid" width="1722" height="1550"><g transform="translate(-4346 -1914)" lucid:page-tab-id="HWEp-vi-RSFO"><path d="M5385.3 2026h533v1354h-1440V2000h864zm-907 0h907" stroke="#000" stroke-width="2" fill="#fff"/><use xlink:href="#a" transform="matrix(1,0,0,1,4486.2883553621505,2000) translate(360.6 16.6)"/><path d="M4336 1326v736a12 12 0 0 0 12 12h652.12" stroke="#635dff" stroke-width="4" fill="none"/><path d="M4338 1326.05h-4V1324h4zM5002.12 2076h-2.05v-4h2.05z" stroke="#635dff" stroke-width=".05" fill="#635dff"/><use xlink:href="#b" transform="matrix(1,0,0,1,4344,1694.310385689135) translate(0 14.4)"/><use xlink:href="#b" transform="matrix(1,0,0,1,4997.122648522315,2048.3999999999996) translate(0 14.4)"/><path d="M4709.3 2625.08h180v117h-180z" stroke="#333" stroke-width="2" fill="#7030a0"/><path d="M4709.3 2684.28h180" stroke="#333" stroke-width="2" fill="none"/><use xlink:href="#c" transform="matrix(1,0,0,1,4717.2883553621505,2633.081198318332) translate(34.525 14.799999999999999)"/><use xlink:href="#d" transform="matrix(1,0,0,1,4717.2883553621505,2633.081198318332) translate(8.299999999999997 36.4)"/><path d="M5624.3 2720h260v117h-260z" stroke="#333" stroke-width="2" fill="#7030a0"/><path d="M5624.3 2779.2h260" stroke="#333" stroke-width="2" fill="none"/><use xlink:href="#c" transform="matrix(1,0,0,1,5632.2883553621505,2728) translate(74.525 14.799999999999999)"/><use xlink:href="#e" transform="matrix(1,0,0,1,5632.2883553621505,2728) translate(33.32500000000002 36.4)"/><path d="M5000.12 2128.92H4811.3a12 12 0 0 0-12 12v481.16" stroke="#000" stroke-width="4" fill="none"/><path d="M5002.12 2130.92h-2.05v-4h2.05zM4801.3 2624.08h-4v-2.05h4z" stroke="#000" stroke-width=".05"/><use xlink:href="#b" transform="matrix(1,0,0,1,4992.122648522315,2103.318801681668) translate(0 14.4)"/><use xlink:href="#b" transform="matrix(1,0,0,1,4807.2883553621505,2603.281198318332) translate(0 14.4)"/><path d="M5186.12 2128.92h556.17a12 12 0 0 1 12 12V2717" stroke="#000" stroke-width="4" fill="none"/><path d="M5186.17 2130.92h-2.05v-4h2.05zM5756.3 2719h-4v-2.05h4z" stroke="#000" stroke-width=".05"/><use xlink:href="#b" transform="matrix(1,0,0,1,5184.122648522315,2132.918801681668) translate(0 14.4)"/><use xlink:href="#b" transform="matrix(1,0,0,1,5762.2883553621505,2698.2000000000003) translate(0 14.4)"/><path d="M4709.3 2898.5h180v120h-180z" stroke="#333" stroke-width="2" fill="#ff7b7b"/><path d="M4709.3 2957.7h180" stroke="#333" stroke-width="2" fill="none"/><use xlink:href="#f" transform="matrix(1,0,0,1,4717.2883553621505,2906.5) translate(45.05 14.799999999999999)"/><use xlink:href="#g" transform="matrix(1,0,0,1,4717.2883553621505,2906.5) translate(49.099999999999994 36.4)"/><use xlink:href="#h" transform="matrix(1,0,0,1,4721.2883553621505,2965.7) translate(0 26.1)"/><path d="M4799.3 2745.08v150.42" stroke="#000" stroke-width="4" fill="none"/><path d="M4801.3 2745.13h-4v-2.05h4zM4801.3 2897.5h-4v-2.05h4z" stroke="#000" stroke-width=".05"/><use xlink:href="#b" transform="matrix(1,0,0,1,4781.2883553621505,2742.281198318332) translate(0 14.4)"/><use xlink:href="#b" transform="matrix(1,0,0,1,4807.2883553621505,2876.7) translate(0 14.4)"/><path d="M5653.3 2955.42h200v120h-200z" stroke="#333" stroke-width="2" fill="#ff7b7b"/><path d="M5653.3 3014.62h200" stroke="#333" stroke-width="2" fill="none"/><use xlink:href="#f" transform="matrix(1,0,0,1,5661.30988452091,2963.418801681668) translate(55.05 14.799999999999999)"/><use xlink:href="#i" transform="matrix(1,0,0,1,5661.30988452091,2963.418801681668) translate(55.074999999999996 36.4)"/><use xlink:href="#j" transform="matrix(1,0,0,1,5665.30988452091,3022.6188016816677) translate(0 26.1)"/><path d="M5753.3 2840v112.42" stroke="#000" stroke-width="4" fill="none"/><path d="M5755.3 2840.05h-4V2838h4zM5755.3 2954.42h-4v-2.05h4z" stroke="#000" stroke-width=".05"/><use xlink:href="#b" transform="matrix(1,0,0,1,5735.30988452091,2837.2) translate(0 14.4)"/><use xlink:href="#b" transform="matrix(1,0,0,1,5761.30988452091,2933.6188016816677) translate(0 14.4)"/><path d="M5611.02 3200h278.57v117H5611z" stroke="#333" stroke-width="2" fill="#7030a0"/><path d="M5611.02 3259.2h278.57" stroke="#333" stroke-width="2" fill="none"/><use xlink:href="#c" transform="matrix(1,0,0,1,5619.016450208821,3208) translate(84.025 14.799999999999999)"/><use xlink:href="#k" transform="matrix(1,0,0,1,5619.016450208821,3208) translate(24.750000000000014 36.4)"/><use xlink:href="#l" transform="matrix(1,0,0,1,5623.016450208821,3267.2) translate(0 24.6)"/><use xlink:href="#m" transform="matrix(1,0,0,1,5623.016450208821,3267.2) translate(93.45 24.6)"/><path d="M5753.3 3078.42V3197" stroke="#000" stroke-width="4" fill="none"/><path d="M5755.3 3078.47h-4v-2.05h4zM5755.3 3199h-4v-2.05h4z" stroke="#000" stroke-width=".05"/><use xlink:href="#b" transform="matrix(1,0,0,1,5735.30988452091,3075.6188016816677) translate(0 14.4)"/><use xlink:href="#b" transform="matrix(1,0,0,1,5761.309884520911,3178.2) translate(0 14.4)"/><path d="M4381.83 1252H4548a12 12 0 0 1 12 12v644a12 12 0 0 0 12 12h2442.26a12 12 0 0 1 12 12v194.42a12 12 0 0 0 12 12h35" stroke="#635dff" stroke-width="4" fill="none"/><path d="M4381.9 1254h-2.07v-4h2.06zM7075.26 2140.42h-2.05v-4h2.06z" stroke="#635dff" stroke-width=".05" fill="#635dff"/><use xlink:href="#b" transform="matrix(1,0,0,1,4379.834293160165,1256.0000000000002) translate(0 14.4)"/><use xlink:href="#b" transform="matrix(1,0,0,1,7065.257582435864,2112.8188016816675) translate(0 14.4)"/><path d="M4968.12 2283h230v142h-230z" stroke="#333" stroke-width="2" fill="#ff7b7b"/><path d="M4968.12 2342.2h230" stroke="#333" stroke-width="2" fill="none"/><use xlink:href="#f" transform="matrix(1,0,0,1,4976.122648522315,2291) translate(70.05 14.799999999999999)"/><use xlink:href="#n" transform="matrix(1,0,0,1,4976.122648522315,2291) translate(17.825000000000003 36.4)"/><use xlink:href="#o" transform="matrix(1,0,0,1,4980.122648522315,2350.2) translate(0 26.299999999999997)"/><use xlink:href="#p" transform="matrix(1,0,0,1,4980.122648522315,2350.2) translate(0 47.9)"/><path d="M5429.3 2305h195v98h-195z" stroke="#333" stroke-width="2" fill="#e81313"/><path d="M5429.3 2342.6h195" stroke="#333" stroke-width="2" fill="none"/><use xlink:href="#q" transform="matrix(1,0,0,1,5437.2883553621505,2313) translate(5.825000000000003 14.6)"/><use xlink:href="#r" transform="matrix(1,0,0,1,5441.2883553621505,2350.6) translate(0 26.1)"/><path d="M4983.12 2625.08h200v120h-200z" stroke="#333" stroke-width="2" fill="#ff7b7b"/><path d="M4983.12 2684.28h200" stroke="#333" stroke-width="2" fill="none"/><use xlink:href="#f" transform="matrix(1,0,0,1,4991.122648522315,2633.081198318332) translate(55.05 14.799999999999999)"/><use xlink:href="#s" transform="matrix(1,0,0,1,4991.122648522315,2633.081198318332) translate(-4.2749999999999915 36.4)"/><use xlink:href="#t" transform="matrix(1,0,0,1,4995.122648522315,2692.281198318332) translate(0 26.1)"/><path d="M5083.12 2428v194.08" stroke="#000" stroke-width="4" fill="none"/><path d="M5085.12 2428.05h-4V2426h4z" stroke="#000" stroke-width=".05"/><path d="M5083.12 2622.03v2.05" stroke="#000" stroke-width="4" fill="none"/><use xlink:href="#b" transform="matrix(1,0,0,1,5065.122648522315,2425.2) translate(0 14.4)"/><use xlink:href="#b" transform="matrix(1,0,0,1,5091.122648522315,2613.281198318332) translate(0 14.4)"/><path d="M5027.95 2748.08v198.42a12 12 0 0 1-12 12H4892.3" stroke="#000" stroke-width="4" fill="none"/><path d="M5029.95 2748.13h-4v-2.05h4zM4892.34 2960.5h-2.05v-4h2.04z" stroke="#000" stroke-width=".05"/><use xlink:href="#b" transform="matrix(1,0,0,1,5009.955022028817,2745.281198318332) translate(0 14.4)"/><use xlink:href="#b" transform="matrix(1,0,0,1,4890.2883553621505,2962.5) translate(0 14.4)"/><path d="M5650.3 3015.42H5152.7a12 12 0 0 1-12-12v-255.34" stroke="#000" stroke-width="4" fill="none"/><path d="M5652.3 3017.42h-2.04v-4h2.05zM5142.68 2748.13h-4v-2.05h4z" stroke="#000" stroke-width=".05"/><use xlink:href="#b" transform="matrix(1,0,0,1,5642.30988452091,2989.818801681668) translate(0 14.4)"/><use xlink:href="#b" transform="matrix(1,0,0,1,5122.682317681887,2745.2811983183324) translate(0 14.4)"/><path d="M5201.12 2354h225.17" stroke="#000" stroke-width="4" fill="none"/><path d="M5201.17 2356h-2.05v-4h2.05zM5428.3 2356h-2.06v-4h2.05z" stroke="#000" stroke-width=".05"/><use xlink:href="#b" transform="matrix(1,0,0,1,5199.122648522315,2357.9999999999995) translate(0 14.4)"/><use xlink:href="#b" transform="matrix(1,0,0,1,5418.2883553621505,2328.3999999999996) translate(0 14.4)"/><path d="M4660 3123.08h278.58v117H4660z" stroke="#333" stroke-width="2" fill="#7030a0"/><path d="M4660 3182.28h278.58" stroke="#333" stroke-width="2" fill="none"/><use xlink:href="#c" transform="matrix(1,0,0,1,4668,3131.081198318332) translate(84.025 14.799999999999999)"/><use xlink:href="#u" transform="matrix(1,0,0,1,4668,3131.081198318332) translate(29.67500000000001 36.4)"/><use xlink:href="#l" transform="matrix(1,0,0,1,4672,3190.281198318332) translate(0 24.6)"/><use xlink:href="#m" transform="matrix(1,0,0,1,4672,3190.281198318332) translate(93.45 24.6)"/><path d="M4802.3 3021.5v98.58" stroke="#000" stroke-width="4" fill="none"/><path d="M4804.3 3021.55h-4v-2.05h4zM4804.3 3122.08h-4v-2.05h4z" stroke="#000" stroke-width=".05"/><use xlink:href="#b" transform="matrix(1,0,0,1,4784.29343431209,3018.7) translate(0 14.4)"/><use xlink:href="#b" transform="matrix(1,0,0,1,4810.29343431209,3101.281198318332) translate(0 14.4)"/><path d="M4740 2383v-80h40v80z" stroke="#000" stroke-opacity="0" stroke-width="2" fill="#fff" fill-opacity="0"/><use xlink:href="#v" transform="matrix(6.123233995736766e-17,-1,1,6.123233995736766e-17,4745,2378) translate(5.574999999999996 18.6)"/><path d="M5267.58 2315h80v40h-80z" stroke="#000" stroke-opacity="0" stroke-width="2" fill="#fff" fill-opacity="0"/><use xlink:href="#w" transform="matrix(1,0,0,1,5272.576710724301,2320) translate(5.024999999999999 18.6)"/><path d="M5003.12 2070.42h180v117h-180z" stroke="#333" stroke-width="2" fill="#7030a0"/><path d="M5003.12 2129.62h180" stroke="#333" stroke-width="2" fill="none"/><use xlink:href="#x" transform="matrix(1,0,0,1,5011.122648522315,2078.418801681668) translate(34.525 14.799999999999999)"/><use xlink:href="#y" transform="matrix(1,0,0,1,5011.122648522315,2078.418801681668) translate(18.124999999999993 36.4)"/><path d="M5810.96 2303v80h-40v-80z" stroke="#000" stroke-opacity="0" stroke-width="2" fill="#fff" fill-opacity="0"/><use xlink:href="#v" transform="matrix(6.123233995736766e-17,1,-1,6.123233995736766e-17,5805.956941682482,2308) translate(5.574999999999996 18.6)"/><path d="M5093.12 2190.42V2280" stroke="#000" stroke-width="4" fill="none"/><path d="M5095.12 2190.47h-4v-2.05h4zM5095.12 2282h-4v-2.05h4z" stroke="#000" stroke-width=".05"/><use xlink:href="#b" transform="matrix(1,0,0,1,5075.122648522315,2187.6188016816677) translate(0 14.4)"/><use xlink:href="#b" transform="matrix(1,0,0,1,5101.122648522315,2261.2) translate(0 14.4)"/><path d="M5060 2284.5v-80h40v80z" stroke="#000" stroke-opacity="0" stroke-width="2" fill="#fff" fill-opacity="0"/><use xlink:href="#z" transform="matrix(6.123233995736766e-17,-1,1,6.123233995736766e-17,5065,2279.5) translate(3.0249999999999986 18.6)"/><path d="M5040 2565.04v-80h40v80z" stroke="#000" stroke-opacity="0" stroke-width="2" fill="#fff" fill-opacity="0"/><use xlink:href="#z" transform="matrix(6.123233995736766e-17,-1,1,6.123233995736766e-17,5045,2560.040599159166) translate(3.0249999999999986 18.6)"/><path d="M4980 2905.12v-80h40v80z" stroke="#000" stroke-opacity="0" stroke-width="2" fill="#fff" fill-opacity="0"/><g><use xlink:href="#z" transform="matrix(6.123233995736766e-17,-1,1,6.123233995736766e-17,4985,2900.121797477498) translate(3.0249999999999986 18.6)"/></g><g><path d="M4735.3 2865.52v-80h40v80z" stroke="#000" stroke-opacity="0" stroke-width="2" fill="#fff" fill-opacity="0"/></g><g><use xlink:href="#z" transform="matrix(6.123233995736766e-17,-1,1,6.123233995736766e-17,4740.313698304124,2860.515643096478) translate(3.0249999999999986 18.6)"/></g><path d="M5280 2960h80v40h-80z" stroke="#000" stroke-opacity="0" stroke-width="2" fill="#fff" fill-opacity="0"/><g><use xlink:href="#z" transform="matrix(1,0,0,1,5285,2965) translate(3.0249999999999986 18.6)"/></g><g><path d="M5700 2936.2v-80h40v80z" stroke="#000" stroke-opacity="0" stroke-width="2" fill="#fff" fill-opacity="0"/></g><g><use xlink:href="#z" transform="matrix(6.123233995736766e-17,-1,1,6.123233995736766e-17,5705,2931.209400840835) translate(3.0249999999999986 18.6)"/></g><g><path d="M4740 3120v-80h40v80z" stroke="#000" stroke-opacity="0" stroke-width="2" fill="#fff" fill-opacity="0"/></g><g><use xlink:href="#v" transform="matrix(6.123233995736766e-17,-1,1,6.123233995736766e-17,4745,3115) translate(5.574999999999996 18.6)"/></g><g><path d="M5700 3177.7v-80h40v80z" stroke="#000" stroke-opacity="0" stroke-width="2" fill="#fff" fill-opacity="0"/></g><g><use xlink:href="#v" transform="matrix(6.123233995736766e-17,-1,1,6.123233995736766e-17,5705,3172.709400840835) translate(5.574999999999996 18.6)"/></g><defs><path fill="#333" d="M233-177c-1 41-23 64-60 70L243 0h-38l-65-103H63V0H30v-248c88 3 205-21 203 71zM63-129c60-2 137 13 137-47 0-61-80-42-137-45v92" id="A"/><path fill="#333" d="M24-231v-30h32v30H24zM24 0v-190h32V0H24" id="B"/><path fill="#333" d="M135-143c-3-34-86-38-87 0 15 53 115 12 119 90S17 21 10-45l28-5c4 36 97 45 98 0-10-56-113-15-118-90-4-57 82-63 122-42 12 7 21 19 24 35" id="C"/><path fill="#333" d="M96-169c-40 0-48 33-48 73s9 75 48 75c24 0 41-14 43-38l32 2c-6 37-31 61-74 61-59 0-76-41-82-99-10-93 101-131 147-64 4 7 5 14 7 22l-32 3c-4-21-16-35-41-35" id="D"/><path fill="#333" d="M141-36C126-15 110 5 73 4 37 3 15-17 15-53c-1-64 63-63 125-63 3-35-9-54-41-54-24 1-41 7-42 31l-33-3c5-37 33-52 76-52 45 0 72 20 72 64v82c-1 20 7 32 28 27v20c-31 9-61-2-59-35zM48-53c0 20 12 33 32 33 41-3 63-29 60-74-43 2-92-5-92 41" id="E"/><path fill="#333" d="M24 0v-261h32V0H24" id="F"/><path fill="#333" d="M85-194c31 0 48 13 60 33l-1-100h32l1 261h-30c-2-10 0-23-3-31C134-8 116 4 85 4 32 4 16-35 15-94c0-66 23-100 70-100zm9 24c-40 0-46 34-46 75 0 40 6 74 45 74 42 0 51-32 51-76 0-42-9-74-50-73" id="G"/><path fill="#333" d="M210-169c-67 3-38 105-44 169h-31v-121c0-29-5-50-35-48C34-165 62-65 56 0H25l-1-190h30c1 10-1 24 2 32 10-44 99-50 107 0 11-21 27-35 58-36 85-2 47 119 55 194h-31v-121c0-29-5-49-35-48" id="H"/><path fill="#333" d="M100-194c63 0 86 42 84 106H49c0 40 14 67 53 68 26 1 43-12 49-29l28 8c-11 28-37 45-77 45C44 4 14-33 15-96c1-61 26-98 85-98zm52 81c6-60-76-77-97-28-3 7-6 17-6 28h103" id="I"/><path fill="#333" d="M117-194c89-4 53 116 60 194h-32v-121c0-31-8-49-39-48C34-167 62-67 57 0H25l-1-190h30c1 10-1 24 2 32 11-22 29-35 61-36" id="J"/><path fill="#333" d="M59-47c-2 24 18 29 38 22v24C64 9 27 4 27-40v-127H5v-23h24l9-43h21v43h35v23H59v120" id="K"/><path fill="#333" d="M100-194c62-1 85 37 85 99 1 63-27 99-86 99S16-35 15-95c0-66 28-99 85-99zM99-20c44 1 53-31 53-75 0-43-8-75-51-75s-53 32-53 75 10 74 51 75" id="L"/><g id="a"><use transform="matrix(0.05,0,0,0.05,0,0)" xlink:href="#A"/><use transform="matrix(0.05,0,0,0.05,12.950000000000001,0)" xlink:href="#B"/><use transform="matrix(0.05,0,0,0.05,16.900000000000002,0)" xlink:href="#C"/><use transform="matrix(0.05,0,0,0.05,25.900000000000002,0)" xlink:href="#D"/><use transform="matrix(0.05,0,0,0.05,34.900000000000006,0)" xlink:href="#E"/><use transform="matrix(0.05,0,0,0.05,44.900000000000006,0)" xlink:href="#F"/><use transform="matrix(0.05,0,0,0.05,48.85000000000001,0)" xlink:href="#G"/><use transform="matrix(0.05,0,0,0.05,58.85,0)" xlink:href="#E"/><use transform="matrix(0.05,0,0,0.05,68.85000000000001,0)" xlink:href="#H"/><use transform="matrix(0.05,0,0,0.05,83.80000000000001,0)" xlink:href="#I"/><use transform="matrix(0.05,0,0,0.05,93.80000000000001,0)" xlink:href="#J"/><use transform="matrix(0.05,0,0,0.05,103.80000000000001,0)" xlink:href="#K"/><use transform="matrix(0.05,0,0,0.05,108.80000000000001,0)" xlink:href="#L"/></g><path d="M27 0v-27h64v-190l-56 39v-29l58-41h29v221h61V0H27" id="M"/><use transform="matrix(0.05,0,0,0.05,0,0)" xlink:href="#M" id="b"/><path fill="#333" d="M156-25L96-89v-11l60-65h29v5l-59 66 60 64v5h-30zm-82 0L15-89v-11l59-65h29v5L44-94l59 64v5H74" id="N"/><path fill="#333" d="M115-194c53 0 69 39 70 98 0 66-23 100-70 100C84 3 66-7 56-30L54 0H23l1-261h32v101c10-23 28-34 59-34zm-8 174c40 0 45-34 45-75 0-40-5-75-45-74-42 0-51 32-51 76 0 43 10 73 51 73" id="O"/><path fill="#333" d="M84 4C-5 8 30-112 23-190h32v120c0 31 7 50 39 49 72-2 45-101 50-169h31l1 190h-30c-1-10 1-25-2-33-11 22-28 36-60 37" id="P"/><path fill="#333" d="M114-163C36-179 61-72 57 0H25l-1-190h30c1 12-1 29 2 39 6-27 23-49 58-41v29" id="Q"/><path fill="#333" d="M179-190L93 31C79 59 56 82 12 73V49c39 6 53-20 64-50L1-190h34L92-34l54-156h33" id="R"/><path fill="#333" d="M126-25H97v-5l59-64-59-66v-5h29l60 65v11zm-82 0H15v-5l59-64-59-66v-5h29l59 65v11" id="S"/><g id="c"><use transform="matrix(0.05,0,0,0.05,0,0)" xlink:href="#N"/><use transform="matrix(0.05,0,0,0.05,10,0)" xlink:href="#O"/><use transform="matrix(0.05,0,0,0.05,20,0)" xlink:href="#L"/><use transform="matrix(0.05,0,0,0.05,30,0)" xlink:href="#P"/><use transform="matrix(0.05,0,0,0.05,40,0)" xlink:href="#J"/><use transform="matrix(0.05,0,0,0.05,50,0)" xlink:href="#G"/><use transform="matrix(0.05,0,0,0.05,60,0)" xlink:href="#E"/><use transform="matrix(0.05,0,0,0.05,70,0)" xlink:href="#Q"/><use transform="matrix(0.05,0,0,0.05,75.95,0)" xlink:href="#R"/><use transform="matrix(0.05,0,0,0.05,84.95,0)" xlink:href="#S"/></g><path fill="#333" d="M238-95c0 69-44 99-111 99C63 4 22-25 22-93v-155h51v151c-1 38 19 59 55 60 90 1 49-130 58-211h52v153" id="T"/><path fill="#333" d="M135-194c53 0 70 44 70 98 0 56-19 98-73 100-31 1-45-17-59-34 3 33 2 69 2 105H25l-1-265h48c2 10 0 23 3 31 11-24 29-35 60-35zM114-30c33 0 39-31 40-66 0-38-9-64-40-64-56 0-55 130 0 130" id="U"/><path fill="#333" d="M186 0v-106H76V0H24v-248h52v99h110v-99h50V0h-50" id="V"/><path fill="#333" d="M185-48c-13 30-37 53-82 52C43 2 14-33 14-96s30-98 90-98c62 0 83 45 84 108H66c0 31 8 55 39 56 18 0 30-7 34-22zm-45-69c5-46-57-63-70-21-2 6-4 13-4 21h74" id="W"/><path fill="#333" d="M133-34C117-15 103 5 69 4 32 3 11-16 11-54c-1-60 55-63 116-61 1-26-3-47-28-47-18 1-26 9-28 27l-52-2c7-38 36-58 82-57s74 22 75 68l1 82c-1 14 12 18 25 15v27c-30 8-71 5-69-32zm-48 3c29 0 43-24 42-57-32 0-66-3-65 30 0 17 8 27 23 27" id="X"/><path fill="#333" d="M115-3C79 11 28 4 28-45v-112H4v-33h27l15-45h31v45h36v33H77v99c-1 23 16 31 38 25v30" id="Y"/><path fill="#333" d="M25-224v-37h50v37H25zM25 0v-190h50V0H25" id="Z"/><path fill="#333" d="M135-194c87-1 58 113 63 194h-50c-7-57 23-157-34-157-59 0-34 97-39 157H25l-1-190h47c2 12-1 28 3 38 12-26 28-41 61-42" id="aa"/><path fill="#333" d="M195-6C206 82 75 100 31 46c-4-6-6-13-8-21l49-6c3 16 16 24 34 25 40 0 42-37 40-79-11 22-30 35-61 35-53 0-70-43-70-97 0-56 18-96 73-97 30 0 46 14 59 34l2-30h47zm-90-29c32 0 41-27 41-63 0-35-9-62-40-62-32 0-39 29-40 63 0 36 9 62 39 62" id="ab"/><path fill="#333" d="M182-130c37 4 62 22 62 59C244 23 116-4 24 0v-248c84 5 203-23 205 63 0 31-19 50-47 55zM76-148c40-3 101 13 101-30 0-44-60-28-101-31v61zm0 110c48-3 116 14 116-37 0-48-69-32-116-35v72" id="ac"/><path fill="#333" d="M85 4C-2 5 27-109 22-190h50c7 57-23 150 33 157 60-5 35-97 40-157h50l1 190h-47c-2-12 1-28-3-38-12 25-28 42-61 42" id="ad"/><path fill="#333" d="M110-194c64 0 96 36 96 99 0 64-35 99-97 99-61 0-95-36-95-99 0-62 34-99 96-99zm-1 164c35 0 45-28 45-65 0-40-10-65-43-65-34 0-45 26-45 65 0 36 10 65 43 65" id="ae"/><g id="d"><use transform="matrix(0.05,0,0,0.05,0,0)" xlink:href="#T"/><use transform="matrix(0.05,0,0,0.05,12.950000000000001,0)" xlink:href="#U"/><use transform="matrix(0.05,0,0,0.05,23.900000000000002,0)" xlink:href="#V"/><use transform="matrix(0.05,0,0,0.05,36.85,0)" xlink:href="#W"/><use transform="matrix(0.05,0,0,0.05,46.85,0)" xlink:href="#X"/><use transform="matrix(0.05,0,0,0.05,56.85,0)" xlink:href="#Y"/><use transform="matrix(0.05,0,0,0.05,62.800000000000004,0)" xlink:href="#Z"/><use transform="matrix(0.05,0,0,0.05,67.80000000000001,0)" xlink:href="#aa"/><use transform="matrix(0.05,0,0,0.05,78.75000000000001,0)" xlink:href="#ab"/><use transform="matrix(0.05,0,0,0.05,89.70000000000002,0)" xlink:href="#ac"/><use transform="matrix(0.05,0,0,0.05,102.65000000000003,0)" xlink:href="#ad"/><use transform="matrix(0.05,0,0,0.05,113.60000000000002,0)" xlink:href="#Y"/><use transform="matrix(0.05,0,0,0.05,119.55000000000003,0)" xlink:href="#Y"/><use transform="matrix(0.05,0,0,0.05,125.50000000000003,0)" xlink:href="#ae"/><use transform="matrix(0.05,0,0,0.05,136.45000000000002,0)" xlink:href="#aa"/></g><path fill="#333" d="M24-248c120-7 223 5 221 122C244-46 201 0 124 0H24v-248zM76-40c74 7 117-18 117-86 0-67-45-88-117-82v168" id="af"/><path fill="#333" d="M231 0h-52l-39-155L100 0H48L-1-190h46L77-45c9-52 24-97 36-145h53l37 145 32-145h46" id="ag"/><g id="e"><use transform="matrix(0.05,0,0,0.05,0,0)" xlink:href="#af"/><use transform="matrix(0.05,0,0,0.05,12.950000000000001,0)" xlink:href="#ae"/><use transform="matrix(0.05,0,0,0.05,23.900000000000002,0)" xlink:href="#ag"/><use transform="matrix(0.05,0,0,0.05,37.900000000000006,0)" xlink:href="#aa"/><use transform="matrix(0.05,0,0,0.05,48.85000000000001,0)" xlink:href="#V"/><use transform="matrix(0.05,0,0,0.05,61.80000000000001,0)" xlink:href="#W"/><use transform="matrix(0.05,0,0,0.05,71.80000000000001,0)" xlink:href="#X"/><use transform="matrix(0.05,0,0,0.05,81.80000000000001,0)" xlink:href="#Y"/><use transform="matrix(0.05,0,0,0.05,87.75000000000001,0)" xlink:href="#Z"/><use transform="matrix(0.05,0,0,0.05,92.75000000000001,0)" xlink:href="#aa"/><use transform="matrix(0.05,0,0,0.05,103.7,0)" xlink:href="#ab"/><use transform="matrix(0.05,0,0,0.05,114.65000000000003,0)" xlink:href="#Z"/><use transform="matrix(0.05,0,0,0.05,119.65000000000003,0)" xlink:href="#ac"/><use transform="matrix(0.05,0,0,0.05,132.60000000000002,0)" xlink:href="#ad"/><use transform="matrix(0.05,0,0,0.05,143.55,0)" xlink:href="#Y"/><use transform="matrix(0.05,0,0,0.05,149.5,0)" xlink:href="#Y"/><use transform="matrix(0.05,0,0,0.05,155.45,0)" xlink:href="#ae"/><use transform="matrix(0.05,0,0,0.05,166.39999999999998,0)" xlink:href="#aa"/></g><g id="f"><use transform="matrix(0.05,0,0,0.05,0,0)" xlink:href="#N"/><use transform="matrix(0.05,0,0,0.05,10,0)" xlink:href="#D"/><use transform="matrix(0.05,0,0,0.05,19,0)" xlink:href="#L"/><use transform="matrix(0.05,0,0,0.05,29,0)" xlink:href="#J"/><use transform="matrix(0.05,0,0,0.05,39,0)" xlink:href="#K"/><use transform="matrix(0.05,0,0,0.05,44,0)" xlink:href="#Q"/><use transform="matrix(0.05,0,0,0.05,49.95,0)" xlink:href="#L"/><use transform="matrix(0.05,0,0,0.05,59.95,0)" xlink:href="#F"/><use transform="matrix(0.05,0,0,0.05,63.900000000000006,0)" xlink:href="#S"/></g><g id="g"><use transform="matrix(0.05,0,0,0.05,0,0)" xlink:href="#V"/><use transform="matrix(0.05,0,0,0.05,12.950000000000001,0)" xlink:href="#W"/><use transform="matrix(0.05,0,0,0.05,22.950000000000003,0)" xlink:href="#X"/><use transform="matrix(0.05,0,0,0.05,32.95,0)" xlink:href="#Y"/><use transform="matrix(0.05,0,0,0.05,38.900000000000006,0)" xlink:href="#Z"/><use transform="matrix(0.05,0,0,0.05,43.900000000000006,0)" xlink:href="#aa"/><use transform="matrix(0.05,0,0,0.05,54.85,0)" xlink:href="#ab"/></g><path fill="#333" d="M118-107v75H92v-75H18v-26h74v-75h26v75h74v26h-74" id="ah"/><path fill="#333" d="M108 0H70L1-190h34L89-25l56-165h34" id="ai"/><path fill="#333" d="M197 0v-115H63V0H30v-248h33v105h134v-105h34V0h-34" id="aj"/><path fill="#333" d="M177-190C167-65 218 103 67 71c-23-6-38-20-44-43l32-5c15 47 100 32 89-28v-30C133-14 115 1 83 1 29 1 15-40 15-95c0-56 16-97 71-98 29-1 48 16 59 35 1-10 0-23 2-32h30zM94-22c36 0 50-32 50-73 0-42-14-75-50-75-39 0-46 34-46 75s6 73 46 73" id="ak"/><path fill="#333" d="M87 75C49 33 22-17 22-94c0-76 28-126 65-167h31c-38 41-64 92-64 168S80 34 118 75H87" id="al"/><path fill="#333" d="M33-261c38 41 65 92 65 168S71 34 33 75H2C39 34 66-17 66-93S39-220 2-261h31" id="am"/><g id="h"><use transform="matrix(0.05,0,0,0.05,0,0)" xlink:href="#ah"/><use transform="matrix(0.05,0,0,0.05,10.5,0)" xlink:href="#E"/><use transform="matrix(0.05,0,0,0.05,20.5,0)" xlink:href="#D"/><use transform="matrix(0.05,0,0,0.05,29.5,0)" xlink:href="#K"/><use transform="matrix(0.05,0,0,0.05,34.5,0)" xlink:href="#B"/><use transform="matrix(0.05,0,0,0.05,38.45,0)" xlink:href="#ai"/><use transform="matrix(0.05,0,0,0.05,47.45,0)" xlink:href="#E"/><use transform="matrix(0.05,0,0,0.05,57.45,0)" xlink:href="#K"/><use transform="matrix(0.05,0,0,0.05,62.45,0)" xlink:href="#I"/><use transform="matrix(0.05,0,0,0.05,72.45,0)" xlink:href="#aj"/><use transform="matrix(0.05,0,0,0.05,85.4,0)" xlink:href="#I"/><use transform="matrix(0.05,0,0,0.05,95.4,0)" xlink:href="#E"/><use transform="matrix(0.05,0,0,0.05,105.4,0)" xlink:href="#K"/><use transform="matrix(0.05,0,0,0.05,110.4,0)" xlink:href="#B"/><use transform="matrix(0.05,0,0,0.05,114.35000000000001,0)" xlink:href="#J"/><use transform="matrix(0.05,0,0,0.05,124.35000000000001,0)" xlink:href="#ak"/><use transform="matrix(0.05,0,0,0.05,134.35000000000002,0)" xlink:href="#al"/><use transform="matrix(0.05,0,0,0.05,140.3,0)" xlink:href="#am"/></g><path fill="#333" d="M76-208v77h127v40H76V0H24v-248h183v40H76" id="an"/><path fill="#333" d="M135-150c-39-12-60 13-60 57V0H25l-1-190h47c2 13-1 29 3 40 6-28 27-53 61-41v41" id="ao"/><path fill="#333" d="M12 0v-35l95-120H19v-35h142v35L67-36h103V0H12" id="ap"/><g id="i"><use transform="matrix(0.05,0,0,0.05,0,0)" xlink:href="#an"/><use transform="matrix(0.05,0,0,0.05,10.950000000000001,0)" xlink:href="#ao"/><use transform="matrix(0.05,0,0,0.05,17.950000000000003,0)" xlink:href="#W"/><use transform="matrix(0.05,0,0,0.05,27.950000000000003,0)" xlink:href="#W"/><use transform="matrix(0.05,0,0,0.05,37.95,0)" xlink:href="#ap"/><use transform="matrix(0.05,0,0,0.05,46.95,0)" xlink:href="#Z"/><use transform="matrix(0.05,0,0,0.05,51.95,0)" xlink:href="#aa"/><use transform="matrix(0.05,0,0,0.05,62.900000000000006,0)" xlink:href="#ab"/></g><path fill="#333" d="M63-220v92h138v28H63V0H30v-248h175v28H63" id="aq"/><path fill="#333" d="M9 0v-24l116-142H16v-24h144v24L44-24h123V0H9" id="ar"/><g id="j"><use transform="matrix(0.05,0,0,0.05,0,0)" xlink:href="#ah"/><use transform="matrix(0.05,0,0,0.05,10.5,0)" xlink:href="#E"/><use transform="matrix(0.05,0,0,0.05,20.5,0)" xlink:href="#D"/><use transform="matrix(0.05,0,0,0.05,29.5,0)" xlink:href="#K"/><use transform="matrix(0.05,0,0,0.05,34.5,0)" xlink:href="#B"/><use transform="matrix(0.05,0,0,0.05,38.45,0)" xlink:href="#ai"/><use transform="matrix(0.05,0,0,0.05,47.45,0)" xlink:href="#E"/><use transform="matrix(0.05,0,0,0.05,57.45,0)" xlink:href="#K"/><use transform="matrix(0.05,0,0,0.05,62.45,0)" xlink:href="#I"/><use transform="matrix(0.05,0,0,0.05,72.45,0)" xlink:href="#aq"/><use transform="matrix(0.05,0,0,0.05,83.4,0)" xlink:href="#Q"/><use transform="matrix(0.05,0,0,0.05,89.35000000000001,0)" xlink:href="#I"/><use transform="matrix(0.05,0,0,0.05,99.35000000000001,0)" xlink:href="#I"/><use transform="matrix(0.05,0,0,0.05,109.35000000000001,0)" xlink:href="#ar"/><use transform="matrix(0.05,0,0,0.05,118.35000000000001,0)" xlink:href="#B"/><use transform="matrix(0.05,0,0,0.05,122.30000000000001,0)" xlink:href="#J"/><use transform="matrix(0.05,0,0,0.05,132.3,0)" xlink:href="#ak"/><use transform="matrix(0.05,0,0,0.05,142.3,0)" xlink:href="#al"/><use transform="matrix(0.05,0,0,0.05,148.25,0)" xlink:href="#am"/></g><path fill="#333" d="M230 0l2-204L168 0h-37L68-204 70 0H24v-248h70l56 185 57-185h69V0h-46" id="as"/><path fill="#333" d="M137-138c1-29-70-34-71-4 15 46 118 7 119 86 1 83-164 76-172 9l43-7c4 19 20 25 44 25 33 8 57-30 24-41C81-84 22-81 20-136c-2-80 154-74 161-7" id="at"/><path fill="#333" d="M240-174c0 40-23 61-54 70L253 0h-59l-57-94H76V0H24v-248c93 4 217-23 216 74zM76-134c48-2 112 12 112-38 0-48-66-32-112-35v73" id="au"/><path fill="#333" d="M121-226c-27-7-43 5-38 36h38v33H83V0H34v-157H6v-33h28c-9-59 32-81 87-68v32" id="av"/><path fill="#333" d="M88-194c31-1 46 15 58 34l-1-101h50l1 261h-48c-2-10 0-23-3-31C134-8 116 4 84 4 32 4 16-41 15-95c0-56 19-97 73-99zm17 164c33 0 40-30 41-66 1-37-9-64-41-64s-38 30-39 65c0 43 13 65 39 65" id="aw"/><path fill="#333" d="M220-157c-53 9-28 100-34 157h-49v-107c1-27-5-49-29-50C55-147 81-57 75 0H25l-1-190h47c2 12-1 28 3 38 10-53 101-56 108 0 13-22 24-43 59-42 82 1 51 116 57 194h-49v-107c-1-25-5-48-29-50" id="ax"/><g id="k"><use transform="matrix(0.05,0,0,0.05,0,0)" xlink:href="#as"/><use transform="matrix(0.05,0,0,0.05,14.950000000000001,0)" xlink:href="#W"/><use transform="matrix(0.05,0,0,0.05,24.950000000000003,0)" xlink:href="#at"/><use transform="matrix(0.05,0,0,0.05,34.95,0)" xlink:href="#at"/><use transform="matrix(0.05,0,0,0.05,44.95,0)" xlink:href="#X"/><use transform="matrix(0.05,0,0,0.05,54.95,0)" xlink:href="#ab"/><use transform="matrix(0.05,0,0,0.05,65.9,0)" xlink:href="#W"/><use transform="matrix(0.05,0,0,0.05,75.9,0)" xlink:href="#au"/><use transform="matrix(0.05,0,0,0.05,88.85000000000001,0)" xlink:href="#X"/><use transform="matrix(0.05,0,0,0.05,98.85000000000001,0)" xlink:href="#av"/><use transform="matrix(0.05,0,0,0.05,104.80000000000001,0)" xlink:href="#av"/><use transform="matrix(0.05,0,0,0.05,110.75,0)" xlink:href="#ao"/><use transform="matrix(0.05,0,0,0.05,117.75,0)" xlink:href="#W"/><use transform="matrix(0.05,0,0,0.05,127.75,0)" xlink:href="#aw"/><use transform="matrix(0.05,0,0,0.05,138.70000000000002,0)" xlink:href="#aw"/><use transform="matrix(0.05,0,0,0.05,149.65,0)" xlink:href="#X"/><use transform="matrix(0.05,0,0,0.05,159.65,0)" xlink:href="#ax"/><use transform="matrix(0.05,0,0,0.05,175.65,0)" xlink:href="#W"/><use transform="matrix(0.05,0,0,0.05,185.65,0)" xlink:href="#aa"/><use transform="matrix(0.05,0,0,0.05,196.6,0)" xlink:href="#Y"/><use transform="matrix(0.05,0,0,0.05,202.54999999999998,0)" xlink:href="#ae"/></g><path fill="#333" d="M33-154v-36h34v36H33zM33 0v-36h34V0H33" id="ay"/><g id="l"><use transform="matrix(0.05,0,0,0.05,0,0)" xlink:href="#ah"/><use transform="matrix(0.05,0,0,0.05,10.5,0)" xlink:href="#H"/><use transform="matrix(0.05,0,0,0.05,25.450000000000003,0)" xlink:href="#I"/><use transform="matrix(0.05,0,0,0.05,35.45,0)" xlink:href="#C"/><use transform="matrix(0.05,0,0,0.05,44.45,0)" xlink:href="#C"/><use transform="matrix(0.05,0,0,0.05,53.45,0)" xlink:href="#E"/><use transform="matrix(0.05,0,0,0.05,63.45,0)" xlink:href="#ak"/><use transform="matrix(0.05,0,0,0.05,73.45,0)" xlink:href="#I"/><use transform="matrix(0.05,0,0,0.05,83.45,0)" xlink:href="#ay"/></g><g id="m"><use transform="matrix(0.05,0,0,0.05,0,0)" xlink:href="#C"/><use transform="matrix(0.05,0,0,0.05,9,0)" xlink:href="#K"/><use transform="matrix(0.05,0,0,0.05,14,0)" xlink:href="#Q"/><use transform="matrix(0.05,0,0,0.05,19.95,0)" xlink:href="#B"/><use transform="matrix(0.05,0,0,0.05,23.9,0)" xlink:href="#J"/><use transform="matrix(0.05,0,0,0.05,33.9,0)" xlink:href="#ak"/></g><path fill="#333" d="M67-125c0 53 21 87 73 88 37 1 54-22 65-47l45 17C233-25 199 4 140 4 58 4 20-42 15-125 8-235 124-281 211-232c18 10 29 29 36 50l-46 12c-8-25-30-41-62-41-52 0-71 34-72 86" id="az"/><path fill="#333" d="M114-157C55-157 80-60 75 0H25v-261h50l-1 109c12-26 28-41 61-42 86-1 58 113 63 194h-50c-7-57 23-157-34-157" id="aA"/><path fill="#333" d="M190-63c-7 42-38 67-86 67-59 0-84-38-90-98-12-110 154-137 174-36l-49 2c-2-19-15-32-35-32-30 0-35 28-38 64-6 74 65 87 74 30" id="aB"/><path fill="#333" d="M147 0L96-86 75-71V0H25v-261h50v150l67-79h53l-66 74L201 0h-54" id="aC"/><path fill="#333" d="M136-208V0H84v-208H4v-40h212v40h-80" id="aD"/><g id="n"><use transform="matrix(0.05,0,0,0.05,0,0)" xlink:href="#az"/><use transform="matrix(0.05,0,0,0.05,12.950000000000001,0)" xlink:href="#aA"/><use transform="matrix(0.05,0,0,0.05,23.900000000000002,0)" xlink:href="#W"/><use transform="matrix(0.05,0,0,0.05,33.900000000000006,0)" xlink:href="#aB"/><use transform="matrix(0.05,0,0,0.05,43.900000000000006,0)" xlink:href="#aC"/><use transform="matrix(0.05,0,0,0.05,53.900000000000006,0)" xlink:href="#W"/><use transform="matrix(0.05,0,0,0.05,63.900000000000006,0)" xlink:href="#ao"/><use transform="matrix(0.05,0,0,0.05,70.9,0)" xlink:href="#aD"/><use transform="matrix(0.05,0,0,0.05,80.50000000000001,0)" xlink:href="#W"/><use transform="matrix(0.05,0,0,0.05,90.50000000000001,0)" xlink:href="#ax"/><use transform="matrix(0.05,0,0,0.05,106.5,0)" xlink:href="#U"/><use transform="matrix(0.05,0,0,0.05,117.45,0)" xlink:href="#W"/><use transform="matrix(0.05,0,0,0.05,127.45,0)" xlink:href="#ao"/><use transform="matrix(0.05,0,0,0.05,134.45000000000002,0)" xlink:href="#X"/><use transform="matrix(0.05,0,0,0.05,144.45000000000002,0)" xlink:href="#Y"/><use transform="matrix(0.05,0,0,0.05,150.4,0)" xlink:href="#ad"/><use transform="matrix(0.05,0,0,0.05,161.35,0)" xlink:href="#ao"/><use transform="matrix(0.05,0,0,0.05,168.35,0)" xlink:href="#W"/></g><path fill="#333" d="M127-220V0H93v-220H8v-28h204v28h-85" id="aE"/><path fill="#333" d="M115-194c55 1 70 41 70 98S169 2 115 4C84 4 66-9 55-30l1 105H24l-1-265h31l2 30c10-21 28-34 59-34zm-8 174c40 0 45-34 45-75s-6-73-45-74c-42 0-51 32-51 76 0 43 10 73 51 73" id="aF"/><path fill="#333" d="M101-234c-31-9-42 10-38 44h38v23H63V0H32v-167H5v-23h27c-7-52 17-82 69-68v24" id="aG"/><path fill="#333" d="M205 0l-28-72H64L36 0H1l101-248h38L239 0h-34zm-38-99l-47-123c-12 45-31 82-46 123h93" id="aH"/><path fill="#333" d="M30-248c87 1 191-15 191 75 0 78-77 80-158 76V0H30v-248zm33 125c57 0 124 11 124-50 0-59-68-47-124-48v98" id="aI"/><path fill="#333" d="M33 0v-248h34V0H33" id="aJ"/><g id="o"><use transform="matrix(0.05,0,0,0.05,0,0)" xlink:href="#ah"/><use transform="matrix(0.05,0,0,0.05,10.5,0)" xlink:href="#ak"/><use transform="matrix(0.05,0,0,0.05,20.5,0)" xlink:href="#I"/><use transform="matrix(0.05,0,0,0.05,30.5,0)" xlink:href="#K"/><use transform="matrix(0.05,0,0,0.05,35.5,0)" xlink:href="#aE"/><use transform="matrix(0.05,0,0,0.05,44.45,0)" xlink:href="#I"/><use transform="matrix(0.05,0,0,0.05,54.45,0)" xlink:href="#H"/><use transform="matrix(0.05,0,0,0.05,69.4,0)" xlink:href="#aF"/><use transform="matrix(0.05,0,0,0.05,79.4,0)" xlink:href="#I"/><use transform="matrix(0.05,0,0,0.05,89.4,0)" xlink:href="#Q"/><use transform="matrix(0.05,0,0,0.05,95.35000000000001,0)" xlink:href="#E"/><use transform="matrix(0.05,0,0,0.05,105.35000000000001,0)" xlink:href="#K"/><use transform="matrix(0.05,0,0,0.05,110.35000000000001,0)" xlink:href="#P"/><use transform="matrix(0.05,0,0,0.05,120.35000000000001,0)" xlink:href="#Q"/><use transform="matrix(0.05,0,0,0.05,126.30000000000001,0)" xlink:href="#I"/><use transform="matrix(0.05,0,0,0.05,136.3,0)" xlink:href="#aG"/><use transform="matrix(0.05,0,0,0.05,141.3,0)" xlink:href="#Q"/><use transform="matrix(0.05,0,0,0.05,147.25,0)" xlink:href="#L"/><use transform="matrix(0.05,0,0,0.05,157.25,0)" xlink:href="#H"/><use transform="matrix(0.05,0,0,0.05,172.2,0)" xlink:href="#aH"/><use transform="matrix(0.05,0,0,0.05,184.2,0)" xlink:href="#aI"/><use transform="matrix(0.05,0,0,0.05,196.2,0)" xlink:href="#aJ"/><use transform="matrix(0.05,0,0,0.05,201.2,0)" xlink:href="#al"/><use transform="matrix(0.05,0,0,0.05,207.14999999999998,0)" xlink:href="#am"/></g><path fill="#333" d="M106-169C34-169 62-67 57 0H25v-261h32l-1 103c12-21 28-36 61-36 89 0 53 116 60 194h-32v-121c2-32-8-49-39-48" id="aK"/><path fill="#333" d="M143 0L79-87 56-68V0H24v-261h32v163l83-92h37l-77 82L181 0h-38" id="aL"/><g id="p"><use transform="matrix(0.05,0,0,0.05,0,0)" xlink:href="#ah"/><use transform="matrix(0.05,0,0,0.05,10.5,0)" xlink:href="#D"/><use transform="matrix(0.05,0,0,0.05,19.5,0)" xlink:href="#aK"/><use transform="matrix(0.05,0,0,0.05,29.5,0)" xlink:href="#I"/><use transform="matrix(0.05,0,0,0.05,39.5,0)" xlink:href="#D"/><use transform="matrix(0.05,0,0,0.05,48.5,0)" xlink:href="#aL"/><use transform="matrix(0.05,0,0,0.05,57.5,0)" xlink:href="#aE"/><use transform="matrix(0.05,0,0,0.05,66.45,0)" xlink:href="#I"/><use transform="matrix(0.05,0,0,0.05,76.45,0)" xlink:href="#H"/><use transform="matrix(0.05,0,0,0.05,91.4,0)" xlink:href="#aF"/><use transform="matrix(0.05,0,0,0.05,101.4,0)" xlink:href="#I"/><use transform="matrix(0.05,0,0,0.05,111.4,0)" xlink:href="#Q"/><use transform="matrix(0.05,0,0,0.05,117.35000000000001,0)" xlink:href="#E"/><use transform="matrix(0.05,0,0,0.05,127.35000000000001,0)" xlink:href="#K"/><use transform="matrix(0.05,0,0,0.05,132.35000000000002,0)" xlink:href="#P"/><use transform="matrix(0.05,0,0,0.05,142.35000000000002,0)" xlink:href="#Q"/><use transform="matrix(0.05,0,0,0.05,148.3,0)" xlink:href="#I"/></g><path fill="#333" d="M67-125c0 54 23 88 75 88 28 0 53-7 68-21v-34h-60v-39h108v91C232-14 192 4 140 4 58 4 20-42 15-125 8-236 126-280 215-234c19 10 29 26 37 47l-47 15c-11-23-29-39-63-39-53 1-75 33-75 86" id="aM"/><path fill="#333" d="M199 0l-22-63H83L61 0H9l90-248h61L250 0h-51zm-33-102l-36-108c-10 38-24 72-36 108h72" id="aN"/><path fill="#333" d="M24-248c93 1 206-16 204 79-1 75-69 88-152 82V0H24v-248zm52 121c47 0 100 7 100-41 0-47-54-39-100-39v80" id="aO"/><path fill="#333" d="M24 0v-248h52V0H24" id="aP"/><g id="q"><use transform="matrix(0.05,0,0,0.05,0,0)" xlink:href="#aM"/><use transform="matrix(0.05,0,0,0.05,14,0)" xlink:href="#W"/><use transform="matrix(0.05,0,0,0.05,24,0)" xlink:href="#Y"/><use transform="matrix(0.05,0,0,0.05,29.950000000000003,0)" xlink:href="#aD"/><use transform="matrix(0.05,0,0,0.05,39.55,0)" xlink:href="#W"/><use transform="matrix(0.05,0,0,0.05,49.55,0)" xlink:href="#ax"/><use transform="matrix(0.05,0,0,0.05,65.55,0)" xlink:href="#U"/><use transform="matrix(0.05,0,0,0.05,76.5,0)" xlink:href="#W"/><use transform="matrix(0.05,0,0,0.05,86.5,0)" xlink:href="#ao"/><use transform="matrix(0.05,0,0,0.05,93.5,0)" xlink:href="#X"/><use transform="matrix(0.05,0,0,0.05,103.5,0)" xlink:href="#Y"/><use transform="matrix(0.05,0,0,0.05,109.45,0)" xlink:href="#ad"/><use transform="matrix(0.05,0,0,0.05,120.4,0)" xlink:href="#ao"/><use transform="matrix(0.05,0,0,0.05,127.4,0)" xlink:href="#W"/><use transform="matrix(0.05,0,0,0.05,137.4,0)" xlink:href="#aN"/><use transform="matrix(0.05,0,0,0.05,150.35,0)" xlink:href="#aO"/><use transform="matrix(0.05,0,0,0.05,162.35,0)" xlink:href="#aP"/></g><g id="r"><use transform="matrix(0.05,0,0,0.05,0,0)" xlink:href="#ah"/><use transform="matrix(0.05,0,0,0.05,10.5,0)" xlink:href="#C"/><use transform="matrix(0.05,0,0,0.05,19.5,0)" xlink:href="#I"/><use transform="matrix(0.05,0,0,0.05,29.5,0)" xlink:href="#J"/><use transform="matrix(0.05,0,0,0.05,39.5,0)" xlink:href="#G"/><use transform="matrix(0.05,0,0,0.05,49.5,0)" xlink:href="#aE"/><use transform="matrix(0.05,0,0,0.05,58.45,0)" xlink:href="#I"/><use transform="matrix(0.05,0,0,0.05,68.45,0)" xlink:href="#H"/><use transform="matrix(0.05,0,0,0.05,83.4,0)" xlink:href="#aF"/><use transform="matrix(0.05,0,0,0.05,93.4,0)" xlink:href="#I"/><use transform="matrix(0.05,0,0,0.05,103.4,0)" xlink:href="#Q"/><use transform="matrix(0.05,0,0,0.05,109.35000000000001,0)" xlink:href="#E"/><use transform="matrix(0.05,0,0,0.05,119.35000000000001,0)" xlink:href="#K"/><use transform="matrix(0.05,0,0,0.05,124.35000000000001,0)" xlink:href="#P"/><use transform="matrix(0.05,0,0,0.05,134.35000000000002,0)" xlink:href="#Q"/><use transform="matrix(0.05,0,0,0.05,140.3,0)" xlink:href="#I"/><use transform="matrix(0.05,0,0,0.05,150.3,0)" xlink:href="#al"/><use transform="matrix(0.05,0,0,0.05,156.25,0)" xlink:href="#am"/></g><path fill="#333" d="M-4 44V30h207v14H-4" id="aQ"/><path fill="#333" d="M128 0H69L1-190h53L99-40l48-150h52" id="aR"/><g id="s"><use transform="matrix(0.05,0,0,0.05,0,0)" xlink:href="#az"/><use transform="matrix(0.05,0,0,0.05,12.950000000000001,0)" xlink:href="#aA"/><use transform="matrix(0.05,0,0,0.05,23.900000000000002,0)" xlink:href="#ae"/><use transform="matrix(0.05,0,0,0.05,34.85,0)" xlink:href="#Z"/><use transform="matrix(0.05,0,0,0.05,39.85,0)" xlink:href="#aB"/><use transform="matrix(0.05,0,0,0.05,49.85,0)" xlink:href="#aA"/><use transform="matrix(0.05,0,0,0.05,60.800000000000004,0)" xlink:href="#W"/><use transform="matrix(0.05,0,0,0.05,70.80000000000001,0)" xlink:href="#aQ"/><use transform="matrix(0.05,0,0,0.05,80.80000000000001,0)" xlink:href="#X"/><use transform="matrix(0.05,0,0,0.05,90.80000000000001,0)" xlink:href="#aa"/><use transform="matrix(0.05,0,0,0.05,101.75000000000001,0)" xlink:href="#aw"/><use transform="matrix(0.05,0,0,0.05,112.7,0)" xlink:href="#aQ"/><use transform="matrix(0.05,0,0,0.05,122.7,0)" xlink:href="#aN"/><use transform="matrix(0.05,0,0,0.05,135.65,0)" xlink:href="#aB"/><use transform="matrix(0.05,0,0,0.05,145.65,0)" xlink:href="#Y"/><use transform="matrix(0.05,0,0,0.05,151.6,0)" xlink:href="#Z"/><use transform="matrix(0.05,0,0,0.05,156.6,0)" xlink:href="#aR"/><use transform="matrix(0.05,0,0,0.05,166.6,0)" xlink:href="#X"/><use transform="matrix(0.05,0,0,0.05,176.6,0)" xlink:href="#Y"/><use transform="matrix(0.05,0,0,0.05,182.54999999999998,0)" xlink:href="#W"/></g><g id="t"><use transform="matrix(0.05,0,0,0.05,0,0)" xlink:href="#ah"/><use transform="matrix(0.05,0,0,0.05,10.5,0)" xlink:href="#D"/><use transform="matrix(0.05,0,0,0.05,19.5,0)" xlink:href="#aK"/><use transform="matrix(0.05,0,0,0.05,29.5,0)" xlink:href="#L"/><use transform="matrix(0.05,0,0,0.05,39.5,0)" xlink:href="#B"/><use transform="matrix(0.05,0,0,0.05,43.45,0)" xlink:href="#D"/><use transform="matrix(0.05,0,0,0.05,52.45,0)" xlink:href="#aK"/><use transform="matrix(0.05,0,0,0.05,62.45,0)" xlink:href="#I"/><use transform="matrix(0.05,0,0,0.05,72.45,0)" xlink:href="#aI"/><use transform="matrix(0.05,0,0,0.05,84.45,0)" xlink:href="#Q"/><use transform="matrix(0.05,0,0,0.05,90.4,0)" xlink:href="#L"/><use transform="matrix(0.05,0,0,0.05,100.4,0)" xlink:href="#D"/><use transform="matrix(0.05,0,0,0.05,109.4,0)" xlink:href="#I"/><use transform="matrix(0.05,0,0,0.05,119.4,0)" xlink:href="#C"/><use transform="matrix(0.05,0,0,0.05,128.4,0)" xlink:href="#C"/><use transform="matrix(0.05,0,0,0.05,137.4,0)" xlink:href="#al"/><use transform="matrix(0.05,0,0,0.05,143.35,0)" xlink:href="#am"/></g><path fill="#333" d="M25 0v-261h50V0H25" id="aS"/><g id="u"><use transform="matrix(0.05,0,0,0.05,0,0)" xlink:href="#as"/><use transform="matrix(0.05,0,0,0.05,14.950000000000001,0)" xlink:href="#W"/><use transform="matrix(0.05,0,0,0.05,24.950000000000003,0)" xlink:href="#at"/><use transform="matrix(0.05,0,0,0.05,34.95,0)" xlink:href="#at"/><use transform="matrix(0.05,0,0,0.05,44.95,0)" xlink:href="#X"/><use transform="matrix(0.05,0,0,0.05,54.95,0)" xlink:href="#ab"/><use transform="matrix(0.05,0,0,0.05,65.9,0)" xlink:href="#W"/><use transform="matrix(0.05,0,0,0.05,75.9,0)" xlink:href="#au"/><use transform="matrix(0.05,0,0,0.05,88.85000000000001,0)" xlink:href="#Z"/><use transform="matrix(0.05,0,0,0.05,93.85000000000001,0)" xlink:href="#at"/><use transform="matrix(0.05,0,0,0.05,103.85000000000001,0)" xlink:href="#aB"/><use transform="matrix(0.05,0,0,0.05,113.85000000000001,0)" xlink:href="#X"/><use transform="matrix(0.05,0,0,0.05,123.85000000000001,0)" xlink:href="#aS"/><use transform="matrix(0.05,0,0,0.05,128.85000000000002,0)" xlink:href="#aw"/><use transform="matrix(0.05,0,0,0.05,139.8,0)" xlink:href="#X"/><use transform="matrix(0.05,0,0,0.05,149.8,0)" xlink:href="#ax"/><use transform="matrix(0.05,0,0,0.05,165.8,0)" xlink:href="#W"/><use transform="matrix(0.05,0,0,0.05,175.8,0)" xlink:href="#aa"/><use transform="matrix(0.05,0,0,0.05,186.75,0)" xlink:href="#Y"/><use transform="matrix(0.05,0,0,0.05,192.7,0)" xlink:href="#ae"/></g><path fill="#333" d="M30-248c118-7 216 8 213 122C240-48 200 0 122 0H30v-248zM63-27c89 8 146-16 146-99s-60-101-146-95v194" id="aT"/><g id="v"><use transform="matrix(0.05,0,0,0.05,0,0)" xlink:href="#aT"/><use transform="matrix(0.05,0,0,0.05,12.950000000000001,0)" xlink:href="#B"/><use transform="matrix(0.05,0,0,0.05,16.900000000000002,0)" xlink:href="#C"/><use transform="matrix(0.05,0,0,0.05,25.900000000000002,0)" xlink:href="#aF"/><use transform="matrix(0.05,0,0,0.05,35.900000000000006,0)" xlink:href="#F"/><use transform="matrix(0.05,0,0,0.05,39.85000000000001,0)" xlink:href="#E"/><use transform="matrix(0.05,0,0,0.05,49.85000000000001,0)" xlink:href="#R"/></g><g id="w"><use transform="matrix(0.05,0,0,0.05,0,0)" xlink:href="#aJ"/><use transform="matrix(0.05,0,0,0.05,5,0)" xlink:href="#J"/><use transform="matrix(0.05,0,0,0.05,15,0)" xlink:href="#K"/><use transform="matrix(0.05,0,0,0.05,20,0)" xlink:href="#I"/><use transform="matrix(0.05,0,0,0.05,30,0)" xlink:href="#Q"/><use transform="matrix(0.05,0,0,0.05,35.95,0)" xlink:href="#E"/><use transform="matrix(0.05,0,0,0.05,45.95,0)" xlink:href="#D"/><use transform="matrix(0.05,0,0,0.05,54.95,0)" xlink:href="#K"/></g><g id="x"><use transform="matrix(0.05,0,0,0.05,0,0)" xlink:href="#N"/><use transform="matrix(0.05,0,0,0.05,10,0)" xlink:href="#O"/><use transform="matrix(0.05,0,0,0.05,20,0)" xlink:href="#L"/><use transform="matrix(0.05,0,0,0.05,30,0)" xlink:href="#P"/><use transform="matrix(0.05,0,0,0.05,40,0)" xlink:href="#J"/><use transform="matrix(0.05,0,0,0.05,50,0)" xlink:href="#G"/><use transform="matrix(0.05,0,0,0.05,60,0)" xlink:href="#E"/><use transform="matrix(0.05,0,0,0.05,70,0)" xlink:href="#Q"/><use transform="matrix(0.05,0,0,0.05,75.95,0)" xlink:href="#R"/><use transform="matrix(0.05,0,0,0.05,84.95,0)" xlink:href="#S"/></g><g id="y"><use transform="matrix(0.05,0,0,0.05,0,0)" xlink:href="#au"/><use transform="matrix(0.05,0,0,0.05,12.950000000000001,0)" xlink:href="#Z"/><use transform="matrix(0.05,0,0,0.05,17.950000000000003,0)" xlink:href="#at"/><use transform="matrix(0.05,0,0,0.05,27.950000000000003,0)" xlink:href="#aB"/><use transform="matrix(0.05,0,0,0.05,37.95,0)" xlink:href="#X"/><use transform="matrix(0.05,0,0,0.05,47.95,0)" xlink:href="#aS"/><use transform="matrix(0.05,0,0,0.05,52.95,0)" xlink:href="#aw"/><use transform="matrix(0.05,0,0,0.05,63.900000000000006,0)" xlink:href="#X"/><use transform="matrix(0.05,0,0,0.05,73.9,0)" xlink:href="#ax"/><use transform="matrix(0.05,0,0,0.05,89.9,0)" xlink:href="#W"/><use transform="matrix(0.05,0,0,0.05,99.9,0)" xlink:href="#aa"/><use transform="matrix(0.05,0,0,0.05,110.85000000000001,0)" xlink:href="#Y"/><use transform="matrix(0.05,0,0,0.05,116.80000000000001,0)" xlink:href="#ae"/></g><g id="z"><use transform="matrix(0.05,0,0,0.05,0,0)" xlink:href="#aH"/><use transform="matrix(0.05,0,0,0.05,12,0)" xlink:href="#D"/><use transform="matrix(0.05,0,0,0.05,21,0)" xlink:href="#K"/><use transform="matrix(0.05,0,0,0.05,26,0)" xlink:href="#B"/><use transform="matrix(0.05,0,0,0.05,29.950000000000003,0)" xlink:href="#ai"/><use transform="matrix(0.05,0,0,0.05,38.95,0)" xlink:href="#E"/><use transform="matrix(0.05,0,0,0.05,48.95,0)" xlink:href="#K"/><use transform="matrix(0.05,0,0,0.05,53.95,0)" xlink:href="#I"/></g></defs></g></svg>