<svg xmlns="http://www.w3.org/2000/svg" xmlns:xlink="http://www.w3.org/1999/xlink" xmlns:lucid="lucid" width="1649" height="1261"><g transform="translate(-6538 -1890)" lucid:page-tab-id="HWEp-vi-RSFO"><path d="M7587 2021.42h533v1054H6680v-1080h864zm-907 0h907" stroke="#000" stroke-width="2" fill="#fff"/><use xlink:href="#a" transform="matrix(1,0,0,1,6688,1995.418801681668) translate(367.65 16.6)"/><path d="M4381.83 1252H4548a12 12 0 0 1 12 12v644a12 12 0 0 0 12 12h2442.26a12 12 0 0 1 12 12v194.42a12 12 0 0 0 12 12h35" stroke="#635dff" stroke-width="4" fill="none"/><path d="M4381.9 1254h-2.07v-4h2.06zM7075.26 2140.42h-2.05v-4h2.06z" stroke="#635dff" stroke-width=".05" fill="#635dff"/><use xlink:href="#b" transform="matrix(1,0,0,1,4379.834293160165,1256.0000000000002) translate(0 14.4)"/><use xlink:href="#b" transform="matrix(1,0,0,1,7065.257582435864,2112.8188016816675) translate(0 14.4)"/><path d="M6740 2618.08h180v117h-180z" stroke="#333" stroke-width="2" fill="#7030a0"/><path d="M6740 2677.28h180" stroke="#333" stroke-width="2" fill="none"/><use xlink:href="#c" transform="matrix(1,0,0,1,6748,2626.081198318332) translate(34.525 14.799999999999999)"/><use xlink:href="#d" transform="matrix(1,0,0,1,6748,2626.081198318332) translate(8.75 36.4)"/><path d="M7076.26 2614.08h180v120h-180z" stroke="#333" stroke-width="2" fill="#ff7b7b"/><path d="M7076.26 2673.28h180" stroke="#333" stroke-width="2" fill="none"/><use xlink:href="#e" transform="matrix(1,0,0,1,7084.257582435864,2622.081198318332) translate(45.05 14.799999999999999)"/><use xlink:href="#f" transform="matrix(1,0,0,1,7084.257582435864,2622.081198318332) translate(37.599999999999994 36.4)"/><use xlink:href="#g" transform="matrix(1,0,0,1,7088.257582435864,2681.281198318332) translate(0 26.1)"/><path d="M6923 2676.08h150.26" stroke="#000" stroke-width="4" fill="none"/><path d="M6923.05 2678.08H6921v-4h2.05zM7075.26 2678.08h-2.05v-4h2.06z" stroke="#000" stroke-width=".05"/><use xlink:href="#b" transform="matrix(1,0,0,1,6921,2680.081198318332) translate(0 14.4)"/><use xlink:href="#b" transform="matrix(1,0,0,1,7065.257582435864,2650.481198318332) translate(0 14.4)"/><path d="M7051.26 2355h230v142h-230z" stroke="#333" stroke-width="2" fill="#ff7b7b"/><path d="M7051.26 2414.2h230" stroke="#333" stroke-width="2" fill="none"/><use xlink:href="#e" transform="matrix(1,0,0,1,7059.257582435864,2363) translate(70.05 14.799999999999999)"/><use xlink:href="#h" transform="matrix(1,0,0,1,7059.257582435864,2363) translate(33.150000000000006 36.4)"/><use xlink:href="#i" transform="matrix(1,0,0,1,7063.257582435864,2422.2) translate(0 26.299999999999997)"/><use xlink:href="#j" transform="matrix(1,0,0,1,7063.257582435864,2422.2) translate(0 47.9)"/><path d="M7521.7 2377h195v98h-195z" stroke="#333" stroke-width="2" fill="#e81313"/><path d="M7521.7 2414.6h195" stroke="#333" stroke-width="2" fill="none"/><use xlink:href="#k" transform="matrix(1,0,0,1,7529.7116446378495,2385) translate(21.150000000000006 14.6)"/><use xlink:href="#l" transform="matrix(1,0,0,1,7533.7116446378495,2422.6) translate(0 26.1)"/><path d="M7284.26 2426h234.45" stroke="#000" stroke-width="4" fill="none"/><path d="M7284.3 2428h-2.04v-4h2.05zM7520.7 2428h-2.04v-4h2.05z" stroke="#000" stroke-width=".05"/><use xlink:href="#b" transform="matrix(1,0,0,1,7282.257582435864,2429.9999999999995) translate(0 14.4)"/><use xlink:href="#b" transform="matrix(1,0,0,1,7510.7116446378495,2400.3999999999996) translate(0 14.4)"/><path d="M7026.97 2857.08h278.58v117h-278.58z" stroke="#333" stroke-width="2" fill="#7030a0"/><path d="M7026.97 2916.28h278.58" stroke="#333" stroke-width="2" fill="none"/><use xlink:href="#c" transform="matrix(1,0,0,1,7034.969227073713,2865.081198318332) translate(84.025 14.799999999999999)"/><use xlink:href="#m" transform="matrix(1,0,0,1,7034.969227073713,2865.081198318332) translate(49.150000000000006 36.4)"/><use xlink:href="#n" transform="matrix(1,0,0,1,7038.969227073713,2924.281198318332) translate(0 24.6)"/><use xlink:href="#o" transform="matrix(1,0,0,1,7038.969227073713,2924.281198318332) translate(93.45 24.6)"/><path d="M7169.26 2737.08v117" stroke="#000" stroke-width="4" fill="none"/><path d="M7171.26 2737.13h-4v-2.05h4zM7171.26 2856.08h-4v-2.05h4z" stroke="#000" stroke-width=".05"/><use xlink:href="#b" transform="matrix(1,0,0,1,7151.262661385804,2734.281198318332) translate(0 14.4)"/><use xlink:href="#b" transform="matrix(1,0,0,1,7177.262661385804,2835.281198318332) translate(0 14.4)"/><path d="M7166.26 2500v111.08" stroke="#000" stroke-width="4" fill="none"/><path d="M7168.26 2500.05h-4V2498h4zM7168.26 2613.08h-4v-2.05h4z" stroke="#000" stroke-width=".05"/><use xlink:href="#b" transform="matrix(1,0,0,1,7148.257582435864,2497.2) translate(0 14.4)"/><use xlink:href="#b" transform="matrix(1,0,0,1,7174.257582435864,2592.281198318332) translate(0 14.4)"/><path d="M7355 2377h90v60h-90z" stroke="#000" stroke-opacity="0" stroke-width="2" fill="#fff" fill-opacity="0"/><use xlink:href="#p" transform="matrix(1,0,0,1,7360,2382) translate(10.024999999999999 28.6)"/><path d="M7220 2753.58v80h-40v-80z" stroke="#000" stroke-opacity="0" stroke-width="2" fill="#fff" fill-opacity="0"/><use xlink:href="#q" transform="matrix(6.123233995736766e-17,1,-1,6.123233995736766e-17,7215,2758.581198318332) translate(-2.4750000000000014 18.6)"/><path d="M6940 2610.08h90v60h-90z" stroke="#000" stroke-opacity="0" stroke-width="2" fill="#fff" fill-opacity="0"/><use xlink:href="#r" transform="matrix(1,0,0,1,6945,2615.081198318332) translate(3.5249999999999986 28.6)"/><path d="M7100 2600.54v-90h60v90z" stroke="#000" stroke-opacity="0" stroke-width="2" fill="#fff" fill-opacity="0"/><use xlink:href="#s" transform="matrix(6.123233995736766e-17,-1,1,6.123233995736766e-17,7105,2595.540599159165) translate(8.024999999999999 28.6)"/><path d="M7076.26 2079.92h180v117h-180z" stroke="#333" stroke-width="2" fill="#7030a0"/><path d="M7076.26 2139.12h180" stroke="#333" stroke-width="2" fill="none"/><use xlink:href="#t" transform="matrix(1,0,0,1,7084.257582435864,2087.918801681668) translate(34.525 14.799999999999999)"/><use xlink:href="#d" transform="matrix(1,0,0,1,7084.257582435864,2087.918801681668) translate(8.75 36.4)"/><path d="M7166.26 2199.92V2352" stroke="#000" stroke-width="4" fill="none"/><path d="M7168.26 2199.97h-4v-2.05h4zM7168.26 2354h-4v-2.05h4z" stroke="#000" stroke-width=".05"/><path d="M7100 2315v-90h60v90z" stroke="#000" stroke-opacity="0" stroke-width="2" fill="#fff" fill-opacity="0"/><use xlink:href="#s" transform="matrix(6.123233995736766e-17,-1,1,6.123233995736766e-17,7105,2310) translate(8.024999999999999 28.6)"/><path d="M6830 2615.08V2190a12 12 0 0 1 12-12h231.26" stroke="#000" stroke-width="4" fill="none"/><path d="M6832 2617.08h-4v-2.05h4zM7075.26 2180h-2.05v-4h2.06z" stroke="#000" stroke-width=".05"/><g><use xlink:href="#b" transform="matrix(1,0,0,1,6838,2596.281198318332) translate(0 14.4)"/></g><g><use xlink:href="#b" transform="matrix(1,0,0,1,7065.257582435864,2152.4) translate(0 14.4)"/></g><g><path d="M6760 2425v-90h60v90z" stroke="#000" stroke-opacity="0" stroke-width="2" fill="#fff" fill-opacity="0"/></g><g><use xlink:href="#u" transform="matrix(6.123233995736766e-17,-1,1,6.123233995736766e-17,6765,2420) translate(10.574999999999996 28.6)"/></g><defs><path fill="#333" d="M232-93c-1 65-40 97-104 97C67 4 28-28 28-90v-158h33c8 89-33 224 67 224 102 0 64-133 71-224h33v155" id="v"/><path fill="#333" d="M210-169c-67 3-38 105-44 169h-31v-121c0-29-5-50-35-48C34-165 62-65 56 0H25l-1-190h30c1 10-1 24 2 32 10-44 99-50 107 0 11-21 27-35 58-36 85-2 47 119 55 194h-31v-121c0-29-5-49-35-48" id="w"/><path fill="#333" d="M24-231v-30h32v30H24zM24 0v-190h32V0H24" id="x"/><path fill="#333" d="M85-194c31 0 48 13 60 33l-1-100h32l1 261h-30c-2-10 0-23-3-31C134-8 116 4 85 4 32 4 16-35 15-94c0-66 23-100 70-100zm9 24c-40 0-46 34-46 75 0 40 6 74 45 74 42 0 51-32 51-76 0-42-9-74-50-73" id="y"/><path fill="#333" d="M101-234c-31-9-42 10-38 44h38v23H63V0H32v-167H5v-23h27c-7-52 17-82 69-68v24" id="z"/><path fill="#333" d="M96-169c-40 0-48 33-48 73s9 75 48 75c24 0 41-14 43-38l32 2c-6 37-31 61-74 61-59 0-76-41-82-99-10-93 101-131 147-64 4 7 5 14 7 22l-32 3c-4-21-16-35-41-35" id="A"/><path fill="#333" d="M141-36C126-15 110 5 73 4 37 3 15-17 15-53c-1-64 63-63 125-63 3-35-9-54-41-54-24 1-41 7-42 31l-33-3c5-37 33-52 76-52 45 0 72 20 72 64v82c-1 20 7 32 28 27v20c-31 9-61-2-59-35zM48-53c0 20 12 33 32 33 41-3 63-29 60-74-43 2-92-5-92 41" id="B"/><path fill="#333" d="M59-47c-2 24 18 29 38 22v24C64 9 27 4 27-40v-127H5v-23h24l9-43h21v43h35v23H59v120" id="C"/><path fill="#333" d="M100-194c62-1 85 37 85 99 1 63-27 99-86 99S16-35 15-95c0-66 28-99 85-99zM99-20c44 1 53-31 53-75 0-43-8-75-51-75s-53 32-53 75 10 74 51 75" id="D"/><path fill="#333" d="M114-163C36-179 61-72 57 0H25l-1-190h30c1 12-1 29 2 39 6-27 23-49 58-41v29" id="E"/><path fill="#333" d="M100-194c63 0 86 42 84 106H49c0 40 14 67 53 68 26 1 43-12 49-29l28 8c-11 28-37 45-77 45C44 4 14-33 15-96c1-61 26-98 85-98zm52 81c6-60-76-77-97-28-3 7-6 17-6 28h103" id="F"/><g id="a"><use transform="matrix(0.05,0,0,0.05,0,0)" xlink:href="#v"/><use transform="matrix(0.05,0,0,0.05,12.950000000000001,0)" xlink:href="#w"/><use transform="matrix(0.05,0,0,0.05,27.900000000000002,0)" xlink:href="#x"/><use transform="matrix(0.05,0,0,0.05,31.85,0)" xlink:href="#y"/><use transform="matrix(0.05,0,0,0.05,41.85,0)" xlink:href="#x"/><use transform="matrix(0.05,0,0,0.05,45.800000000000004,0)" xlink:href="#z"/><use transform="matrix(0.05,0,0,0.05,50.800000000000004,0)" xlink:href="#x"/><use transform="matrix(0.05,0,0,0.05,54.75,0)" xlink:href="#A"/><use transform="matrix(0.05,0,0,0.05,63.75,0)" xlink:href="#B"/><use transform="matrix(0.05,0,0,0.05,73.75,0)" xlink:href="#C"/><use transform="matrix(0.05,0,0,0.05,78.75,0)" xlink:href="#D"/><use transform="matrix(0.05,0,0,0.05,88.75,0)" xlink:href="#E"/><use transform="matrix(0.05,0,0,0.05,94.7,0)" xlink:href="#F"/></g><path d="M27 0v-27h64v-190l-56 39v-29l58-41h29v221h61V0H27" id="G"/><use transform="matrix(0.05,0,0,0.05,0,0)" xlink:href="#G" id="b"/><path fill="#333" d="M156-25L96-89v-11l60-65h29v5l-59 66 60 64v5h-30zm-82 0L15-89v-11l59-65h29v5L44-94l59 64v5H74" id="H"/><path fill="#333" d="M115-194c53 0 69 39 70 98 0 66-23 100-70 100C84 3 66-7 56-30L54 0H23l1-261h32v101c10-23 28-34 59-34zm-8 174c40 0 45-34 45-75 0-40-5-75-45-74-42 0-51 32-51 76 0 43 10 73 51 73" id="I"/><path fill="#333" d="M84 4C-5 8 30-112 23-190h32v120c0 31 7 50 39 49 72-2 45-101 50-169h31l1 190h-30c-1-10 1-25-2-33-11 22-28 36-60 37" id="J"/><path fill="#333" d="M117-194c89-4 53 116 60 194h-32v-121c0-31-8-49-39-48C34-167 62-67 57 0H25l-1-190h30c1 10-1 24 2 32 11-22 29-35 61-36" id="K"/><path fill="#333" d="M179-190L93 31C79 59 56 82 12 73V49c39 6 53-20 64-50L1-190h34L92-34l54-156h33" id="L"/><path fill="#333" d="M126-25H97v-5l59-64-59-66v-5h29l60 65v11zm-82 0H15v-5l59-64-59-66v-5h29l59 65v11" id="M"/><g id="c"><use transform="matrix(0.05,0,0,0.05,0,0)" xlink:href="#H"/><use transform="matrix(0.05,0,0,0.05,10,0)" xlink:href="#I"/><use transform="matrix(0.05,0,0,0.05,20,0)" xlink:href="#D"/><use transform="matrix(0.05,0,0,0.05,30,0)" xlink:href="#J"/><use transform="matrix(0.05,0,0,0.05,40,0)" xlink:href="#K"/><use transform="matrix(0.05,0,0,0.05,50,0)" xlink:href="#y"/><use transform="matrix(0.05,0,0,0.05,60,0)" xlink:href="#B"/><use transform="matrix(0.05,0,0,0.05,70,0)" xlink:href="#E"/><use transform="matrix(0.05,0,0,0.05,75.95,0)" xlink:href="#L"/><use transform="matrix(0.05,0,0,0.05,84.95,0)" xlink:href="#M"/></g><path fill="#333" d="M186 0v-106H76V0H24v-248h52v99h110v-99h50V0h-50" id="N"/><path fill="#333" d="M85 4C-2 5 27-109 22-190h50c7 57-23 150 33 157 60-5 35-97 40-157h50l1 190h-47c-2-12 1-28-3-38-12 25-28 42-61 42" id="O"/><path fill="#333" d="M220-157c-53 9-28 100-34 157h-49v-107c1-27-5-49-29-50C55-147 81-57 75 0H25l-1-190h47c2 12-1 28 3 38 10-53 101-56 108 0 13-22 24-43 59-42 82 1 51 116 57 194h-49v-107c-1-25-5-48-29-50" id="P"/><path fill="#333" d="M25-224v-37h50v37H25zM25 0v-190h50V0H25" id="Q"/><path fill="#333" d="M88-194c31-1 46 15 58 34l-1-101h50l1 261h-48c-2-10 0-23-3-31C134-8 116 4 84 4 32 4 16-41 15-95c0-56 19-97 73-99zm17 164c33 0 40-30 41-66 1-37-9-64-41-64s-38 30-39 65c0 43 13 65 39 65" id="R"/><path fill="#333" d="M121-226c-27-7-43 5-38 36h38v33H83V0H34v-157H6v-33h28c-9-59 32-81 87-68v32" id="S"/><path fill="#333" d="M185-48c-13 30-37 53-82 52C43 2 14-33 14-96s30-98 90-98c62 0 83 45 84 108H66c0 31 8 55 39 56 18 0 30-7 34-22zm-45-69c5-46-57-63-70-21-2 6-4 13-4 21h74" id="T"/><path fill="#333" d="M135-150c-39-12-60 13-60 57V0H25l-1-190h47c2 13-1 29 3 40 6-28 27-53 61-41v41" id="U"/><path fill="#333" d="M182-130c37 4 62 22 62 59C244 23 116-4 24 0v-248c84 5 203-23 205 63 0 31-19 50-47 55zM76-148c40-3 101 13 101-30 0-44-60-28-101-31v61zm0 110c48-3 116 14 116-37 0-48-69-32-116-35v72" id="V"/><path fill="#333" d="M115-3C79 11 28 4 28-45v-112H4v-33h27l15-45h31v45h36v33H77v99c-1 23 16 31 38 25v30" id="W"/><path fill="#333" d="M110-194c64 0 96 36 96 99 0 64-35 99-97 99-61 0-95-36-95-99 0-62 34-99 96-99zm-1 164c35 0 45-28 45-65 0-40-10-65-43-65-34 0-45 26-45 65 0 36 10 65 43 65" id="X"/><path fill="#333" d="M135-194c87-1 58 113 63 194h-50c-7-57 23-157-34-157-59 0-34 97-39 157H25l-1-190h47c2 12-1 28 3 38 12-26 28-41 61-42" id="Y"/><g id="d"><use transform="matrix(0.05,0,0,0.05,0,0)" xlink:href="#N"/><use transform="matrix(0.05,0,0,0.05,12.950000000000001,0)" xlink:href="#O"/><use transform="matrix(0.05,0,0,0.05,23.900000000000002,0)" xlink:href="#P"/><use transform="matrix(0.05,0,0,0.05,39.900000000000006,0)" xlink:href="#Q"/><use transform="matrix(0.05,0,0,0.05,44.900000000000006,0)" xlink:href="#R"/><use transform="matrix(0.05,0,0,0.05,55.85,0)" xlink:href="#Q"/><use transform="matrix(0.05,0,0,0.05,60.85,0)" xlink:href="#S"/><use transform="matrix(0.05,0,0,0.05,66.80000000000001,0)" xlink:href="#Q"/><use transform="matrix(0.05,0,0,0.05,71.80000000000001,0)" xlink:href="#T"/><use transform="matrix(0.05,0,0,0.05,81.80000000000001,0)" xlink:href="#U"/><use transform="matrix(0.05,0,0,0.05,88.80000000000001,0)" xlink:href="#V"/><use transform="matrix(0.05,0,0,0.05,101.75000000000001,0)" xlink:href="#O"/><use transform="matrix(0.05,0,0,0.05,112.7,0)" xlink:href="#W"/><use transform="matrix(0.05,0,0,0.05,118.65000000000003,0)" xlink:href="#W"/><use transform="matrix(0.05,0,0,0.05,124.60000000000002,0)" xlink:href="#X"/><use transform="matrix(0.05,0,0,0.05,135.55,0)" xlink:href="#Y"/></g><path fill="#333" d="M24 0v-261h32V0H24" id="Z"/><g id="e"><use transform="matrix(0.05,0,0,0.05,0,0)" xlink:href="#H"/><use transform="matrix(0.05,0,0,0.05,10,0)" xlink:href="#A"/><use transform="matrix(0.05,0,0,0.05,19,0)" xlink:href="#D"/><use transform="matrix(0.05,0,0,0.05,29,0)" xlink:href="#K"/><use transform="matrix(0.05,0,0,0.05,39,0)" xlink:href="#C"/><use transform="matrix(0.05,0,0,0.05,44,0)" xlink:href="#E"/><use transform="matrix(0.05,0,0,0.05,49.95,0)" xlink:href="#D"/><use transform="matrix(0.05,0,0,0.05,59.95,0)" xlink:href="#Z"/><use transform="matrix(0.05,0,0,0.05,63.900000000000006,0)" xlink:href="#M"/></g><g id="f"><use transform="matrix(0.05,0,0,0.05,0,0)" xlink:href="#N"/><use transform="matrix(0.05,0,0,0.05,12.950000000000001,0)" xlink:href="#O"/><use transform="matrix(0.05,0,0,0.05,23.900000000000002,0)" xlink:href="#P"/><use transform="matrix(0.05,0,0,0.05,39.900000000000006,0)" xlink:href="#Q"/><use transform="matrix(0.05,0,0,0.05,44.900000000000006,0)" xlink:href="#R"/><use transform="matrix(0.05,0,0,0.05,55.85,0)" xlink:href="#Q"/><use transform="matrix(0.05,0,0,0.05,60.85,0)" xlink:href="#S"/><use transform="matrix(0.05,0,0,0.05,66.80000000000001,0)" xlink:href="#Q"/><use transform="matrix(0.05,0,0,0.05,71.80000000000001,0)" xlink:href="#T"/><use transform="matrix(0.05,0,0,0.05,81.80000000000001,0)" xlink:href="#U"/></g><path fill="#333" d="M118-107v75H92v-75H18v-26h74v-75h26v75h74v26h-74" id="aa"/><path fill="#333" d="M108 0H70L1-190h34L89-25l56-165h34" id="ab"/><path fill="#333" d="M197 0v-115H63V0H30v-248h33v105h134v-105h34V0h-34" id="ac"/><path fill="#333" d="M87 75C49 33 22-17 22-94c0-76 28-126 65-167h31c-38 41-64 92-64 168S80 34 118 75H87" id="ad"/><path fill="#333" d="M33-261c38 41 65 92 65 168S71 34 33 75H2C39 34 66-17 66-93S39-220 2-261h31" id="ae"/><g id="g"><use transform="matrix(0.05,0,0,0.05,0,0)" xlink:href="#aa"/><use transform="matrix(0.05,0,0,0.05,10.5,0)" xlink:href="#B"/><use transform="matrix(0.05,0,0,0.05,20.5,0)" xlink:href="#A"/><use transform="matrix(0.05,0,0,0.05,29.5,0)" xlink:href="#C"/><use transform="matrix(0.05,0,0,0.05,34.5,0)" xlink:href="#x"/><use transform="matrix(0.05,0,0,0.05,38.45,0)" xlink:href="#ab"/><use transform="matrix(0.05,0,0,0.05,47.45,0)" xlink:href="#B"/><use transform="matrix(0.05,0,0,0.05,57.45,0)" xlink:href="#C"/><use transform="matrix(0.05,0,0,0.05,62.45,0)" xlink:href="#F"/><use transform="matrix(0.05,0,0,0.05,72.45,0)" xlink:href="#ac"/><use transform="matrix(0.05,0,0,0.05,85.4,0)" xlink:href="#J"/><use transform="matrix(0.05,0,0,0.05,95.4,0)" xlink:href="#w"/><use transform="matrix(0.05,0,0,0.05,110.35000000000001,0)" xlink:href="#x"/><use transform="matrix(0.05,0,0,0.05,114.30000000000001,0)" xlink:href="#y"/><use transform="matrix(0.05,0,0,0.05,124.30000000000001,0)" xlink:href="#x"/><use transform="matrix(0.05,0,0,0.05,128.25,0)" xlink:href="#z"/><use transform="matrix(0.05,0,0,0.05,133.25,0)" xlink:href="#x"/><use transform="matrix(0.05,0,0,0.05,137.2,0)" xlink:href="#F"/><use transform="matrix(0.05,0,0,0.05,147.2,0)" xlink:href="#E"/><use transform="matrix(0.05,0,0,0.05,153.14999999999998,0)" xlink:href="#ad"/><use transform="matrix(0.05,0,0,0.05,159.09999999999997,0)" xlink:href="#ae"/></g><path fill="#333" d="M67-125c0 53 21 87 73 88 37 1 54-22 65-47l45 17C233-25 199 4 140 4 58 4 20-42 15-125 8-235 124-281 211-232c18 10 29 29 36 50l-46 12c-8-25-30-41-62-41-52 0-71 34-72 86" id="af"/><path fill="#333" d="M114-157C55-157 80-60 75 0H25v-261h50l-1 109c12-26 28-41 61-42 86-1 58 113 63 194h-50c-7-57 23-157-34-157" id="ag"/><path fill="#333" d="M190-63c-7 42-38 67-86 67-59 0-84-38-90-98-12-110 154-137 174-36l-49 2c-2-19-15-32-35-32-30 0-35 28-38 64-6 74 65 87 74 30" id="ah"/><path fill="#333" d="M147 0L96-86 75-71V0H25v-261h50v150l67-79h53l-66 74L201 0h-54" id="ai"/><path fill="#333" d="M123 10C108 53 80 86 19 72V37c35 8 53-11 59-39L3-190h52l48 148c12-52 28-100 44-148h51" id="aj"/><g id="h"><use transform="matrix(0.05,0,0,0.05,0,0)" xlink:href="#af"/><use transform="matrix(0.05,0,0,0.05,12.950000000000001,0)" xlink:href="#ag"/><use transform="matrix(0.05,0,0,0.05,23.900000000000002,0)" xlink:href="#T"/><use transform="matrix(0.05,0,0,0.05,33.900000000000006,0)" xlink:href="#ah"/><use transform="matrix(0.05,0,0,0.05,43.900000000000006,0)" xlink:href="#ai"/><use transform="matrix(0.05,0,0,0.05,53.900000000000006,0)" xlink:href="#T"/><use transform="matrix(0.05,0,0,0.05,63.900000000000006,0)" xlink:href="#U"/><use transform="matrix(0.05,0,0,0.05,70.9,0)" xlink:href="#N"/><use transform="matrix(0.05,0,0,0.05,83.85000000000001,0)" xlink:href="#O"/><use transform="matrix(0.05,0,0,0.05,94.80000000000001,0)" xlink:href="#P"/><use transform="matrix(0.05,0,0,0.05,110.80000000000001,0)" xlink:href="#Q"/><use transform="matrix(0.05,0,0,0.05,115.80000000000001,0)" xlink:href="#R"/><use transform="matrix(0.05,0,0,0.05,126.75,0)" xlink:href="#Q"/><use transform="matrix(0.05,0,0,0.05,131.75,0)" xlink:href="#W"/><use transform="matrix(0.05,0,0,0.05,137.7,0)" xlink:href="#aj"/></g><path fill="#333" d="M177-190C167-65 218 103 67 71c-23-6-38-20-44-43l32-5c15 47 100 32 89-28v-30C133-14 115 1 83 1 29 1 15-40 15-95c0-56 16-97 71-98 29-1 48 16 59 35 1-10 0-23 2-32h30zM94-22c36 0 50-32 50-73 0-42-14-75-50-75-39 0-46 34-46 75s6 73 46 73" id="ak"/><path fill="#333" d="M205 0l-28-72H64L36 0H1l101-248h38L239 0h-34zm-38-99l-47-123c-12 45-31 82-46 123h93" id="al"/><path fill="#333" d="M30-248c87 1 191-15 191 75 0 78-77 80-158 76V0H30v-248zm33 125c57 0 124 11 124-50 0-59-68-47-124-48v98" id="am"/><path fill="#333" d="M33 0v-248h34V0H33" id="an"/><g id="i"><use transform="matrix(0.05,0,0,0.05,0,0)" xlink:href="#aa"/><use transform="matrix(0.05,0,0,0.05,10.5,0)" xlink:href="#ak"/><use transform="matrix(0.05,0,0,0.05,20.5,0)" xlink:href="#F"/><use transform="matrix(0.05,0,0,0.05,30.5,0)" xlink:href="#C"/><use transform="matrix(0.05,0,0,0.05,35.5,0)" xlink:href="#v"/><use transform="matrix(0.05,0,0,0.05,48.45,0)" xlink:href="#w"/><use transform="matrix(0.05,0,0,0.05,63.400000000000006,0)" xlink:href="#x"/><use transform="matrix(0.05,0,0,0.05,67.35000000000001,0)" xlink:href="#y"/><use transform="matrix(0.05,0,0,0.05,77.35000000000001,0)" xlink:href="#x"/><use transform="matrix(0.05,0,0,0.05,81.30000000000001,0)" xlink:href="#C"/><use transform="matrix(0.05,0,0,0.05,86.30000000000001,0)" xlink:href="#L"/><use transform="matrix(0.05,0,0,0.05,95.30000000000001,0)" xlink:href="#F"/><use transform="matrix(0.05,0,0,0.05,105.30000000000001,0)" xlink:href="#z"/><use transform="matrix(0.05,0,0,0.05,110.30000000000001,0)" xlink:href="#E"/><use transform="matrix(0.05,0,0,0.05,116.25,0)" xlink:href="#D"/><use transform="matrix(0.05,0,0,0.05,126.25,0)" xlink:href="#w"/><use transform="matrix(0.05,0,0,0.05,141.20000000000002,0)" xlink:href="#al"/><use transform="matrix(0.05,0,0,0.05,153.20000000000002,0)" xlink:href="#am"/><use transform="matrix(0.05,0,0,0.05,165.20000000000002,0)" xlink:href="#an"/><use transform="matrix(0.05,0,0,0.05,170.20000000000002,0)" xlink:href="#ad"/><use transform="matrix(0.05,0,0,0.05,176.15,0)" xlink:href="#ae"/></g><path fill="#333" d="M106-169C34-169 62-67 57 0H25v-261h32l-1 103c12-21 28-36 61-36 89 0 53 116 60 194h-32v-121c2-32-8-49-39-48" id="ao"/><path fill="#333" d="M143 0L79-87 56-68V0H24v-261h32v163l83-92h37l-77 82L181 0h-38" id="ap"/><g id="j"><use transform="matrix(0.05,0,0,0.05,0,0)" xlink:href="#aa"/><use transform="matrix(0.05,0,0,0.05,10.5,0)" xlink:href="#A"/><use transform="matrix(0.05,0,0,0.05,19.5,0)" xlink:href="#ao"/><use transform="matrix(0.05,0,0,0.05,29.5,0)" xlink:href="#F"/><use transform="matrix(0.05,0,0,0.05,39.5,0)" xlink:href="#A"/><use transform="matrix(0.05,0,0,0.05,48.5,0)" xlink:href="#ap"/><use transform="matrix(0.05,0,0,0.05,57.5,0)" xlink:href="#v"/><use transform="matrix(0.05,0,0,0.05,70.45,0)" xlink:href="#w"/><use transform="matrix(0.05,0,0,0.05,85.4,0)" xlink:href="#x"/><use transform="matrix(0.05,0,0,0.05,89.35000000000001,0)" xlink:href="#y"/><use transform="matrix(0.05,0,0,0.05,99.35000000000001,0)" xlink:href="#x"/><use transform="matrix(0.05,0,0,0.05,103.30000000000001,0)" xlink:href="#C"/><use transform="matrix(0.05,0,0,0.05,108.30000000000001,0)" xlink:href="#L"/></g><path fill="#333" d="M67-125c0 54 23 88 75 88 28 0 53-7 68-21v-34h-60v-39h108v91C232-14 192 4 140 4 58 4 20-42 15-125 8-236 126-280 215-234c19 10 29 26 37 47l-47 15c-11-23-29-39-63-39-53 1-75 33-75 86" id="aq"/><path fill="#333" d="M199 0l-22-63H83L61 0H9l90-248h61L250 0h-51zm-33-102l-36-108c-10 38-24 72-36 108h72" id="ar"/><path fill="#333" d="M24-248c93 1 206-16 204 79-1 75-69 88-152 82V0H24v-248zm52 121c47 0 100 7 100-41 0-47-54-39-100-39v80" id="as"/><path fill="#333" d="M24 0v-248h52V0H24" id="at"/><g id="k"><use transform="matrix(0.05,0,0,0.05,0,0)" xlink:href="#aq"/><use transform="matrix(0.05,0,0,0.05,14,0)" xlink:href="#T"/><use transform="matrix(0.05,0,0,0.05,24,0)" xlink:href="#W"/><use transform="matrix(0.05,0,0,0.05,29.950000000000003,0)" xlink:href="#N"/><use transform="matrix(0.05,0,0,0.05,42.9,0)" xlink:href="#O"/><use transform="matrix(0.05,0,0,0.05,53.85,0)" xlink:href="#P"/><use transform="matrix(0.05,0,0,0.05,69.85,0)" xlink:href="#Q"/><use transform="matrix(0.05,0,0,0.05,74.85,0)" xlink:href="#R"/><use transform="matrix(0.05,0,0,0.05,85.8,0)" xlink:href="#Q"/><use transform="matrix(0.05,0,0,0.05,90.8,0)" xlink:href="#W"/><use transform="matrix(0.05,0,0,0.05,96.75,0)" xlink:href="#aj"/><use transform="matrix(0.05,0,0,0.05,106.75,0)" xlink:href="#ar"/><use transform="matrix(0.05,0,0,0.05,119.7,0)" xlink:href="#as"/><use transform="matrix(0.05,0,0,0.05,131.7,0)" xlink:href="#at"/></g><path fill="#333" d="M135-143c-3-34-86-38-87 0 15 53 115 12 119 90S17 21 10-45l28-5c4 36 97 45 98 0-10-56-113-15-118-90-4-57 82-63 122-42 12 7 21 19 24 35" id="au"/><g id="l"><use transform="matrix(0.05,0,0,0.05,0,0)" xlink:href="#aa"/><use transform="matrix(0.05,0,0,0.05,10.5,0)" xlink:href="#au"/><use transform="matrix(0.05,0,0,0.05,19.5,0)" xlink:href="#F"/><use transform="matrix(0.05,0,0,0.05,29.5,0)" xlink:href="#K"/><use transform="matrix(0.05,0,0,0.05,39.5,0)" xlink:href="#y"/><use transform="matrix(0.05,0,0,0.05,49.5,0)" xlink:href="#ac"/><use transform="matrix(0.05,0,0,0.05,62.45,0)" xlink:href="#J"/><use transform="matrix(0.05,0,0,0.05,72.45,0)" xlink:href="#w"/><use transform="matrix(0.05,0,0,0.05,87.4,0)" xlink:href="#x"/><use transform="matrix(0.05,0,0,0.05,91.35000000000001,0)" xlink:href="#y"/><use transform="matrix(0.05,0,0,0.05,101.35000000000001,0)" xlink:href="#x"/><use transform="matrix(0.05,0,0,0.05,105.30000000000001,0)" xlink:href="#C"/><use transform="matrix(0.05,0,0,0.05,110.30000000000001,0)" xlink:href="#L"/><use transform="matrix(0.05,0,0,0.05,119.30000000000001,0)" xlink:href="#ad"/><use transform="matrix(0.05,0,0,0.05,125.25,0)" xlink:href="#ae"/></g><path fill="#333" d="M230 0l2-204L168 0h-37L68-204 70 0H24v-248h70l56 185 57-185h69V0h-46" id="av"/><path fill="#333" d="M137-138c1-29-70-34-71-4 15 46 118 7 119 86 1 83-164 76-172 9l43-7c4 19 20 25 44 25 33 8 57-30 24-41C81-84 22-81 20-136c-2-80 154-74 161-7" id="aw"/><path fill="#333" d="M133-34C117-15 103 5 69 4 32 3 11-16 11-54c-1-60 55-63 116-61 1-26-3-47-28-47-18 1-26 9-28 27l-52-2c7-38 36-58 82-57s74 22 75 68l1 82c-1 14 12 18 25 15v27c-30 8-71 5-69-32zm-48 3c29 0 43-24 42-57-32 0-66-3-65 30 0 17 8 27 23 27" id="ax"/><path fill="#333" d="M195-6C206 82 75 100 31 46c-4-6-6-13-8-21l49-6c3 16 16 24 34 25 40 0 42-37 40-79-11 22-30 35-61 35-53 0-70-43-70-97 0-56 18-96 73-97 30 0 46 14 59 34l2-30h47zm-90-29c32 0 41-27 41-63 0-35-9-62-40-62-32 0-39 29-40 63 0 36 9 62 39 62" id="ay"/><g id="m"><use transform="matrix(0.05,0,0,0.05,0,0)" xlink:href="#av"/><use transform="matrix(0.05,0,0,0.05,14.950000000000001,0)" xlink:href="#T"/><use transform="matrix(0.05,0,0,0.05,24.950000000000003,0)" xlink:href="#aw"/><use transform="matrix(0.05,0,0,0.05,34.95,0)" xlink:href="#aw"/><use transform="matrix(0.05,0,0,0.05,44.95,0)" xlink:href="#ax"/><use transform="matrix(0.05,0,0,0.05,54.95,0)" xlink:href="#ay"/><use transform="matrix(0.05,0,0,0.05,65.9,0)" xlink:href="#T"/><use transform="matrix(0.05,0,0,0.05,75.9,0)" xlink:href="#N"/><use transform="matrix(0.05,0,0,0.05,88.85000000000001,0)" xlink:href="#O"/><use transform="matrix(0.05,0,0,0.05,99.80000000000001,0)" xlink:href="#P"/><use transform="matrix(0.05,0,0,0.05,115.80000000000001,0)" xlink:href="#Q"/><use transform="matrix(0.05,0,0,0.05,120.80000000000001,0)" xlink:href="#R"/><use transform="matrix(0.05,0,0,0.05,131.75,0)" xlink:href="#Q"/><use transform="matrix(0.05,0,0,0.05,136.75,0)" xlink:href="#S"/><use transform="matrix(0.05,0,0,0.05,142.7,0)" xlink:href="#Q"/><use transform="matrix(0.05,0,0,0.05,147.7,0)" xlink:href="#T"/><use transform="matrix(0.05,0,0,0.05,157.7,0)" xlink:href="#U"/></g><path fill="#333" d="M33-154v-36h34v36H33zM33 0v-36h34V0H33" id="az"/><g id="n"><use transform="matrix(0.05,0,0,0.05,0,0)" xlink:href="#aa"/><use transform="matrix(0.05,0,0,0.05,10.5,0)" xlink:href="#w"/><use transform="matrix(0.05,0,0,0.05,25.450000000000003,0)" xlink:href="#F"/><use transform="matrix(0.05,0,0,0.05,35.45,0)" xlink:href="#au"/><use transform="matrix(0.05,0,0,0.05,44.45,0)" xlink:href="#au"/><use transform="matrix(0.05,0,0,0.05,53.45,0)" xlink:href="#B"/><use transform="matrix(0.05,0,0,0.05,63.45,0)" xlink:href="#ak"/><use transform="matrix(0.05,0,0,0.05,73.45,0)" xlink:href="#F"/><use transform="matrix(0.05,0,0,0.05,83.45,0)" xlink:href="#az"/></g><g id="o"><use transform="matrix(0.05,0,0,0.05,0,0)" xlink:href="#au"/><use transform="matrix(0.05,0,0,0.05,9,0)" xlink:href="#C"/><use transform="matrix(0.05,0,0,0.05,14,0)" xlink:href="#E"/><use transform="matrix(0.05,0,0,0.05,19.95,0)" xlink:href="#x"/><use transform="matrix(0.05,0,0,0.05,23.9,0)" xlink:href="#K"/><use transform="matrix(0.05,0,0,0.05,33.9,0)" xlink:href="#ak"/></g><g id="p"><use transform="matrix(0.05,0,0,0.05,0,0)" xlink:href="#an"/><use transform="matrix(0.05,0,0,0.05,5,0)" xlink:href="#K"/><use transform="matrix(0.05,0,0,0.05,15,0)" xlink:href="#C"/><use transform="matrix(0.05,0,0,0.05,20,0)" xlink:href="#F"/><use transform="matrix(0.05,0,0,0.05,30,0)" xlink:href="#E"/><use transform="matrix(0.05,0,0,0.05,35.95,0)" xlink:href="#B"/><use transform="matrix(0.05,0,0,0.05,45.95,0)" xlink:href="#A"/><use transform="matrix(0.05,0,0,0.05,54.95,0)" xlink:href="#C"/></g><path fill="#333" d="M143 4C61 4 22-44 18-125c-5-107 100-154 193-111 17 8 29 25 37 43l-32 9c-13-25-37-40-76-40-61 0-88 39-88 99 0 61 29 100 91 101 35 0 62-11 79-27v-45h-74v-28h105v86C228-13 192 4 143 4" id="aA"/><g id="q"><use transform="matrix(0.05,0,0,0.05,0,0)" xlink:href="#aA"/><use transform="matrix(0.05,0,0,0.05,14,0)" xlink:href="#F"/><use transform="matrix(0.05,0,0,0.05,24,0)" xlink:href="#K"/><use transform="matrix(0.05,0,0,0.05,34,0)" xlink:href="#F"/><use transform="matrix(0.05,0,0,0.05,44,0)" xlink:href="#E"/><use transform="matrix(0.05,0,0,0.05,49.95,0)" xlink:href="#B"/><use transform="matrix(0.05,0,0,0.05,59.95,0)" xlink:href="#C"/><use transform="matrix(0.05,0,0,0.05,64.95,0)" xlink:href="#F"/></g><g id="r"><use transform="matrix(0.05,0,0,0.05,0,0)" xlink:href="#al"/><use transform="matrix(0.05,0,0,0.05,12,0)" xlink:href="#A"/><use transform="matrix(0.05,0,0,0.05,21,0)" xlink:href="#C"/><use transform="matrix(0.05,0,0,0.05,26,0)" xlink:href="#x"/><use transform="matrix(0.05,0,0,0.05,29.950000000000003,0)" xlink:href="#ab"/><use transform="matrix(0.05,0,0,0.05,38.95,0)" xlink:href="#B"/><use transform="matrix(0.05,0,0,0.05,48.95,0)" xlink:href="#C"/><use transform="matrix(0.05,0,0,0.05,53.95,0)" xlink:href="#F"/><use transform="matrix(0.05,0,0,0.05,63.95,0)" xlink:href="#au"/></g><g id="s"><use transform="matrix(0.05,0,0,0.05,0,0)" xlink:href="#al"/><use transform="matrix(0.05,0,0,0.05,12,0)" xlink:href="#A"/><use transform="matrix(0.05,0,0,0.05,21,0)" xlink:href="#C"/><use transform="matrix(0.05,0,0,0.05,26,0)" xlink:href="#x"/><use transform="matrix(0.05,0,0,0.05,29.950000000000003,0)" xlink:href="#ab"/><use transform="matrix(0.05,0,0,0.05,38.95,0)" xlink:href="#B"/><use transform="matrix(0.05,0,0,0.05,48.95,0)" xlink:href="#C"/><use transform="matrix(0.05,0,0,0.05,53.95,0)" xlink:href="#F"/></g><g id="t"><use transform="matrix(0.05,0,0,0.05,0,0)" xlink:href="#H"/><use transform="matrix(0.05,0,0,0.05,10,0)" xlink:href="#I"/><use transform="matrix(0.05,0,0,0.05,20,0)" xlink:href="#D"/><use transform="matrix(0.05,0,0,0.05,30,0)" xlink:href="#J"/><use transform="matrix(0.05,0,0,0.05,40,0)" xlink:href="#K"/><use transform="matrix(0.05,0,0,0.05,50,0)" xlink:href="#y"/><use transform="matrix(0.05,0,0,0.05,60,0)" xlink:href="#B"/><use transform="matrix(0.05,0,0,0.05,70,0)" xlink:href="#E"/><use transform="matrix(0.05,0,0,0.05,75.95,0)" xlink:href="#L"/><use transform="matrix(0.05,0,0,0.05,84.95,0)" xlink:href="#M"/></g><path fill="#333" d="M30-248c118-7 216 8 213 122C240-48 200 0 122 0H30v-248zM63-27c89 8 146-16 146-99s-60-101-146-95v194" id="aB"/><path fill="#333" d="M115-194c55 1 70 41 70 98S169 2 115 4C84 4 66-9 55-30l1 105H24l-1-265h31l2 30c10-21 28-34 59-34zm-8 174c40 0 45-34 45-75s-6-73-45-74c-42 0-51 32-51 76 0 43 10 73 51 73" id="aC"/><g id="u"><use transform="matrix(0.05,0,0,0.05,0,0)" xlink:href="#aB"/><use transform="matrix(0.05,0,0,0.05,12.950000000000001,0)" xlink:href="#x"/><use transform="matrix(0.05,0,0,0.05,16.900000000000002,0)" xlink:href="#au"/><use transform="matrix(0.05,0,0,0.05,25.900000000000002,0)" xlink:href="#aC"/><use transform="matrix(0.05,0,0,0.05,35.900000000000006,0)" xlink:href="#Z"/><use transform="matrix(0.05,0,0,0.05,39.85000000000001,0)" xlink:href="#B"/><use transform="matrix(0.05,0,0,0.05,49.85000000000001,0)" xlink:href="#L"/></g></defs></g></svg>